<?xml version="1.0" standalone="no"?>
<!DOCTYPE svg PUBLIC "-//W3C//DTD SVG 1.1//EN" "http://www.w3.org/Graphics/SVG/1.1/DTD/svg11.dtd" >
<svg xmlns="http://www.w3.org/2000/svg" xmlns:xlink="http://www.w3.org/1999/xlink" version="1.1">
<metadata></metadata>
<defs>
<font id="proxima_nova_blblack" horiz-adv-x="1220" >
<font-face units-per-em="2048" ascent="1618" descent="-430" />
<missing-glyph horiz-adv-x="522" />
<glyph unicode="ffj" horiz-adv-x="2093" d="M14 670v319h164v45q0 155 106 253.5t271 98.5q92 0 175.5 -26.5t133.5 -79.5l-133 -205q-33 39 -90 39q-37 0 -65.5 -22.5t-28.5 -57.5v-45h201v-319h-201v-670h-369v670h-164zM774 670v319h164v45q0 154 106.5 253t270.5 99q139 0 229 -49l-67 -250q-35 27 -82 27 q-37 0 -62.5 -23t-25.5 -57v-45h200v-319h-200v-670h-369v670h-164zM1303 -334l88 273q31 -23 55 -31t67 -8q52 0 80.5 36.5t28.5 106.5v946h369v-946q0 -201 -103 -322.5t-309 -121.5q-107 0 -159.5 14t-116.5 53zM1599 1268q0 86 60.5 146.5t146.5 60.5t146.5 -60.5 t60.5 -146.5t-60.5 -146.5t-146.5 -60.5t-146.5 60.5t-60.5 146.5z" />
<glyph unicode="fj" horiz-adv-x="1333" d="M14 670v319h164v45q0 154 106.5 253t270.5 99q139 0 229 -49l-67 -250q-35 27 -82 27q-37 0 -62.5 -23t-25.5 -57v-45h201v-319h-201v-670h-369v670h-164zM543 -334l88 273q31 -23 55.5 -31t67.5 -8q52 0 80 36.5t28 106.5v946h369v-946q0 -201 -103 -322.5t-309 -121.5 q-107 0 -159.5 14t-116.5 53zM840 1268q0 86 60.5 146.5t146.5 60.5t146 -60.5t60 -146.5t-60 -146.5t-146 -60.5t-146.5 60.5t-60.5 146.5z" />
<glyph unicode="ff" horiz-adv-x="1519" d="M14 670v319h164v45q0 155 106 253.5t271 98.5q92 0 175.5 -26.5t133.5 -79.5l-133 -205q-33 39 -90 39q-37 0 -65.5 -22.5t-28.5 -57.5v-45h201v-319h-201v-670h-369v670h-164zM774 670v319h164v45q0 155 106 253.5t271 98.5q92 0 175.5 -26.5t133.5 -79.5l-133 -205 q-33 39 -90 39q-37 0 -65.5 -22.5t-28.5 -57.5v-45h200v-319h-200v-670h-369v670h-164z" />
<glyph unicode="fi" horiz-adv-x="1333" d="M14 670v319h164v45q0 154 106.5 253t270.5 99q139 0 229 -49l-67 -250q-35 27 -82 27q-37 0 -62.5 -23t-25.5 -57v-45h201v-319h-201v-670h-369v670h-164zM840 1268q0 86 60.5 146.5t146.5 60.5t146 -60.5t60 -146.5t-60 -146.5t-146 -60.5t-146.5 60.5t-60.5 146.5z M862 0v989h369v-989h-369z" />
<glyph unicode="fl" horiz-adv-x="1333" d="M14 670v319h164v45q0 154 106.5 253t270.5 99q139 0 229 -49l-67 -250q-35 27 -82 27q-37 0 -62.5 -23t-25.5 -57v-45h201v-319h-201v-670h-369v670h-164zM862 0v1366h369v-1366h-369z" />
<glyph unicode="ffi" horiz-adv-x="2093" d="M14 670v319h164v45q0 155 106 253.5t271 98.5q92 0 175.5 -26.5t133.5 -79.5l-133 -205q-33 39 -90 39q-37 0 -65.5 -22.5t-28.5 -57.5v-45h201v-319h-201v-670h-369v670h-164zM774 670v319h164v45q0 154 106.5 253t270.5 99q139 0 229 -49l-67 -250q-35 27 -82 27 q-37 0 -62.5 -23t-25.5 -57v-45h200v-319h-200v-670h-369v670h-164zM1599 1268q0 86 60.5 146.5t146.5 60.5t146.5 -60.5t60.5 -146.5t-60.5 -146.5t-146.5 -60.5t-146.5 60.5t-60.5 146.5zM1622 0v989h369v-989h-369z" />
<glyph unicode="ffl" horiz-adv-x="2093" d="M14 670v319h164v45q0 155 106 253.5t271 98.5q92 0 175.5 -26.5t133.5 -79.5l-133 -205q-33 39 -90 39q-37 0 -65.5 -22.5t-28.5 -57.5v-45h201v-319h-201v-670h-369v670h-164zM774 670v319h164v45q0 154 106.5 253t270.5 99q139 0 229 -49l-67 -250q-35 27 -82 27 q-37 0 -62.5 -23t-25.5 -57v-45h200v-319h-200v-670h-369v670h-164zM1622 0v1366h369v-1366h-369z" />
<glyph unicode="fb" horiz-adv-x="1980" d="M14 670v319h164v45q0 154 106.5 253t270.5 99q139 0 229 -49l-67 -250q-35 27 -82 27q-37 0 -62.5 -23t-25.5 -57v-45h201v-319h-201v-670h-369v670h-164zM862 0v1366h369v-481q107 129 278 129q189 0 313 -139.5t124 -378.5q0 -124 -34.5 -224t-94 -164.5t-138.5 -98.5 t-170 -34q-163 0 -278 129v-104h-369zM1231 367q25 -31 69 -48.5t84 -17.5q78 0 131.5 52.5t53.5 142.5q0 89 -53.5 140.5t-131.5 51.5q-39 0 -83.5 -18t-69.5 -49v-254z" />
<glyph unicode="fh" horiz-adv-x="2004" d="M14 670v319h164v45q0 154 106.5 253t270.5 99q139 0 229 -49l-67 -250q-35 27 -82 27q-37 0 -62.5 -23t-25.5 -57v-45h201v-319h-201v-670h-369v670h-164zM864 0v1366h369v-489q50 58 135.5 97.5t204.5 39.5q164 0 247 -85t83 -222v-707h-369v551q0 73 -36.5 105 t-106.5 32q-56 0 -91.5 -21.5t-66.5 -56.5v-610h-369z" />
<glyph unicode="fk" horiz-adv-x="1900" d="M14 670v319h164v45q0 154 106.5 253t270.5 99q139 0 229 -49l-67 -250q-35 27 -82 27q-37 0 -62.5 -23t-25.5 -57v-45h201v-319h-201v-670h-369v670h-164zM862 0v1366h369v-729l227 352h445l-340 -450l362 -539h-452l-170 319l-72 -96v-223h-369z" />
<glyph unicode="&#xd;" horiz-adv-x="0" />
<glyph unicode=" "  horiz-adv-x="522" />
<glyph unicode="&#x09;" horiz-adv-x="522" />
<glyph unicode="&#xa0;" horiz-adv-x="522" />
<glyph unicode="!" horiz-adv-x="573" d="M68 1366h438l-51 -858h-332zM72 195q0 89 64 154t153 65t153 -65t64 -154q0 -88 -64 -153t-153 -65t-153 65t-64 153z" />
<glyph unicode="&#x22;" horiz-adv-x="960" d="M70 1198q0 78 55.5 133t132.5 55t132.5 -55t55.5 -133q0 -21 -28 -147t-56 -241l-28 -116h-152q-112 457 -112 504zM516 1198q0 78 55.5 133t133.5 55q77 0 131.5 -55t54.5 -133q0 -21 -28.5 -147t-56.5 -241l-28 -116h-149q-113 457 -113 504z" />
<glyph unicode="#" horiz-adv-x="1323" d="M25 324l71 223h180l89 270h-179l70 221h184l109 328h260l-109 -328h160l109 328h260l-111 -328h180l-67 -221h-187l-90 -270h187l-70 -223h-192l-107 -324h-260l109 324h-162l-107 -324h-260l109 324h-176zM537 547h157l90 270h-159z" />
<glyph unicode="$" horiz-adv-x="1300" d="M37 193l215 307q82 -79 195.5 -127.5t244.5 -48.5q65 0 108.5 18t43.5 55q0 21 -26 35t-70 23.5t-101.5 19t-120.5 23.5t-126 33.5t-120.5 53.5t-101.5 79t-70 114.5t-26 155.5q0 164 119.5 290t335.5 154v195h262v-197q251 -35 430 -180l-221 -293q-86 65 -194 100 t-208 35q-104 0 -104 -61q0 -20 26 -35t70 -25t101 -20.5t120 -25t126 -34.5t120 -53t101 -76.5t70 -109.5t26 -147q0 -197 -121.5 -318t-341.5 -149v-189h-262v189q-302 28 -500 209z" />
<glyph unicode="%" horiz-adv-x="1605" d="M41 1040q0 148 100.5 247t264.5 99q165 0 266.5 -99t101.5 -247q0 -146 -101.5 -244t-266.5 -98q-164 0 -264.5 98t-100.5 244zM268 0l873 1366h200l-874 -1366h-199zM291 1040q0 -63 32 -94t83 -31q53 0 85.5 31t32.5 94q0 66 -32.5 97.5t-85.5 31.5q-51 0 -83 -32 t-32 -97zM834 317q0 148 100 247.5t264 99.5t265.5 -99.5t101.5 -247.5q0 -146 -101.5 -244t-265.5 -98t-264 98t-100 244zM1081 317q0 -64 32 -94t85 -30t86 30t33 94q0 65 -33 97t-86 32t-85 -31.5t-32 -97.5z" />
<glyph unicode="&#x26;" horiz-adv-x="1335" d="M25 387q0 73 22 134t64 106.5t89.5 79t110.5 63.5q-75 150 -75 279q0 142 122 239.5t314 97.5q106 0 198 -35.5t150.5 -107.5t58.5 -166q0 -61 -19 -112.5t-46.5 -87t-74 -68.5t-86 -53t-97.5 -45q50 -69 78 -101l73 -94q68 107 101 217l284 -135q-88 -182 -194 -309 q131 -147 262 -289h-455l-63 66q-160 -91 -340 -91q-136 0 -242 44.5t-170.5 139t-64.5 228.5zM410 424q0 -71 43 -118.5t104 -47.5q47 0 96 21q-61 70 -102 124q-35 44 -100 136q-41 -50 -41 -115zM596 1038q0 -59 39 -135q65 32 100 68t35 84q0 32 -23 53.5t-57 21.5 q-41 0 -67.5 -26t-26.5 -66z" />
<glyph unicode="'" horiz-adv-x="516" d="M70 1198q0 78 55.5 133t132.5 55t132.5 -55t55.5 -133q0 -21 -28 -147t-56 -241l-28 -116h-152q-112 457 -112 504z" />
<glyph unicode="(" horiz-adv-x="708" d="M76 498q0 251 100.5 505.5t261.5 399.5l234 -178q-108 -178 -154.5 -348.5t-46.5 -378.5q0 -207 47 -377.5t154 -345.5l-234 -183q-161 144 -261.5 399.5t-100.5 506.5z" />
<glyph unicode=")" horiz-adv-x="710" d="M37 -225q107 175 154 345.5t47 377.5q0 208 -46.5 378.5t-154.5 348.5l233 178q161 -145 262 -400t101 -505t-101 -505.5t-262 -400.5z" />
<glyph unicode="*" horiz-adv-x="743" d="M35 946l188 98l-188 99l82 143l180 -115l-8 215h166l-11 -215l181 115l84 -143l-191 -99l191 -98l-84 -143l-181 115l11 -216h-166l8 216l-180 -115z" />
<glyph unicode="+" horiz-adv-x="1044" d="M59 584v215h344v379h238v-379h344v-215h-344v-396h-238v396h-344z" />
<glyph unicode="," horiz-adv-x="575" d="M70 199q0 89 63 152t150 63q98 0 167.5 -71.5t69.5 -192.5q0 -133 -67 -249t-189 -202l-149 121q52 23 109.5 81.5t76.5 114.5q-20 -8 -53 -8q-75 0 -126.5 53t-51.5 138z" />
<glyph unicode="-" horiz-adv-x="614" d="M61 342v307h492v-307h-492z" />
<glyph unicode="." horiz-adv-x="579" d="M70 195q0 89 65 154t154 65t154 -65t65 -154t-65 -154.5t-154 -65.5t-154 65.5t-65 154.5z" />
<glyph unicode="/" horiz-adv-x="741" d="M0 -41l485 1448h256l-485 -1448h-256z" />
<glyph unicode="0" horiz-adv-x="1286" d="M37 682q0 113 23.5 216t72.5 192t120 155t171 103.5t219 37.5t219 -37.5t171 -103.5t120 -155t72.5 -192t23.5 -216t-23.5 -216t-73 -193t-120 -156t-170.5 -104t-219 -38t-219 38t-170.5 104t-120 156t-73 193t-23.5 216zM453 682q0 -174 46 -258t144 -84t144.5 84 t46.5 258t-46.5 257t-144.5 83t-144 -83t-46 -257z" />
<glyph unicode="1" horiz-adv-x="989" d="M0 854l522 512h357v-1366h-414v840l-232 -230z" />
<glyph unicode="2" horiz-adv-x="1255" d="M25 1155q111 118 265.5 174.5t311.5 56.5q263 0 424.5 -132t161.5 -339q0 -143 -96.5 -270t-335.5 -285h444v-360h-1116v322q171 120 269 190t184.5 135.5t124.5 98.5t66 67t34 54t6 48q0 48 -45 77.5t-113 29.5q-193 0 -360 -141z" />
<glyph unicode="3" horiz-adv-x="1263" d="M25 188l202 283q74 -64 178.5 -97.5t192.5 -33.5q96 0 147.5 26.5t51.5 65.5q0 26 -14 40.5t-61.5 24t-135.5 9.5q-159 0 -199 -4v366q27 -2 199 -2q188 0 188 68q0 88 -203 88q-89 0 -176 -30.5t-157 -88.5l-195 258q205 225 573 225q276 0 423 -102.5t147 -275.5 q0 -109 -85.5 -195t-215.5 -108q58 -6 114.5 -30.5t103.5 -64.5t76 -98.5t29 -126.5q0 -183 -164.5 -296.5t-429.5 -113.5q-195 0 -346.5 58t-242.5 155z" />
<glyph unicode="4" horiz-adv-x="1302" d="M37 219v318l498 829h573v-786h158v-361h-158v-219h-414v219h-657zM436 580h258v430z" />
<glyph unicode="5" horiz-adv-x="1282" d="M66 168l221 291q69 -57 161.5 -88t184.5 -31q96 0 144 33t48 80q0 49 -45 80.5t-135 31.5q-154 0 -254 -94l-285 66v829h1045v-360h-631v-193q51 48 126 76.5t159 28.5q117 0 217 -54t161.5 -157.5t61.5 -235.5q0 -228 -161.5 -362t-446.5 -134q-359 0 -571 193z" />
<glyph unicode="6" horiz-adv-x="1280" d="M37 680q0 224 91.5 385t251.5 241t374 80q117 0 231 -31.5t195 -86.5l-174 -320q-105 74 -252 74q-53 0 -104 -14.5t-95.5 -42t-72 -75t-27.5 -106.5v-4q52 66 137 103t180 37q93 0 179.5 -30.5t154.5 -86.5t108.5 -143t40.5 -193q0 -220 -160.5 -356t-406.5 -136 q-164 0 -290.5 53.5t-204 150t-117 223t-39.5 278.5zM453 514q7 -76 58 -125t151 -49q76 0 125 33.5t49 77.5q0 41 -32 69t-73 38.5t-86 10.5q-122 0 -192 -55z" />
<glyph unicode="7" horiz-adv-x="1177" d="M37 1006v360h1116v-287l-455 -1079h-452l432 1006h-641z" />
<glyph unicode="8" horiz-adv-x="1290" d="M37 365q0 109 70.5 199.5t189.5 140.5q-238 98 -238 315q0 78 34 141t91 104t133.5 69t158 40t169.5 12t169.5 -12t158 -40t133.5 -69t91 -104t34 -141q0 -216 -240 -315q119 -50 190.5 -141t71.5 -199q0 -101 -51.5 -178t-139.5 -122t-193.5 -67.5t-223.5 -22.5 t-223.5 22.5t-193.5 67.5t-139.5 122t-51.5 178zM457 412q0 -44 51 -72.5t137 -28.5q84 0 136.5 29t52.5 72q0 37 -58.5 66.5t-130.5 39.5q-73 -10 -130.5 -39.5t-57.5 -66.5zM479 958q0 -31 50 -58t116 -36q66 9 115 36t49 58q0 42 -44 67.5t-120 25.5q-77 0 -121.5 -25.5 t-44.5 -67.5z" />
<glyph unicode="9" horiz-adv-x="1280" d="M25 897q0 220 160.5 356t406.5 136q164 0 290.5 -53.5t204 -150t117 -223t39.5 -278.5q0 -224 -91.5 -385t-252 -241.5t-373.5 -80.5q-117 0 -230.5 31.5t-195.5 87.5l174 320q105 -74 252 -74q130 0 214.5 67.5t84.5 168.5v6q-52 -66 -137 -103t-180 -37 q-93 0 -179.5 30.5t-154.5 86.5t-108.5 143t-40.5 193zM444 913q0 -41 32 -69t73 -38.5t86 -10.5q122 0 192 55q-7 76 -58 125t-153 49q-74 0 -123 -33.5t-49 -77.5z" />
<glyph unicode=":" horiz-adv-x="544" d="M70 195q0 89 65 154t154 65t154 -65t65 -154t-65 -154.5t-154 -65.5t-154 65.5t-65 154.5zM70 784q0 89 65 154.5t154 65.5t154 -65.5t65 -154.5t-65 -154t-154 -65t-154 65t-65 154z" />
<glyph unicode=";" horiz-adv-x="575" d="M70 201q0 89 63 152t150 63q98 0 167.5 -71.5t69.5 -192.5q0 -133 -67 -249t-189 -202l-149 121q52 23 109.5 81.5t76.5 114.5q-20 -8 -53 -8q-75 0 -126.5 53t-51.5 138zM70 786q0 89 65 153.5t154 64.5t154 -64.5t65 -153.5t-65 -155t-154 -66t-154 66t-65 155z" />
<glyph unicode="&#x3c;" horiz-adv-x="1044" d="M59 553v266l926 369v-256l-684 -248l684 -244v-256z" />
<glyph unicode="=" horiz-adv-x="1044" d="M59 389v215h926v-215h-926zM59 764v215h926v-215h-926z" />
<glyph unicode="&#x3e;" horiz-adv-x="1044" d="M59 184v256l684 244l-684 248v256l926 -369v-266z" />
<glyph unicode="?" horiz-adv-x="921" d="M0 1200q86 92 207.5 139t247.5 47q207 0 328.5 -88.5t121.5 -240.5q0 -59 -16 -108.5t-41.5 -83t-56.5 -62.5t-62.5 -51.5t-57 -44t-41.5 -46.5t-16 -53q0 -48 23 -76l-324 -73q-55 75 -55 194q0 62 23.5 112.5t57 81t67.5 54t57.5 42.5t23.5 36q0 43 -79 43 q-41 0 -91.5 -23.5t-87.5 -62.5zM248 195q0 89 65 154t154 65t154 -65t65 -154t-65 -154.5t-154 -65.5t-154 65.5t-65 154.5z" />
<glyph unicode="@" horiz-adv-x="1603" d="M72 500q0 158 67.5 307.5t178.5 258.5t260.5 175t306.5 66q145 0 267.5 -49t204.5 -132t127.5 -193t45.5 -231q0 -106 -30 -195.5t-78 -149.5t-109 -102.5t-122 -61.5t-118 -19q-91 0 -142.5 38t-68.5 97l-4 15q-52 -74 -122.5 -112t-141.5 -38q-151 0 -236.5 100.5 t-85.5 255.5q0 95 37 185.5t98 156.5t142.5 106t167.5 40q84 0 149 -30.5t101 -84.5l18 90h324l-95 -444q-6 -30 -6 -55q0 -78 58 -78q65 0 113 77t48 209q0 236 -147.5 375.5t-402.5 139.5q-140 0 -271.5 -58t-228 -154t-155 -227.5t-58.5 -271.5q0 -157 72.5 -285 t203 -202t291.5 -74q193 0 367 110l49 -69q-200 -129 -426 -129q-183 0 -332 85t-233 232t-84 326zM604 559q0 -60 35 -95.5t94 -35.5q85 0 152 84l39 195q-38 57 -119 57q-90 0 -145.5 -61.5t-55.5 -143.5z" />
<glyph unicode="A" horiz-adv-x="1454" d="M-37 0l504 1366h520l504 -1366h-469l-49 160h-492l-49 -160h-469zM592 520h270l-135 441z" />
<glyph unicode="B" horiz-adv-x="1427" d="M111 0v1366h829q102 0 182.5 -31.5t127.5 -83t71.5 -111.5t24.5 -122q0 -124 -65.5 -207t-168.5 -106q112 -18 186 -111t74 -223q0 -73 -25 -138.5t-73 -118t-127 -83.5t-178 -31h-858zM524 344h332q44 0 70 23.5t26 62.5q0 38 -26.5 63t-69.5 25h-332v-174zM524 862h320 q33 0 57.5 23t24.5 59q0 34 -24.5 56t-57.5 22h-320v-160z" />
<glyph unicode="C" horiz-adv-x="1427" d="M37 682q0 207 98.5 369t269 250t383.5 88q103 0 193.5 -23.5t156 -62t120 -92t90 -107t61.5 -113.5l-356 -166q-27 83 -101.5 141t-163.5 58q-147 0 -239 -98.5t-92 -243.5t92 -243.5t239 -98.5q89 0 163.5 58t101.5 141l356 -164q-26 -59 -61 -112t-89.5 -107t-120 -93 t-156.5 -63.5t-194 -24.5q-213 0 -384 88.5t-269 250.5t-98 368z" />
<glyph unicode="D" horiz-adv-x="1507" d="M111 0v1366h610q217 0 385 -78.5t266 -234.5t98 -369t-98 -369.5t-265.5 -235.5t-383.5 -79h-612zM524 360h197q150 0 240 94.5t90 229.5q0 144 -84 233t-244 89h-199v-646z" />
<glyph unicode="E" d="M111 0v1366h1036v-360h-623v-136h609v-360h-609v-150h623v-360h-1036z" />
<glyph unicode="F" horiz-adv-x="1212" d="M111 0v1366h1036v-360h-623v-136h609v-360h-609v-510h-413z" />
<glyph unicode="G" horiz-adv-x="1486" d="M37 682q0 160 59 294.5t161 224t239 139t292 49.5q95 0 179.5 -20.5t148.5 -54.5t118 -81t91 -96.5t64 -104.5l-349 -178q-33 70 -99.5 120t-152.5 50q-147 0 -239 -98.5t-92 -243.5t92 -243.5t239 -98.5q58 0 119 18t94 43v50h-253v360h665v-559q-251 -277 -625 -277 q-155 0 -292 50t-239 139.5t-161 223.5t-59 294z" />
<glyph unicode="H" horiz-adv-x="1538" d="M111 0v1366h413v-483h490v483h413v-1366h-413v522h-490v-522h-413z" />
<glyph unicode="I" horiz-adv-x="634" d="M111 0v1366h413v-1366h-413z" />
<glyph unicode="J" horiz-adv-x="1019" d="M0 86l168 315q89 -61 176 -61q68 0 110 41.5t42 112.5v872h413v-879q0 -255 -141 -383.5t-387 -128.5q-238 0 -381 111z" />
<glyph unicode="K" horiz-adv-x="1374" d="M111 0v1366h413v-512l359 512h506l-517 -635l539 -731h-504l-307 481l-76 -102v-379h-413z" />
<glyph unicode="L" horiz-adv-x="1097" d="M111 0v1366h413v-1006h518v-360h-931z" />
<glyph unicode="M" horiz-adv-x="1843" d="M111 0v1366h571l240 -655l239 655h572v-1366h-414v821l-305 -821h-185l-305 821v-821h-413z" />
<glyph unicode="N" horiz-adv-x="1536" d="M111 0v1366h426l475 -647v647h413v-1366h-397l-504 692v-692h-413z" />
<glyph unicode="O" horiz-adv-x="1568" d="M37 682q0 155 57.5 287.5t157.5 224t237.5 143.5t294.5 52t295 -52t237.5 -143.5t157.5 -224t58 -287.5t-58 -287.5t-157.5 -224t-237.5 -143.5t-295 -52t-294.5 52t-237.5 143.5t-157.5 224t-57.5 287.5zM457 682q0 -146 90.5 -244t236.5 -98t237 98t91 244t-91 244 t-237 98t-236.5 -98t-90.5 -244z" />
<glyph unicode="P" horiz-adv-x="1355" d="M111 0v1366h729q154 0 267.5 -64.5t168.5 -169.5t55 -235q0 -129 -55 -233.5t-168.5 -169t-267.5 -64.5h-316v-430h-413zM524 791h262q55 0 90 27t35 79q0 53 -35 81t-90 28h-262v-215z" />
<glyph unicode="Q" horiz-adv-x="1568" d="M37 682q0 155 57.5 287.5t157.5 224t237.5 143.5t294.5 52t295 -52t237.5 -143.5t157.5 -224t58 -287.5q0 -272 -170 -463l74 -92l-287 -229l-96 118q-128 -41 -269 -41q-157 0 -294.5 52t-237.5 143.5t-157.5 224t-57.5 287.5zM457 682q0 -146 90.5 -244t236.5 -98h13 l-95 119l287 229l103 -131q20 56 20 125q0 146 -91 244t-237 98t-236.5 -98t-90.5 -244z" />
<glyph unicode="R" horiz-adv-x="1388" d="M111 0v1366h729q154 0 267.5 -64.5t168.5 -169.5t55 -235q0 -84 -22.5 -155.5t-60.5 -121t-78 -82.5t-85 -55l248 -483h-471l-188 430h-150v-430h-413zM524 791h252q57 0 96 27t39 81q0 52 -39 79.5t-96 27.5h-252v-215z" />
<glyph unicode="S" horiz-adv-x="1255" d="M6 193l215 307q82 -79 196 -127.5t245 -48.5q65 0 108 18t43 55q0 21 -26 35t-70 23.5t-101.5 19t-120.5 23.5t-126 33.5t-120.5 53.5t-101.5 79t-70 114.5t-26 155.5q0 88 36.5 168.5t105.5 144t179 101.5t246 38q347 0 580 -190l-221 -293q-86 65 -193.5 100t-208.5 35 q-104 0 -104 -61q0 -20 26 -35t70 -25t101 -20.5t120 -25t126 -34.5t120 -53t101 -76.5t70 -109.5t26 -147q0 -225 -157 -350.5t-433 -125.5q-394 0 -635 218z" />
<glyph unicode="T" horiz-adv-x="1218" d="M37 1006v360h1145v-360h-365v-1006h-414v1006h-366z" />
<glyph unicode="U" horiz-adv-x="1570" d="M111 561v805h419v-791q0 -103 66.5 -169t189.5 -66q121 0 187.5 66t66.5 169v791h420v-803q0 -129 -41 -235.5t-122.5 -186t-211.5 -123t-299 -43.5t-299.5 43.5t-211.5 123t-122.5 185t-41.5 234.5z" />
<glyph unicode="V" horiz-adv-x="1454" d="M-37 1366h469l295 -920l295 920h469l-504 -1366h-520z" />
<glyph unicode="W" horiz-adv-x="1953" d="M-25 1366h463l176 -836l207 836h312l206 -836l174 836h465l-391 -1366h-434l-176 774l-176 -774h-434z" />
<glyph unicode="X" horiz-adv-x="1400" d="M-37 0l457 700l-426 666h485l221 -389l218 389h489l-426 -664l457 -702h-488l-250 418l-249 -418h-488z" />
<glyph unicode="Y" horiz-adv-x="1359" d="M-37 1366h465l254 -461l250 461h465l-508 -823v-543h-414v543z" />
<glyph unicode="Z" horiz-adv-x="1228" d="M74 0v328l520 678h-520v360h1067v-326l-523 -680h537v-360h-1081z" />
<glyph unicode="[" horiz-adv-x="649" d="M111 -389v1778h501v-234h-245v-1311h245v-233h-501z" />
<glyph unicode="\" horiz-adv-x="741" d="M0 1407h256l485 -1448h-256z" />
<glyph unicode="]" horiz-adv-x="649" d="M37 -156h246v1311h-246v234h502v-1778h-502v233z" />
<glyph unicode="^" horiz-adv-x="921" d="M39 682l293 684h264l287 -684h-258l-164 440l-162 -440h-260z" />
<glyph unicode="_" horiz-adv-x="1155" d="M-6 -82h1167v-233h-1167v233z" />
<glyph unicode="`" horiz-adv-x="563" d="M0 1434h317l246 -295h-246z" />
<glyph unicode="a" horiz-adv-x="1144" d="M35 301q0 71 21.5 127t55.5 90.5t80 57t91 31.5t92 9q98 0 179 -29t120 -79v102q0 54 -48.5 88.5t-136.5 34.5q-69 0 -142 -26t-132 -70l-125 227q94 75 219.5 112.5t247.5 37.5q78 0 145 -11.5t131.5 -40.5t109 -74.5t72 -119.5t27.5 -170v-598h-368v94 q-41 -53 -124 -86t-175 -33q-58 0 -116 20t-109 58t-83 103t-32 145zM399 295q0 -42 38 -61t91 -19q45 0 86.5 14t59.5 39v56q-18 25 -59.5 39t-86.5 14q-53 0 -91 -20t-38 -62z" />
<glyph unicode="b" d="M102 0v1366h369v-481q107 129 279 129q189 0 312.5 -139.5t123.5 -378.5q0 -124 -34 -224t-94 -164.5t-138.5 -98.5t-169.5 -34q-164 0 -279 129v-104h-369zM471 367q25 -30 69.5 -48t84.5 -18q78 0 131 52.5t53 142.5q0 89 -53 140.5t-131 51.5q-39 0 -84 -18t-70 -49 v-254z" />
<glyph unicode="c" horiz-adv-x="1028" d="M35 496q0 153 73.5 272t199.5 182.5t282 63.5q154 0 262.5 -56t157.5 -131l-238 -223q-25 38 -67.5 61t-98.5 23q-83 0 -138.5 -50.5t-55.5 -141.5t56 -143t138 -52q55 0 97.5 24.5t68.5 61.5l238 -225q-50 -74 -158.5 -130.5t-261.5 -56.5q-156 0 -282 64t-199.5 183.5 t-73.5 273.5z" />
<glyph unicode="d" d="M35 496q0 239 123.5 378.5t312.5 139.5q172 0 279 -129v481h368v-1366h-368v104q-115 -129 -279 -129q-91 0 -169.5 34t-138.5 98.5t-94 164.5t-34 224zM412 496q0 -89 53 -142t131 -53q39 0 84 18.5t70 49.5v254q-25 30 -69.5 47.5t-84.5 17.5q-78 0 -131 -51.5 t-53 -140.5z" />
<glyph unicode="e" horiz-adv-x="1112" d="M35 496q0 107 39.5 202t109.5 165t171 110.5t218 40.5q224 0 369 -151t145 -406v-76h-671q16 -52 72 -88.5t141 -36.5q48 0 120.5 20t106.5 50l152 -228q-70 -60 -187 -91.5t-235 -31.5q-155 0 -279.5 61.5t-198 181t-73.5 278.5zM412 614h325q-5 19 -14 37t-26.5 38 t-49.5 32t-74 12q-129 0 -161 -119z" />
<glyph unicode="f" horiz-adv-x="759" d="M14 670v319h164v45q0 155 106 253.5t271 98.5q92 0 175.5 -26.5t133.5 -79.5l-133 -205q-33 39 -90 39q-37 0 -65.5 -22.5t-28.5 -57.5v-45h201v-319h-201v-670h-369v670h-164z" />
<glyph unicode="g" horiz-adv-x="1218" d="M35 520q0 238 121 366t313 128q169 0 279 -129v104h368v-883q0 -123 -39.5 -216.5t-99.5 -147.5t-143 -87.5t-158 -44.5t-158 -11q-264 0 -450 147l155 262q54 -54 132.5 -81t162.5 -27q38 0 73.5 8.5t73 29t60.5 64t23 104.5v54q-116 -133 -279 -133q-91 0 -168.5 30 t-137.5 89t-94 155t-34 219zM412 520q0 -86 51.5 -127t132.5 -41q38 0 82.5 17.5t69.5 46.5v209q-25 29 -69.5 46t-82.5 17q-81 0 -132.5 -41t-51.5 -127z" />
<glyph unicode="h" horiz-adv-x="1245" d="M104 0v1366h369v-489q50 58 135.5 97.5t204.5 39.5q164 0 247 -85t83 -222v-707h-369v551q0 73 -36.5 105t-106.5 32q-56 0 -91.5 -21.5t-66.5 -56.5v-610h-369z" />
<glyph unicode="i" horiz-adv-x="573" d="M80 1268q0 86 60.5 146.5t146.5 60.5t146.5 -60.5t60.5 -146.5t-60.5 -146.5t-146.5 -60.5t-146.5 60.5t-60.5 146.5zM102 0v989h369v-989h-369z" />
<glyph unicode="j" horiz-adv-x="573" d="M-217 -334l88 273q31 -23 55.5 -31t67.5 -8q52 0 80 36.5t28 106.5v946h369v-946q0 -201 -103 -322.5t-309 -121.5q-107 0 -159.5 14t-116.5 53zM80 1268q0 86 60.5 146.5t146.5 60.5t146.5 -60.5t60.5 -146.5t-60.5 -146.5t-146.5 -60.5t-146.5 60.5t-60.5 146.5z" />
<glyph unicode="k" horiz-adv-x="1140" d="M102 0v1366h369v-729l227 352h445l-340 -450l362 -539h-452l-170 319l-72 -96v-223h-369z" />
<glyph unicode="l" horiz-adv-x="573" d="M102 0v1366h369v-1366h-369z" />
<glyph unicode="m" horiz-adv-x="1837" d="M102 0v989h369v-112q39 50 129 93.5t199 43.5q220 0 284 -174q47 71 141 122.5t206 51.5q142 0 223.5 -74t81.5 -223v-717h-369v578q0 48 -27.5 79t-85.5 31q-84 0 -151 -78v-610h-369v578q0 49 -26.5 79.5t-85.5 30.5q-83 0 -150 -78v-610h-369z" />
<glyph unicode="n" horiz-adv-x="1243" d="M102 0v989h369v-112q50 58 135.5 97.5t204.5 39.5q164 0 247 -87t83 -225v-702h-369v547q0 141 -143 141q-56 0 -91.5 -21.5t-66.5 -56.5v-610h-369z" />
<glyph unicode="o" horiz-adv-x="1181" d="M35 496q0 104 38 197.5t107.5 165t175.5 113.5t234 42t235 -42t176.5 -113.5t107.5 -165t38 -197.5t-38 -198t-107.5 -166t-176.5 -114.5t-235 -42.5t-234 42.5t-175.5 114.5t-107.5 166t-38 198zM414 496q0 -86 46.5 -140.5t129.5 -54.5q84 0 131 54.5t47 140.5 q0 85 -47 138.5t-131 53.5q-82 0 -129 -54t-47 -138z" />
<glyph unicode="p" horiz-adv-x="1218" d="M102 -377v1366h369v-104q110 129 279 129q191 0 312.5 -136t121.5 -382q0 -247 -121.5 -384t-312.5 -137q-166 0 -279 129v-481h-369zM471 369q24 -29 69.5 -48.5t82.5 -19.5q77 0 130.5 52.5t53.5 142.5q0 89 -53.5 140.5t-130.5 51.5q-38 0 -82.5 -18.5t-69.5 -48.5 v-252z" />
<glyph unicode="q" horiz-adv-x="1218" d="M35 496q0 246 121.5 382t312.5 136q169 0 279 -129v104h368v-1366h-368v481q-113 -129 -279 -129q-191 0 -312.5 137t-121.5 384zM412 496q0 -90 53.5 -142.5t130.5 -52.5q37 0 82.5 19.5t69.5 48.5v252q-25 30 -69.5 48.5t-82.5 18.5q-77 0 -130.5 -51.5t-53.5 -140.5z " />
<glyph unicode="r" horiz-adv-x="798" d="M102 0v989h369v-108q47 56 134 96.5t169 40.5v-352q-30 10 -84 10q-65 0 -127.5 -18t-91.5 -52v-606h-369z" />
<glyph unicode="s" horiz-adv-x="1003" d="M18 127l148 248q61 -47 168 -86t188 -39q99 0 99 43q0 18 -31 28.5t-80.5 17t-109.5 15t-120 29.5t-109.5 54t-80.5 94t-31 145q0 141 118.5 239.5t324.5 98.5q236 0 428 -127l-135 -240q-50 42 -130 72.5t-161 30.5q-39 0 -65.5 -12.5t-26.5 -30.5q0 -14 24 -23.5 t63.5 -14t90 -14t103 -20.5t103 -36.5t90 -60t63.5 -92t24 -131.5q0 -151 -126.5 -245.5t-342.5 -94.5q-135 0 -270.5 42.5t-215.5 109.5z" />
<glyph unicode="t" horiz-adv-x="782" d="M14 670v319h164v271h369v-271h201v-319h-201v-277q0 -39 23 -65.5t59 -26.5q23 0 44.5 5.5t28.5 12.5l66 -278q-32 -29 -97 -47.5t-153 -18.5q-165 0 -252.5 79t-87.5 233v383h-164z" />
<glyph unicode="u" horiz-adv-x="1241" d="M102 283v706h369v-549q0 -139 143 -139q38 0 70.5 13.5t49 27.5t36.5 37v610h369v-989h-369v111q-51 -57 -136 -96.5t-204 -39.5q-163 0 -245.5 86t-82.5 222z" />
<glyph unicode="v" horiz-adv-x="1095" d="M-31 989h389l189 -565l190 565h389l-383 -989h-391z" />
<glyph unicode="w" horiz-adv-x="1648" d="M-25 989h379l131 -545l174 545h330l172 -545l131 545h381l-287 -989h-401l-162 553l-159 -553h-402z" />
<glyph unicode="x" horiz-adv-x="1067" d="M-25 0l324 508l-303 481h403l133 -231l134 231h403l-303 -481l326 -508h-404l-153 262l-158 -262h-402z" />
<glyph unicode="y" horiz-adv-x="1095" d="M-31 989h389l189 -565l190 565h389l-430 -1112q-32 -83 -78 -138.5t-108 -84.5t-125 -41t-149 -14q-88 0 -144 16l51 328q36 -19 78 -19q112 0 129 39l8 21z" />
<glyph unicode="z" horiz-adv-x="995" d="M68 0v270l348 400h-348v319h852v-258l-357 -412h365v-319h-860z" />
<glyph unicode="{" horiz-adv-x="647" d="M4 403v193q52 0 79.5 36t27.5 95v283q0 172 111 275.5t267 103.5h123v-234h-123q-53 0 -87.5 -38.5t-34.5 -104.5v-326q0 -145 -95 -186q95 -41 95 -187v-323q0 -65 35 -105.5t87 -40.5h123v-233h-123q-156 0 -267 102.5t-111 274.5v284q0 59 -27.5 95t-79.5 36z" />
<glyph unicode="|" horiz-adv-x="454" d="M111 -41v1448h233v-1448h-233z" />
<glyph unicode="}" horiz-adv-x="647" d="M35 -156h123q52 0 87.5 40.5t35.5 105.5v323q0 147 94 187q-94 40 -94 186v326q0 66 -35 104.5t-88 38.5h-123v234h123q156 0 267.5 -103.5t111.5 -275.5v-283q0 -59 27 -95t79 -36v-193q-52 0 -79 -36t-27 -95v-284q0 -87 -31 -159t-84 -119t-121 -73t-143 -26h-123v233 z" />
<glyph unicode="~" horiz-adv-x="1060" d="M51 848q6 82 16.5 148t34 138t57.5 120.5t90.5 80t129.5 31.5q56 0 99 -18.5t67.5 -48t41.5 -65t27 -71t19 -65t21.5 -48t29.5 -18.5q68 0 88 334l238 -29q-5 -68 -13 -123t-22.5 -117.5t-38.5 -109t-57.5 -86t-83 -60t-111.5 -20.5q-56 0 -99 18.5t-67.5 47.5 t-41.5 64.5t-27 71t-19 64.5t-21.5 47.5t-29.5 18.5q-15 0 -27.5 -15t-21 -44t-15 -58.5t-11 -73t-6.5 -72t-5 -69.5z" />
<glyph unicode="&#xa1;" horiz-adv-x="573" d="M68 -377l51 858h332l55 -858h-438zM68 797q0 88 64 152.5t153 64.5t153 -64.5t64 -152.5q0 -89 -64 -154t-153 -65t-153 65t-64 154z" />
<glyph unicode="&#xa2;" horiz-adv-x="1028" d="M35 496q0 199 120.5 335.5t313.5 172.5v153h258v-158q101 -22 174 -69.5t109 -102.5l-238 -223q-25 38 -67.5 61t-98.5 23q-83 0 -138.5 -50.5t-55.5 -141.5t56 -143t138 -52q55 0 97.5 24.5t68.5 61.5l238 -225q-37 -54 -110 -102.5t-173 -69.5v-195h-258v191 q-193 34 -313.5 171.5t-120.5 338.5z" />
<glyph unicode="&#xa3;" horiz-adv-x="1189" d="M53 553v223h78q-45 85 -45 166q0 85 33.5 159t88 125t124.5 88t144 54.5t145 17.5q204 0 334.5 -63.5t203.5 -202.5l-328 -188q-22 62 -63.5 92.5t-93.5 30.5q-60 0 -97.5 -35t-37.5 -86q0 -58 45 -158h274v-223h-223q-3 -48 -33 -98t-72 -76q37 12 88 12q57 0 125 -25.5 t109 -25.5q106 0 156 68l157 -326q-100 -107 -327 -107q-75 0 -148.5 21.5t-131.5 43t-95 21.5q-104 0 -234 -75l-135 270q174 95 174 197q0 45 -20 100h-195z" />
<glyph unicode="&#xa4;" horiz-adv-x="1327" d="M41 274l139 140q-71 121 -71 268q0 151 73 270l-141 142l215 213l154 -156q117 49 254 49t254 -49l155 156l213 -213l-139 -142q74 -126 74 -270q0 -148 -76 -272l141 -136l-213 -213l-158 150q-114 -49 -251 -49q-142 0 -256 51l-152 -152zM475 682q0 -86 50.5 -140.5 t138.5 -54.5q90 0 140 54.5t50 140.5q0 85 -50 138.5t-140 53.5q-88 0 -138.5 -54t-50.5 -138z" />
<glyph unicode="&#xa5;" horiz-adv-x="1359" d="M-37 1366h465l254 -461l250 461h465l-375 -608h291v-215h-424v-109h424v-215h-424v-219h-414v219h-424v215h424v109h-424v215h289z" />
<glyph unicode="&#xa6;" horiz-adv-x="454" d="M111 -41v647h233v-647h-233zM111 760v647h233v-647h-233z" />
<glyph unicode="&#xa7;" horiz-adv-x="1024" d="M25 -2l141 229q63 -56 157.5 -99.5t180.5 -43.5q117 0 117 55q0 25 -24 42t-63.5 26t-90 20.5t-103.5 23t-103.5 36t-90 57t-63.5 88t-24 127.5q0 88 52 152.5t112 95.5q-164 76 -164 266q0 135 127 224t314 89q275 0 428 -133l-133 -215q-55 43 -130.5 71t-146.5 28 q-106 0 -106 -56q0 -24 31 -38.5t80.5 -24t109 -20t119.5 -31.5t109.5 -52.5t80.5 -89.5t31 -137q0 -80 -41 -150.5t-113 -111.5q154 -75 154 -252q0 -157 -132 -248.5t-337 -91.5q-147 0 -269.5 46t-209.5 118zM412 621q0 -89 129 -111q69 30 69 100q0 86 -110 109 q-88 -15 -88 -98z" />
<glyph unicode="&#xa8;" horiz-adv-x="651" d="M-78 1266q0 76 53 129t129 53q77 0 130 -53t53 -129t-53.5 -129.5t-129.5 -53.5t-129 53t-53 130zM365 1266q0 76 53.5 129t128.5 53q77 0 130.5 -53t53.5 -129t-53.5 -129.5t-130.5 -53.5q-75 0 -128.5 53.5t-53.5 129.5z" />
<glyph unicode="&#xa9;" horiz-adv-x="1593" d="M90 684q0 192 95 355t258 257.5t354 94.5q144 0 275 -56t225 -150.5t150 -225.5t56 -275q0 -143 -56 -274t-150 -226t-225 -151t-275 -56q-191 0 -354 95t-258 258t-95 354zM176 684q0 -125 49.5 -240t133 -198.5t198.5 -133t240 -49.5q168 0 311 84t226 227t83 310 q0 168 -83 311t-226 226.5t-311 83.5q-167 0 -310.5 -83.5t-227 -226.5t-83.5 -311zM387 686q0 185 123.5 305.5t302.5 120.5q93 0 172 -37t135 -102l-76 -76q-41 55 -101 87t-130 32q-132 0 -222.5 -93.5t-90.5 -236.5q0 -142 91 -238t222 -96q71 0 132 32.5t102 88.5 l77 -74q-57 -67 -137.5 -105t-173.5 -38q-179 0 -302.5 122.5t-123.5 307.5z" />
<glyph unicode="&#xaa;" horiz-adv-x="802" d="M41 862q0 100 68 152.5t155 52.5q75 0 125 -21t72 -47v50q0 39 -30 63.5t-87 24.5q-96 0 -176 -74l-90 168q63 48 148.5 72t164.5 24q53 0 98 -7.5t89 -27t74.5 -51t49.5 -82.5t19 -117v-374h-260v59q-23 -29 -73 -52.5t-124 -23.5q-86 0 -154.5 55t-68.5 156zM297 862 q0 -53 78 -53q26 0 51 10.5t35 28.5v31q-10 16 -35 26t-51 10q-78 0 -78 -53z" />
<glyph unicode="&#xab;" horiz-adv-x="1259" d="M61 498l328 362h328l-328 -362l328 -369h-328zM543 498l327 362h328l-328 -362l328 -369h-328z" />
<glyph unicode="&#xac;" horiz-adv-x="1079" d="M59 764v215h926v-590h-221v375h-705z" />
<glyph unicode="&#xad;" horiz-adv-x="614" d="M61 342v307h492v-307h-492z" />
<glyph unicode="&#xae;" horiz-adv-x="1011" d="M72 952q0 181 127 307.5t307 126.5q119 0 219 -57.5t157.5 -157.5t57.5 -219q0 -180 -126.5 -307t-307.5 -127q-180 0 -307 127t-127 307zM143 952q0 -150 106.5 -256t256.5 -106t256 106t106 256q0 152 -105.5 257.5t-256.5 105.5t-257 -105.5t-106 -257.5zM338 702v498 h203q66 0 117 -42.5t51 -108.5q0 -72 -46 -110t-81 -38l133 -199h-92l-129 197h-80v-197h-76zM414 965h127q34 0 62 24t28 60q0 39 -27.5 63.5t-62.5 24.5h-127v-172z" />
<glyph unicode="&#xaf;" horiz-adv-x="743" d="M0 1128v199h743v-199h-743z" />
<glyph unicode="&#xb0;" horiz-adv-x="677" d="M35 1081q0 126 88.5 215.5t214.5 89.5t215.5 -89.5t89.5 -215.5t-89.5 -214.5t-215.5 -88.5t-214.5 88.5t-88.5 214.5zM221 1081q0 -49 33.5 -82.5t83.5 -33.5t85.5 33.5t35.5 82.5t-35.5 85t-85.5 36q-49 0 -83 -35.5t-34 -85.5z" />
<glyph unicode="&#xb1;" horiz-adv-x="1044" d="M59 0v215h926v-215h-926zM59 672v215h344v379h238v-379h344v-215h-344v-396h-238v396h-344z" />
<glyph unicode="&#xb2;" horiz-adv-x="833" d="M45 1554q69 72 166.5 106t191.5 34q170 0 268.5 -73t98.5 -196q0 -79 -62.5 -155.5t-232.5 -194.5h303v-213h-692v195q197 136 284 202t108.5 92t21.5 52q0 36 -26.5 57t-76.5 21q-61 0 -122 -31t-95 -68z" />
<glyph unicode="&#xb3;" horiz-adv-x="833" d="M47 975l127 178q48 -46 113 -69t116 -23q56 0 84.5 15t28.5 38q0 19 -9.5 31t-31.5 17.5t-45 7t-63 1.5q-89 0 -101 -2v209q18 -2 99 -2q77 0 107 11.5t30 42.5q0 51 -117 51q-123 0 -209 -80l-119 158q128 135 359 135q175 0 264.5 -62.5t89.5 -165.5q0 -65 -50.5 -117 t-131.5 -65q76 -7 136 -58t60 -132q0 -109 -102.5 -177.5t-267.5 -68.5q-121 0 -215.5 34.5t-151.5 92.5z" />
<glyph unicode="&#xb4;" horiz-adv-x="563" d="M0 1139l246 295h317l-317 -295h-246z" />
<glyph unicode="&#xb5;" horiz-adv-x="1269" d="M102 -377v1366h369v-549q0 -139 143 -139q38 0 70.5 13.5t49 27.5t36.5 37v610h369v-624q0 -31 19.5 -47.5t49.5 -16.5q21 0 39 6l23 -311q-72 -21 -160 -21q-248 0 -319 179q-34 -81 -96 -130t-144 -49q-46 0 -80 17v-369h-369z" />
<glyph unicode="&#xb6;" horiz-adv-x="919" d="M55 1014q0 146 103.5 249t249.5 103h466v-1571h-163v1407h-140v-1407h-163v867q-146 0 -249.5 103t-103.5 249z" />
<glyph unicode="&#xb7;" horiz-adv-x="579" d="M72 500q0 89 64 154t153 65t153 -65t64 -154q0 -88 -64 -152.5t-153 -64.5t-153 64.5t-64 152.5z" />
<glyph unicode="&#xb8;" horiz-adv-x="485" d="M0 -340l63 131q87 -61 170 -61q36 0 61 12t25 37q0 35 -43 35q-32 0 -53 -25l-121 70l62 164h164l-52 -119q30 18 70 18q57 0 98 -42t41 -107q0 -85 -69.5 -134t-171.5 -49q-77 0 -142.5 20t-101.5 50z" />
<glyph unicode="&#xb9;" horiz-adv-x="688" d="M0 1358l334 323h231v-819h-270v477l-143 -141z" />
<glyph unicode="&#xba;" horiz-adv-x="829" d="M41 989q0 67 26 128t73 108t118 74.5t156 27.5q172 0 273 -99t101 -239t-101 -239t-273 -99q-85 0 -156 27.5t-118 74.5t-73 108t-26 128zM309 989q0 -133 105 -133q108 0 108 133q0 129 -108 129q-105 0 -105 -129z" />
<glyph unicode="&#xbb;" horiz-adv-x="1259" d="M61 129l328 369l-328 362h328l328 -362l-328 -369h-328zM543 129l327 369l-327 362h327l328 -362l-328 -369h-327z" />
<glyph unicode="&#xbc;" horiz-adv-x="1837" d="M0 1042l334 324h231v-819h-270v477l-143 -141zM344 0l873 1366h200l-874 -1366h-199zM1042 145v179l293 495h379v-465h96v-209h-96v-145h-268v145h-404zM1307 354h139v242z" />
<glyph unicode="&#xbd;" horiz-adv-x="1898" d="M0 1042l334 324h231v-819h-270v477l-143 -141zM344 0l873 1366h200l-874 -1366h-199zM1110 692q69 72 166 105.5t192 33.5q170 0 268.5 -72.5t98.5 -195.5q0 -79 -62.5 -155.5t-232.5 -194.5h303v-213h-692v195q197 136 284 202t108.5 92t21.5 52q0 36 -26.5 56.5 t-76.5 20.5q-61 0 -122.5 -30.5t-94.5 -67.5z" />
<glyph unicode="&#xbe;" horiz-adv-x="1974" d="M47 659l127 179q48 -47 113 -70t116 -23q56 0 84.5 15.5t28.5 38.5q0 19 -9.5 31t-31.5 17.5t-45 7t-63 1.5q-89 0 -101 -2v209q18 -2 99 -2q77 0 107 11.5t30 41.5q0 51 -117 51q-123 0 -209 -80l-119 158q128 135 359 135q175 0 264.5 -62t89.5 -165q0 -65 -50.5 -117 t-131.5 -65q76 -7 136 -58.5t60 -132.5q0 -109 -102.5 -177.5t-267.5 -68.5q-121 0 -215.5 34.5t-151.5 92.5zM481 0l873 1366h200l-874 -1366h-199zM1180 145v179l293 495h378v-465h97v-209h-97v-145h-268v145h-403zM1444 354h139v242z" />
<glyph unicode="&#xbf;" horiz-adv-x="821" d="M16 -68q0 59 16 108.5t41.5 83t56.5 62.5t62.5 51.5t57 44t41.5 46.5t16 53q0 50 -22 76l323 73q56 -76 56 -194q0 -62 -23.5 -112.5t-57.5 -81t-68 -54t-57.5 -42.5t-23.5 -36q0 -43 80 -43q41 0 91 23.5t87 62.5l230 -264q-86 -92 -207.5 -139t-247.5 -47 q-207 0 -329 88.5t-122 240.5zM236 795q0 89 65 154t154 65t154 -65t65 -154t-65 -154.5t-154 -65.5t-154 65.5t-65 154.5z" />
<glyph unicode="&#xc0;" horiz-adv-x="1454" d="M-37 0l504 1366h520l504 -1366h-469l-49 160h-492l-49 -160h-469zM301 1776h317l246 -295h-246zM592 520h270l-135 441z" />
<glyph unicode="&#xc1;" horiz-adv-x="1454" d="M-37 0l504 1366h520l504 -1366h-469l-49 160h-492l-49 -160h-469zM584 1481l245 295h318l-318 -295h-245zM592 520h270l-135 441z" />
<glyph unicode="&#xc2;" horiz-adv-x="1454" d="M-37 0l504 1366h520l504 -1366h-469l-49 160h-492l-49 -160h-469zM387 1481l180 295h320l186 -295h-215l-131 149l-125 -149h-215zM592 520h270l-135 441z" />
<glyph unicode="&#xc3;" horiz-adv-x="1454" d="M-37 0l504 1366h520l504 -1366h-469l-49 160h-492l-49 -160h-469zM379 1489q0 274 242 274q55 0 99 -22t74.5 -44t51.5 -22t35 19.5t14 56.5h182q0 -274 -241 -274q-43 0 -81 13.5t-59.5 30.5t-44.5 30.5t-41 13.5q-21 0 -35 -19.5t-14 -56.5h-182zM592 520h270l-135 441 z" />
<glyph unicode="&#xc4;" horiz-adv-x="1454" d="M-37 0l504 1366h520l504 -1366h-469l-49 160h-492l-49 -160h-469zM324 1608q0 76 53 129t129 53t129 -53t53 -129q0 -77 -53 -130t-129 -53t-129 53t-53 130zM592 520h270l-135 441zM766 1608q0 76 53.5 129t128.5 53q77 0 131 -53t54 -129t-54 -129.5t-131 -53.5 q-75 0 -128.5 53.5t-53.5 129.5z" />
<glyph unicode="&#xc5;" horiz-adv-x="1454" d="M-37 0l504 1366h520l504 -1366h-469l-49 160h-492l-49 -160h-469zM500 1634q0 94 67.5 162t161.5 68q93 0 159 -68t66 -162t-66 -161.5t-159 -67.5q-94 0 -161.5 67.5t-67.5 161.5zM592 520h270l-135 441zM657 1634q0 -29 21.5 -50t50.5 -21t49.5 21t20.5 50t-20.5 50.5 t-49.5 21.5t-50.5 -21.5t-21.5 -50.5z" />
<glyph unicode="&#xc6;" horiz-adv-x="2025" d="M-51 0l809 1366h1206v-360h-623v-136h609v-360h-609v-150h623v-360h-1036v160h-424l-84 -160h-471zM696 520h232v441z" />
<glyph unicode="&#xc7;" horiz-adv-x="1427" d="M37 682q0 207 98.5 369t269 250t383.5 88q103 0 193.5 -23.5t156 -62t120 -92t90 -107t61.5 -113.5l-356 -166q-27 83 -101.5 141t-163.5 58q-147 0 -239 -98.5t-92 -243.5t92 -243.5t239 -98.5q89 0 163.5 58t101.5 141l356 -164q-25 -56 -57.5 -107t-83 -103 t-111 -90.5t-143.5 -65.5t-178 -32l-27 -65q30 18 70 18q57 0 98 -42t41 -107q0 -85 -69.5 -133.5t-172.5 -48.5q-78 0 -143 19.5t-101 49.5l64 131q87 -61 170 -61q36 0 61 12.5t25 36.5q0 35 -43 35q-32 0 -53 -25l-121 70l43 117q-283 33 -462 223.5t-179 474.5z" />
<glyph unicode="&#xc8;" d="M111 0v1366h1036v-360h-623v-136h609v-360h-609v-150h623v-360h-1036zM197 1776h317l246 -295h-246z" />
<glyph unicode="&#xc9;" d="M111 0v1366h1036v-360h-623v-136h609v-360h-609v-150h623v-360h-1036zM489 1481l246 295h318l-318 -295h-246z" />
<glyph unicode="&#xca;" d="M111 0v1366h1036v-360h-623v-136h609v-360h-609v-150h623v-360h-1036zM287 1481l180 295h319l187 -295h-215l-131 149l-125 -149h-215z" />
<glyph unicode="&#xcb;" d="M111 0v1366h1036v-360h-623v-136h609v-360h-609v-150h623v-360h-1036zM231 1608q0 76 53 129t130 53q76 0 129 -53t53 -129q0 -77 -53 -130t-129 -53t-129.5 53.5t-53.5 129.5zM674 1608q0 76 53.5 129t128.5 53q77 0 130.5 -53t53.5 -129t-53.5 -129.5t-130.5 -53.5 q-75 0 -128.5 53.5t-53.5 129.5z" />
<glyph unicode="&#xcc;" horiz-adv-x="634" d="M-102 1776h317l246 -295h-246zM111 0v1366h413v-1366h-413z" />
<glyph unicode="&#xcd;" horiz-adv-x="634" d="M111 0v1366h413v-1366h-413zM178 1481l246 295h317l-317 -295h-246z" />
<glyph unicode="&#xce;" horiz-adv-x="634" d="M-29 1481l181 295h319l186 -295h-215l-131 149l-125 -149h-215zM111 0v1366h413v-1366h-413z" />
<glyph unicode="&#xcf;" horiz-adv-x="634" d="M-86 1608q0 76 53 129t129 53q77 0 130 -53t53 -129t-53.5 -129.5t-129.5 -53.5t-129 53t-53 130zM111 0v1366h413v-1366h-413zM356 1608q0 76 54 129t129 53q77 0 130.5 -53t53.5 -129t-53.5 -129.5t-130.5 -53.5q-75 0 -129 53.5t-54 129.5z" />
<glyph unicode="&#xd0;" horiz-adv-x="1550" d="M14 520v326h140v520h610q217 0 385 -78.5t266 -234.5t98 -369t-98 -369.5t-265.5 -235.5t-383.5 -79h-612v520h-140zM567 360h197q150 0 240 94.5t90 229.5q0 144 -84 233t-244 89h-199v-160h264v-326h-264v-160z" />
<glyph unicode="&#xd1;" horiz-adv-x="1536" d="M111 0v1366h426l475 -647v647h413v-1366h-397l-504 692v-692h-413zM416 1489q0 274 241 274q43 0 81 -13.5t59.5 -30.5t44.5 -30.5t41 -13.5q21 0 35 19.5t14 56.5h182q0 -274 -242 -274q-43 0 -80.5 13.5t-59 30.5t-44.5 30.5t-41 13.5q-21 0 -35 -19.5t-14 -56.5h-182z " />
<glyph unicode="&#xd2;" horiz-adv-x="1568" d="M37 682q0 155 57.5 287.5t157.5 224t237.5 143.5t294.5 52t295 -52t237.5 -143.5t157.5 -224t58 -287.5t-58 -287.5t-157.5 -224t-237.5 -143.5t-295 -52t-294.5 52t-237.5 143.5t-157.5 224t-57.5 287.5zM362 1776h318l246 -295h-246zM457 682q0 -146 90.5 -244 t236.5 -98t237 98t91 244t-91 244t-237 98t-236.5 -98t-90.5 -244z" />
<glyph unicode="&#xd3;" horiz-adv-x="1568" d="M37 682q0 155 57.5 287.5t157.5 224t237.5 143.5t294.5 52t295 -52t237.5 -143.5t157.5 -224t58 -287.5t-58 -287.5t-157.5 -224t-237.5 -143.5t-295 -52t-294.5 52t-237.5 143.5t-157.5 224t-57.5 287.5zM457 682q0 -146 90.5 -244t236.5 -98t237 98t91 244t-91 244 t-237 98t-236.5 -98t-90.5 -244zM639 1481l246 295h317l-317 -295h-246z" />
<glyph unicode="&#xd4;" horiz-adv-x="1568" d="M37 682q0 155 57.5 287.5t157.5 224t237.5 143.5t294.5 52t295 -52t237.5 -143.5t157.5 -224t58 -287.5t-58 -287.5t-157.5 -224t-237.5 -143.5t-295 -52t-294.5 52t-237.5 143.5t-157.5 224t-57.5 287.5zM449 1481l180 295h319l187 -295h-215l-132 149l-124 -149h-215z M457 682q0 -146 90.5 -244t236.5 -98t237 98t91 244t-91 244t-237 98t-236.5 -98t-90.5 -244z" />
<glyph unicode="&#xd5;" horiz-adv-x="1568" d="M37 682q0 155 57.5 287.5t157.5 224t237.5 143.5t294.5 52t295 -52t237.5 -143.5t157.5 -224t58 -287.5t-58 -287.5t-157.5 -224t-237.5 -143.5t-295 -52t-294.5 52t-237.5 143.5t-157.5 224t-57.5 287.5zM436 1489q0 274 242 274q43 0 80.5 -13.5t59 -30.5t44.5 -30.5 t41 -13.5q21 0 35 19.5t14 56.5h183q0 -274 -242 -274q-55 0 -99 22t-74.5 44t-51.5 22t-35.5 -19.5t-14.5 -56.5h-182zM457 682q0 -146 90.5 -244t236.5 -98t237 98t91 244t-91 244t-237 98t-236.5 -98t-90.5 -244z" />
<glyph unicode="&#xd6;" horiz-adv-x="1568" d="M37 682q0 155 57.5 287.5t157.5 224t237.5 143.5t294.5 52t295 -52t237.5 -143.5t157.5 -224t58 -287.5t-58 -287.5t-157.5 -224t-237.5 -143.5t-295 -52t-294.5 52t-237.5 143.5t-157.5 224t-57.5 287.5zM387 1608q0 76 52.5 129t129.5 53t130 -53t53 -129t-53 -129.5 t-130 -53.5q-76 0 -129 53t-53 130zM457 682q0 -146 90.5 -244t236.5 -98t237 98t91 244t-91 244t-237 98t-236.5 -98t-90.5 -244zM829 1608q0 76 54 129t129 53q77 0 130.5 -53t53.5 -129t-53.5 -129.5t-130.5 -53.5q-75 0 -129 53.5t-54 129.5z" />
<glyph unicode="&#xd7;" horiz-adv-x="1044" d="M96 410l275 274l-275 274l154 152l272 -274l275 274l151 -152l-272 -274l272 -274l-151 -152l-275 274l-272 -274z" />
<glyph unicode="&#xd8;" horiz-adv-x="1568" d="M37 0l178 209q-178 191 -178 473q0 155 57.5 287.5t157.5 224t237.5 143.5t294.5 52q190 0 365 -82l51 59h283l-156 -184q205 -199 205 -500q0 -155 -58 -287.5t-157.5 -224t-237.5 -143.5t-295 -52q-225 0 -401 101l-64 -76h-282zM457 682q0 -86 30 -154l406 478 q-49 18 -109 18q-146 0 -236.5 -98t-90.5 -244zM637 373q71 -33 147 -33q146 0 237 98t91 244q0 106 -51 188z" />
<glyph unicode="&#xd9;" horiz-adv-x="1570" d="M111 561v805h419v-791q0 -103 66.5 -169t189.5 -66q121 0 187.5 66t66.5 169v791h420v-803q0 -129 -41 -235.5t-122.5 -186t-211.5 -123t-299 -43.5t-299.5 43.5t-211.5 123t-122.5 185t-41.5 234.5zM362 1776h318l246 -295h-246z" />
<glyph unicode="&#xda;" horiz-adv-x="1570" d="M111 561v805h419v-791q0 -103 66.5 -169t189.5 -66q121 0 187.5 66t66.5 169v791h420v-803q0 -129 -41 -235.5t-122.5 -186t-211.5 -123t-299 -43.5t-299.5 43.5t-211.5 123t-122.5 185t-41.5 234.5zM645 1481l246 295h317l-317 -295h-246z" />
<glyph unicode="&#xdb;" horiz-adv-x="1570" d="M111 561v805h419v-791q0 -103 66.5 -169t189.5 -66q121 0 187.5 66t66.5 169v791h420v-803q0 -129 -41 -235.5t-122.5 -186t-211.5 -123t-299 -43.5t-299.5 43.5t-211.5 123t-122.5 185t-41.5 234.5zM459 1481l180 295h319l187 -295h-215l-131 149l-125 -149h-215z" />
<glyph unicode="&#xdc;" horiz-adv-x="1570" d="M111 561v805h419v-791q0 -103 66.5 -169t189.5 -66q121 0 187.5 66t66.5 169v791h420v-803q0 -129 -41 -235.5t-122.5 -186t-211.5 -123t-299 -43.5t-299.5 43.5t-211.5 123t-122.5 185t-41.5 234.5zM389 1608q0 76 52.5 129t129.5 53t130 -53t53 -129t-53 -129.5 t-130 -53.5q-76 0 -129 53t-53 130zM831 1608q0 76 54 129t129 53q77 0 130.5 -53t53.5 -129t-53.5 -129.5t-130.5 -53.5q-75 0 -129 53.5t-54 129.5z" />
<glyph unicode="&#xdd;" horiz-adv-x="1359" d="M-37 1366h465l254 -461l250 461h465l-508 -823v-543h-414v543zM539 1481l245 295h318l-318 -295h-245z" />
<glyph unicode="&#xde;" horiz-adv-x="1355" d="M111 0v1366h413v-197h316q154 0 267.5 -65t168.5 -170.5t55 -235.5t-55 -234t-168 -167.5t-268 -63.5h-316v-233h-413zM524 594h252q57 0 96 27.5t39 78.5t-39.5 80t-95.5 29h-252v-215z" />
<glyph unicode="&#xdf;" horiz-adv-x="1409" d="M104 0v924q0 94 36.5 177t104.5 147t173 101t233 37q126 0 235.5 -39t180 -116.5t70.5 -177.5q0 -66 -24 -119.5t-58 -86.5t-68 -59t-58 -48.5t-24 -43.5q0 -12 20.5 -20t54.5 -12t77 -12.5t87.5 -19.5t87.5 -35.5t77 -59t54.5 -91.5t20.5 -131q0 -154 -124.5 -247 t-317.5 -93q-249 0 -424 148l141 252q40 -51 123.5 -88t159.5 -37q42 0 66 12.5t24 30.5t-26.5 29t-68.5 19.5t-93.5 19t-102.5 32.5t-93 55.5t-68.5 93t-26.5 138.5q0 57 21 105.5t51 79.5t60.5 55.5t51.5 43t21 31.5q0 32 -32.5 49t-82.5 17q-77 0 -123.5 -36t-46.5 -101 v-924h-369z" />
<glyph unicode="&#xe0;" horiz-adv-x="1144" d="M35 301q0 71 21.5 127t55.5 90.5t80 57t91 31.5t92 9q98 0 179 -29t120 -79v102q0 54 -48.5 88.5t-136.5 34.5q-69 0 -142 -26t-132 -70l-125 227q94 75 219.5 112.5t247.5 37.5q78 0 145 -11.5t131.5 -40.5t109 -74.5t72 -119.5t27.5 -170v-598h-368v94 q-41 -53 -124 -86t-175 -33q-58 0 -116 20t-109 58t-83 103t-32 145zM135 1434h318l245 -295h-245zM399 295q0 -42 38 -61t91 -19q45 0 86.5 14t59.5 39v56q-18 25 -59.5 39t-86.5 14q-53 0 -91 -20t-38 -62z" />
<glyph unicode="&#xe1;" horiz-adv-x="1144" d="M35 301q0 71 21.5 127t55.5 90.5t80 57t91 31.5t92 9q98 0 179 -29t120 -79v102q0 54 -48.5 88.5t-136.5 34.5q-69 0 -142 -26t-132 -70l-125 227q94 75 219.5 112.5t247.5 37.5q78 0 145 -11.5t131.5 -40.5t109 -74.5t72 -119.5t27.5 -170v-598h-368v94 q-41 -53 -124 -86t-175 -33q-58 0 -116 20t-109 58t-83 103t-32 145zM399 295q0 -42 38 -61t91 -19q45 0 86.5 14t59.5 39v56q-18 25 -59.5 39t-86.5 14q-53 0 -91 -20t-38 -62zM416 1139l246 295h317l-317 -295h-246z" />
<glyph unicode="&#xe2;" horiz-adv-x="1144" d="M35 301q0 71 21.5 127t55.5 90.5t80 57t91 31.5t92 9q98 0 179 -29t120 -79v102q0 54 -48.5 88.5t-136.5 34.5q-69 0 -142 -26t-132 -70l-125 227q94 75 219.5 112.5t247.5 37.5q78 0 145 -11.5t131.5 -40.5t109 -74.5t72 -119.5t27.5 -170v-598h-368v94 q-41 -53 -124 -86t-175 -33q-58 0 -116 20t-109 58t-83 103t-32 145zM227 1139l181 295h319l186 -295h-215l-131 149l-125 -149h-215zM399 295q0 -42 38 -61t91 -19q45 0 86.5 14t59.5 39v56q-18 25 -59.5 39t-86.5 14q-53 0 -91 -20t-38 -62z" />
<glyph unicode="&#xe3;" horiz-adv-x="1144" d="M35 301q0 71 21.5 127t55.5 90.5t80 57t91 31.5t92 9q98 0 179 -29t120 -79v102q0 54 -48.5 88.5t-136.5 34.5q-69 0 -142 -26t-132 -70l-125 227q94 75 219.5 112.5t247.5 37.5q78 0 145 -11.5t131.5 -40.5t109 -74.5t72 -119.5t27.5 -170v-598h-368v94 q-41 -53 -124 -86t-175 -33q-58 0 -116 20t-109 58t-83 103t-32 145zM215 1147q0 274 242 274q55 0 99 -22t74.5 -44t51.5 -22t35 19.5t14 56.5h182q0 -274 -241 -274q-43 0 -81 13.5t-59.5 30.5t-44.5 30.5t-41 13.5q-21 0 -35 -19.5t-14 -56.5h-182zM399 295q0 -42 38 -61 t91 -19q45 0 86.5 14t59.5 39v56q-18 25 -59.5 39t-86.5 14q-53 0 -91 -20t-38 -62z" />
<glyph unicode="&#xe4;" horiz-adv-x="1144" d="M35 301q0 71 21.5 127t55.5 90.5t80 57t91 31.5t92 9q98 0 179 -29t120 -79v102q0 54 -48.5 88.5t-136.5 34.5q-69 0 -142 -26t-132 -70l-125 227q94 75 219.5 112.5t247.5 37.5q78 0 145 -11.5t131.5 -40.5t109 -74.5t72 -119.5t27.5 -170v-598h-368v94 q-41 -53 -124 -86t-175 -33q-58 0 -116 20t-109 58t-83 103t-32 145zM156 1266q0 76 53 129t129 53t129 -53t53 -129q0 -77 -53 -130t-129 -53t-129 53t-53 130zM399 295q0 -42 38 -61t91 -19q45 0 86.5 14t59.5 39v56q-18 25 -59.5 39t-86.5 14q-53 0 -91 -20t-38 -62z M598 1266q0 76 53.5 129t128.5 53q77 0 131 -53t54 -129t-54 -129.5t-131 -53.5q-75 0 -128.5 53.5t-53.5 129.5z" />
<glyph unicode="&#xe5;" horiz-adv-x="1144" d="M35 301q0 71 21.5 127t55.5 90.5t80 57t91 31.5t92 9q98 0 179 -29t120 -79v102q0 54 -48.5 88.5t-136.5 34.5q-69 0 -142 -26t-132 -70l-125 227q94 75 219.5 112.5t247.5 37.5q78 0 145 -11.5t131.5 -40.5t109 -74.5t72 -119.5t27.5 -170v-598h-368v94 q-41 -53 -124 -86t-175 -33q-58 0 -116 20t-109 58t-83 103t-32 145zM338 1292q0 94 67.5 162t161.5 68q93 0 159.5 -68t66.5 -162t-66.5 -161.5t-159.5 -67.5q-94 0 -161.5 67.5t-67.5 161.5zM399 295q0 -42 38 -61t91 -19q45 0 86.5 14t59.5 39v56q-18 25 -59.5 39 t-86.5 14q-53 0 -91 -20t-38 -62zM496 1292q0 -29 21 -50t50 -21t49.5 21t20.5 50t-20.5 50.5t-49.5 21.5t-50 -21.5t-21 -50.5z" />
<glyph unicode="&#xe6;" horiz-adv-x="1742" d="M35 295q0 157 98.5 239t247.5 82q97 0 182.5 -28t128.5 -78v100q0 53 -50 87t-142 34q-71 0 -147.5 -25.5t-137.5 -70.5l-125 229q94 75 219.5 112.5t247.5 37.5q212 0 320 -121q136 121 348 121q101 0 191 -38.5t157 -109t106 -176.5t39 -233v-76h-653q57 -117 213 -117 q55 0 110 19.5t91 50.5l159 -236q-69 -59 -183 -91t-220 -32q-215 0 -358 134q-71 -60 -177.5 -97t-228.5 -37q-125 0 -220.5 32t-155.5 106t-60 182zM399 305q0 -35 36 -52t79 -17q72 0 125 25t53 54v7q-20 25 -63.5 40t-91.5 15q-55 0 -96.5 -19t-41.5 -53zM1061 614h307 q-5 20 -13.5 37.5t-25.5 37.5t-47 32t-70 12q-68 0 -103.5 -36t-47.5 -83z" />
<glyph unicode="&#xe7;" horiz-adv-x="1028" d="M35 496q0 153 73.5 272t199.5 182.5t282 63.5q154 0 262.5 -56t157.5 -131l-238 -223q-25 38 -67.5 61t-98.5 23q-83 0 -138.5 -50.5t-55.5 -141.5t56 -143t138 -52q55 0 97.5 24.5t68.5 61.5l238 -225q-42 -64 -131 -116t-215 -66l-31 -72q30 18 69 18q57 0 98.5 -42.5 t41.5 -106.5q0 -85 -69.5 -134t-172.5 -49q-77 0 -142.5 20t-101.5 50l64 131q87 -61 170 -61q36 0 61 12t25 37q0 35 -43 35q-32 0 -53 -25l-121 70l43 119q-207 25 -337 164t-130 350z" />
<glyph unicode="&#xe8;" horiz-adv-x="1112" d="M35 496q0 107 39.5 202t109.5 165t171 110.5t218 40.5q224 0 369 -151t145 -406v-76h-671q16 -52 72 -88.5t141 -36.5q48 0 120.5 20t106.5 50l152 -228q-70 -60 -187 -91.5t-235 -31.5q-155 0 -279.5 61.5t-198 181t-73.5 278.5zM147 1434h318l246 -295h-246zM412 614 h325q-5 19 -14 37t-26.5 38t-49.5 32t-74 12q-129 0 -161 -119z" />
<glyph unicode="&#xe9;" horiz-adv-x="1112" d="M35 496q0 107 39.5 202t109.5 165t171 110.5t218 40.5q224 0 369 -151t145 -406v-76h-671q16 -52 72 -88.5t141 -36.5q48 0 120.5 20t106.5 50l152 -228q-70 -60 -187 -91.5t-235 -31.5q-155 0 -279.5 61.5t-198 181t-73.5 278.5zM412 614h325q-5 19 -14 37t-26.5 38 t-49.5 32t-74 12q-129 0 -161 -119zM428 1139l246 295h317l-317 -295h-246z" />
<glyph unicode="&#xea;" horiz-adv-x="1112" d="M35 496q0 107 39.5 202t109.5 165t171 110.5t218 40.5q224 0 369 -151t145 -406v-76h-671q16 -52 72 -88.5t141 -36.5q48 0 120.5 20t106.5 50l152 -228q-70 -60 -187 -91.5t-235 -31.5q-155 0 -279.5 61.5t-198 181t-73.5 278.5zM231 1139l181 295h319l187 -295h-216 l-131 149l-125 -149h-215zM412 614h325q-5 19 -14 37t-26.5 38t-49.5 32t-74 12q-129 0 -161 -119z" />
<glyph unicode="&#xeb;" horiz-adv-x="1112" d="M35 496q0 107 39.5 202t109.5 165t171 110.5t218 40.5q224 0 369 -151t145 -406v-76h-671q16 -52 72 -88.5t141 -36.5q48 0 120.5 20t106.5 50l152 -228q-70 -60 -187 -91.5t-235 -31.5q-155 0 -279.5 61.5t-198 181t-73.5 278.5zM172 1266q0 76 53 129t129 53 q77 0 130 -53t53 -129t-53.5 -129.5t-129.5 -53.5t-129 53t-53 130zM412 614h325q-5 19 -14 37t-26.5 38t-49.5 32t-74 12q-129 0 -161 -119zM614 1266q0 76 54 129t129 53q77 0 130.5 -53t53.5 -129t-53.5 -129.5t-130.5 -53.5q-75 0 -129 53.5t-54 129.5z" />
<glyph unicode="&#xec;" horiz-adv-x="573" d="M-133 1434h317l246 -295h-246zM102 0v989h369v-989h-369z" />
<glyph unicode="&#xed;" horiz-adv-x="573" d="M102 0v989h369v-989h-369zM145 1139l246 295h318l-318 -295h-246z" />
<glyph unicode="&#xee;" horiz-adv-x="573" d="M-55 1139l180 295h319l187 -295h-215l-131 149l-125 -149h-215zM102 0v989h369v-989h-369z" />
<glyph unicode="&#xef;" horiz-adv-x="573" d="M-117 1266q0 76 53 129t130 53q76 0 129 -53t53 -129q0 -77 -53 -130t-129 -53t-129.5 53.5t-53.5 129.5zM102 0v989h369v-989h-369zM326 1266q0 76 53.5 129t128.5 53q77 0 130.5 -53t53.5 -129t-53.5 -129.5t-130.5 -53.5q-75 0 -128.5 53.5t-53.5 129.5z" />
<glyph unicode="&#xf0;" horiz-adv-x="1181" d="M35 440q0 204 124 333.5t302 129.5q219 0 332 -196q-44 141 -316 329l-305 -135l-66 160l199 86l-96 57l197 293q136 -81 274 -184l203 88l67 -154l-125 -55q162 -151 242 -313.5t80 -350.5q0 -254 -147.5 -403.5t-409.5 -149.5q-250 0 -402.5 128.5t-152.5 336.5z M414 440q0 -63 46.5 -101t129.5 -38q84 0 131 38t47 101t-47 101.5t-131 38.5q-83 0 -129.5 -38.5t-46.5 -101.5z" />
<glyph unicode="&#xf1;" horiz-adv-x="1243" d="M102 0v989h369v-112q50 58 135.5 97.5t204.5 39.5q164 0 247 -87t83 -225v-702h-369v547q0 141 -143 141q-56 0 -91.5 -21.5t-66.5 -56.5v-610h-369zM274 1147q0 274 242 274q43 0 80.5 -13.5t59 -30.5t44.5 -30.5t41 -13.5q21 0 35.5 19.5t14.5 56.5h182 q0 -274 -242 -274q-55 0 -99 22t-74.5 44t-51.5 22t-35 -19.5t-14 -56.5h-183z" />
<glyph unicode="&#xf2;" horiz-adv-x="1181" d="M35 496q0 104 38 197.5t107.5 165t175.5 113.5t234 42t235 -42t176.5 -113.5t107.5 -165t38 -197.5t-38 -198t-107.5 -166t-176.5 -114.5t-235 -42.5t-234 42.5t-175.5 114.5t-107.5 166t-38 198zM168 1434h317l246 -295h-246zM414 496q0 -86 46.5 -140.5t129.5 -54.5 q84 0 131 54.5t47 140.5q0 85 -47 138.5t-131 53.5q-82 0 -129 -54t-47 -138z" />
<glyph unicode="&#xf3;" horiz-adv-x="1181" d="M35 496q0 104 38 197.5t107.5 165t175.5 113.5t234 42t235 -42t176.5 -113.5t107.5 -165t38 -197.5t-38 -198t-107.5 -166t-176.5 -114.5t-235 -42.5t-234 42.5t-175.5 114.5t-107.5 166t-38 198zM414 496q0 -86 46.5 -140.5t129.5 -54.5q84 0 131 54.5t47 140.5 q0 85 -47 138.5t-131 53.5q-82 0 -129 -54t-47 -138zM446 1139l246 295h318l-318 -295h-246z" />
<glyph unicode="&#xf4;" horiz-adv-x="1181" d="M35 496q0 104 38 197.5t107.5 165t175.5 113.5t234 42t235 -42t176.5 -113.5t107.5 -165t38 -197.5t-38 -198t-107.5 -166t-176.5 -114.5t-235 -42.5t-234 42.5t-175.5 114.5t-107.5 166t-38 198zM250 1139l180 295h320l186 -295h-215l-131 149l-125 -149h-215zM414 496 q0 -86 46.5 -140.5t129.5 -54.5q84 0 131 54.5t47 140.5q0 85 -47 138.5t-131 53.5q-82 0 -129 -54t-47 -138z" />
<glyph unicode="&#xf5;" horiz-adv-x="1181" d="M35 496q0 104 38 197.5t107.5 165t175.5 113.5t234 42t235 -42t176.5 -113.5t107.5 -165t38 -197.5t-38 -198t-107.5 -166t-176.5 -114.5t-235 -42.5t-234 42.5t-175.5 114.5t-107.5 166t-38 198zM242 1147q0 274 241 274q43 0 81 -13.5t59.5 -30.5t44.5 -30.5t41 -13.5 q21 0 35 19.5t14 56.5h182q0 -274 -242 -274q-43 0 -80.5 13.5t-59 30.5t-44.5 30.5t-41 13.5q-21 0 -35 -19.5t-14 -56.5h-182zM414 496q0 -86 46.5 -140.5t129.5 -54.5q84 0 131 54.5t47 140.5q0 85 -47 138.5t-131 53.5q-82 0 -129 -54t-47 -138z" />
<glyph unicode="&#xf6;" horiz-adv-x="1181" d="M35 496q0 104 38 197.5t107.5 165t175.5 113.5t234 42t235 -42t176.5 -113.5t107.5 -165t38 -197.5t-38 -198t-107.5 -166t-176.5 -114.5t-235 -42.5t-234 42.5t-175.5 114.5t-107.5 166t-38 198zM186 1266q0 76 53 129t130 53t129.5 -53t52.5 -129q0 -77 -53 -130 t-129 -53q-77 0 -130 53.5t-53 129.5zM414 496q0 -86 46.5 -140.5t129.5 -54.5q84 0 131 54.5t47 140.5q0 85 -47 138.5t-131 53.5q-82 0 -129 -54t-47 -138zM629 1266q0 76 53.5 129t128.5 53q77 0 130.5 -53t53.5 -129t-53.5 -129.5t-130.5 -53.5q-75 0 -128.5 53.5 t-53.5 129.5z" />
<glyph unicode="&#xf7;" horiz-adv-x="1046" d="M59 584v215h928v-215h-928zM367 348q0 65 45.5 110.5t109.5 45.5t110 -46t46 -110t-45.5 -109.5t-110.5 -45.5q-64 0 -109.5 45.5t-45.5 109.5zM367 1034q0 64 45 109t110 45t110.5 -45t45.5 -109q0 -65 -46 -111t-110 -46t-109.5 46t-45.5 111z" />
<glyph unicode="&#xf8;" horiz-adv-x="1181" d="M35 0l131 145q-131 143 -131 351q0 104 38 197.5t107.5 165t175.5 113.5t234 42q168 0 299 -72l43 47h215l-133 -145q133 -145 133 -348q0 -104 -38 -198t-107.5 -166t-176.5 -114.5t-235 -42.5q-172 0 -301 74l-45 -49h-209zM414 496q0 -41 8 -68l227 252q-24 8 -59 8 q-82 0 -129 -54t-47 -138zM526 311q30 -10 64 -10q84 0 131 54.5t47 140.5q0 34 -10 67z" />
<glyph unicode="&#xf9;" horiz-adv-x="1241" d="M102 283v706h369v-549q0 -139 143 -139q38 0 70.5 13.5t49 27.5t36.5 37v610h369v-989h-369v111q-51 -57 -136 -96.5t-204 -39.5q-163 0 -245.5 86t-82.5 222zM199 1434h317l246 -295h-246z" />
<glyph unicode="&#xfa;" horiz-adv-x="1241" d="M102 283v706h369v-549q0 -139 143 -139q38 0 70.5 13.5t49 27.5t36.5 37v610h369v-989h-369v111q-51 -57 -136 -96.5t-204 -39.5q-163 0 -245.5 86t-82.5 222zM477 1139l246 295h317l-317 -295h-246z" />
<glyph unicode="&#xfb;" horiz-adv-x="1241" d="M102 283v706h369v-549q0 -139 143 -139q38 0 70.5 13.5t49 27.5t36.5 37v610h369v-989h-369v111q-51 -57 -136 -96.5t-204 -39.5q-163 0 -245.5 86t-82.5 222zM283 1139l180 295h319l187 -295h-215l-131 149l-125 -149h-215z" />
<glyph unicode="&#xfc;" horiz-adv-x="1241" d="M102 283v706h369v-549q0 -139 143 -139q38 0 70.5 13.5t49 27.5t36.5 37v610h369v-989h-369v111q-51 -57 -136 -96.5t-204 -39.5q-163 0 -245.5 86t-82.5 222zM221 1266q0 76 52.5 129t129.5 53t130 -53t53 -129t-53 -129.5t-130 -53.5q-76 0 -129 53t-53 130zM664 1266 q0 76 53.5 129t128.5 53q77 0 130.5 -53t53.5 -129t-53.5 -129.5t-130.5 -53.5q-75 0 -128.5 53.5t-53.5 129.5z" />
<glyph unicode="&#xfd;" horiz-adv-x="1095" d="M-31 989h389l189 -565l190 565h389l-430 -1112q-32 -83 -78 -138.5t-108 -84.5t-125 -41t-149 -14q-88 0 -144 16l51 328q36 -19 78 -19q112 0 129 39l8 21zM403 1139l246 295h318l-318 -295h-246z" />
<glyph unicode="&#xfe;" horiz-adv-x="1218" d="M102 -377v1743h369v-481q110 129 279 129q191 0 312.5 -136t121.5 -382q0 -247 -121.5 -384t-312.5 -137q-166 0 -279 129v-481h-369zM471 369q24 -29 69.5 -48.5t82.5 -19.5q77 0 130.5 52.5t53.5 142.5q0 89 -53.5 140.5t-130.5 51.5q-38 0 -82.5 -18.5t-69.5 -48.5 v-252z" />
<glyph unicode="&#xff;" horiz-adv-x="1095" d="M-31 989h389l189 -565l190 565h389l-430 -1112q-32 -83 -78 -138.5t-108 -84.5t-125 -41t-149 -14q-88 0 -144 16l51 328q36 -19 78 -19q112 0 129 39l8 21zM143 1266q0 76 53 129t130 53q76 0 129 -53t53 -129q0 -77 -53 -130t-129 -53t-129.5 53.5t-53.5 129.5z M586 1266q0 76 53.5 129t128.5 53q77 0 130.5 -53t53.5 -129t-53.5 -129.5t-130.5 -53.5q-75 0 -128.5 53.5t-53.5 129.5z" />
<glyph unicode="&#x100;" horiz-adv-x="1454" d="M-37 0l504 1366h520l504 -1366h-469l-49 160h-492l-49 -160h-469zM354 1470v199h744v-199h-744zM592 520h270l-135 441z" />
<glyph unicode="&#x101;" horiz-adv-x="1144" d="M35 301q0 71 21.5 127t55.5 90.5t80 57t91 31.5t92 9q98 0 179 -29t120 -79v102q0 54 -48.5 88.5t-136.5 34.5q-69 0 -142 -26t-132 -70l-125 227q94 75 219.5 112.5t247.5 37.5q78 0 145 -11.5t131.5 -40.5t109 -74.5t72 -119.5t27.5 -170v-598h-368v94 q-41 -53 -124 -86t-175 -33q-58 0 -116 20t-109 58t-83 103t-32 145zM193 1128v199h743v-199h-743zM399 295q0 -42 38 -61t91 -19q45 0 86.5 14t59.5 39v56q-18 25 -59.5 39t-86.5 14q-53 0 -91 -20t-38 -62z" />
<glyph unicode="&#x102;" horiz-adv-x="1454" d="M-37 0l504 1366h520l504 -1366h-469l-49 160h-492l-49 -160h-469zM367 1595l155 127q77 -108 205 -108q129 0 205 108l153 -127q-62 -84 -155.5 -132t-202.5 -48q-107 0 -201.5 48t-158.5 132zM592 520h270l-135 441z" />
<glyph unicode="&#x103;" horiz-adv-x="1144" d="M35 301q0 71 21.5 127t55.5 90.5t80 57t91 31.5t92 9q98 0 179 -29t120 -79v102q0 54 -48.5 88.5t-136.5 34.5q-69 0 -142 -26t-132 -70l-125 227q94 75 219.5 112.5t247.5 37.5q78 0 145 -11.5t131.5 -40.5t109 -74.5t72 -119.5t27.5 -170v-598h-368v94 q-41 -53 -124 -86t-175 -33q-58 0 -116 20t-109 58t-83 103t-32 145zM205 1253l155 127q77 -108 205 -108q129 0 205 108l154 -127q-62 -84 -156 -132t-203 -48q-107 0 -201.5 48t-158.5 132zM399 295q0 -42 38 -61t91 -19q45 0 86.5 14t59.5 39v56q-18 25 -59.5 39 t-86.5 14q-53 0 -91 -20t-38 -62z" />
<glyph unicode="&#x104;" horiz-adv-x="1454" d="M-37 0l504 1366h520l504 -1366q-133 -68 -133 -172q0 -37 18 -53.5t41 -16.5q50 0 72 58l135 -88q-72 -109 -207 -109q-96 0 -160.5 48t-64.5 145q0 108 80 188h-250l-49 160h-492l-49 -160h-469zM592 520h270l-135 441z" />
<glyph unicode="&#x105;" horiz-adv-x="1144" d="M35 301q0 71 21.5 127t55.5 90.5t80 57t91 31.5t92 9q98 0 179 -29t120 -79v102q0 54 -48.5 88.5t-136.5 34.5q-69 0 -142 -26t-132 -70l-125 227q94 75 219.5 112.5t247.5 37.5q78 0 145 -11.5t131.5 -40.5t109 -74.5t72 -119.5t27.5 -170v-598q-133 -68 -133 -172 q0 -37 18.5 -53.5t41.5 -16.5q49 0 71 58l136 -88q-72 -109 -207 -109q-96 0 -161 48.5t-65 144.5q0 108 80 188h-149v94q-41 -53 -124 -86t-175 -33q-58 0 -116 20t-109 58t-83 103t-32 145zM399 295q0 -42 38 -61t91 -19q45 0 86.5 14t59.5 39v56q-18 25 -59.5 39 t-86.5 14q-53 0 -91 -20t-38 -62z" />
<glyph unicode="&#x106;" horiz-adv-x="1427" d="M37 682q0 207 98.5 369t269 250t383.5 88q103 0 193.5 -23.5t156 -62t120 -92t90 -107t61.5 -113.5l-356 -166q-27 83 -101.5 141t-163.5 58q-147 0 -239 -98.5t-92 -243.5t92 -243.5t239 -98.5q89 0 163.5 58t101.5 141l356 -164q-26 -59 -61 -112t-89.5 -107t-120 -93 t-156.5 -63.5t-194 -24.5q-213 0 -384 88.5t-269 250.5t-98 368zM643 1481l246 295h317l-317 -295h-246z" />
<glyph unicode="&#x107;" horiz-adv-x="1028" d="M35 496q0 153 73.5 272t199.5 182.5t282 63.5q154 0 262.5 -56t157.5 -131l-238 -223q-25 38 -67.5 61t-98.5 23q-83 0 -138.5 -50.5t-55.5 -141.5t56 -143t138 -52q55 0 97.5 24.5t68.5 61.5l238 -225q-50 -74 -158.5 -130.5t-261.5 -56.5q-156 0 -282 64t-199.5 183.5 t-73.5 273.5zM451 1139l245 295h318l-318 -295h-245z" />
<glyph unicode="&#x108;" horiz-adv-x="1427" d="M37 682q0 207 98.5 369t269 250t383.5 88q103 0 193.5 -23.5t156 -62t120 -92t90 -107t61.5 -113.5l-356 -166q-27 83 -101.5 141t-163.5 58q-147 0 -239 -98.5t-92 -243.5t92 -243.5t239 -98.5q89 0 163.5 58t101.5 141l356 -164q-26 -59 -61 -112t-89.5 -107t-120 -93 t-156.5 -63.5t-194 -24.5q-213 0 -384 88.5t-269 250.5t-98 368zM442 1481l181 295h319l186 -295h-215l-131 149l-125 -149h-215z" />
<glyph unicode="&#x109;" horiz-adv-x="1028" d="M35 496q0 153 73.5 272t199.5 182.5t282 63.5q154 0 262.5 -56t157.5 -131l-238 -223q-25 38 -67.5 61t-98.5 23q-83 0 -138.5 -50.5t-55.5 -141.5t56 -143t138 -52q55 0 97.5 24.5t68.5 61.5l238 -225q-50 -74 -158.5 -130.5t-261.5 -56.5q-156 0 -282 64t-199.5 183.5 t-73.5 273.5zM268 1139l181 295h319l186 -295h-215l-131 149l-125 -149h-215z" />
<glyph unicode="&#x10a;" horiz-adv-x="1427" d="M37 682q0 207 98.5 369t269 250t383.5 88q103 0 193.5 -23.5t156 -62t120 -92t90 -107t61.5 -113.5l-356 -166q-27 83 -101.5 141t-163.5 58q-147 0 -239 -98.5t-92 -243.5t92 -243.5t239 -98.5q89 0 163.5 58t101.5 141l356 -164q-26 -59 -61 -112t-89.5 -107t-120 -93 t-156.5 -63.5t-194 -24.5q-213 0 -384 88.5t-269 250.5t-98 368zM610 1610q0 75 54 128.5t129 53.5q74 0 127 -53.5t53 -128.5t-53 -129t-127 -54q-75 0 -129 54t-54 129z" />
<glyph unicode="&#x10b;" horiz-adv-x="1028" d="M35 496q0 153 73.5 272t199.5 182.5t282 63.5q154 0 262.5 -56t157.5 -131l-238 -223q-25 38 -67.5 61t-98.5 23q-83 0 -138.5 -50.5t-55.5 -141.5t56 -143t138 -52q55 0 97.5 24.5t68.5 61.5l238 -225q-50 -74 -158.5 -130.5t-261.5 -56.5q-156 0 -282 64t-199.5 183.5 t-73.5 273.5zM406 1268q0 75 53.5 128.5t128.5 53.5q74 0 127 -53.5t53 -128.5t-53 -129t-127 -54q-75 0 -128.5 54t-53.5 129z" />
<glyph unicode="&#x10c;" horiz-adv-x="1427" d="M37 682q0 207 98.5 369t269 250t383.5 88q103 0 193.5 -23.5t156 -62t120 -92t90 -107t61.5 -113.5l-356 -166q-27 83 -101.5 141t-163.5 58q-147 0 -239 -98.5t-92 -243.5t92 -243.5t239 -98.5q89 0 163.5 58t101.5 141l356 -164q-26 -59 -61 -112t-89.5 -107t-120 -93 t-156.5 -63.5t-194 -24.5q-213 0 -384 88.5t-269 250.5t-98 368zM442 1776h215l131 -150l125 150h215l-180 -295h-319z" />
<glyph unicode="&#x10d;" horiz-adv-x="1028" d="M35 496q0 153 73.5 272t199.5 182.5t282 63.5q154 0 262.5 -56t157.5 -131l-238 -223q-25 38 -67.5 61t-98.5 23q-83 0 -138.5 -50.5t-55.5 -141.5t56 -143t138 -52q55 0 97.5 24.5t68.5 61.5l238 -225q-50 -74 -158.5 -130.5t-261.5 -56.5q-156 0 -282 64t-199.5 183.5 t-73.5 273.5zM268 1434h215l131 -150l125 150h215l-180 -295h-319z" />
<glyph unicode="&#x10e;" horiz-adv-x="1507" d="M111 0v1366h610q217 0 385 -78.5t266 -234.5t98 -369t-98 -369.5t-265.5 -235.5t-383.5 -79h-612zM422 1776h215l131 -150l125 150h215l-180 -295h-320zM524 360h197q150 0 240 94.5t90 229.5q0 144 -84 233t-244 89h-199v-646z" />
<glyph unicode="&#x10f;" horiz-adv-x="1507" d="M35 496q0 239 123.5 378.5t312.5 139.5q172 0 279 -129v481h368v-1366h-368v104q-115 -129 -279 -129q-91 0 -169.5 34t-138.5 98.5t-94 164.5t-34 224zM412 496q0 -89 53 -142t131 -53q39 0 84 18.5t70 49.5v254q-25 30 -69.5 47.5t-84.5 17.5q-78 0 -131 -51.5 t-53 -140.5zM1182 1229q0 67 47 114.5t112 47.5q73 0 126 -54t53 -145q0 -99 -51 -186.5t-142 -151.5l-113 90q40 19 83.5 63.5t56.5 86.5q-10 -7 -39 -7q-57 0 -95 39.5t-38 102.5z" />
<glyph unicode="&#x110;" horiz-adv-x="1550" d="M14 520v326h140v520h610q217 0 385 -78.5t266 -234.5t98 -369t-98 -369.5t-265.5 -235.5t-383.5 -79h-612v520h-140zM567 360h197q150 0 240 94.5t90 229.5q0 144 -84 233t-244 89h-199v-160h264v-326h-264v-160z" />
<glyph unicode="&#x111;" horiz-adv-x="1232" d="M35 496q0 239 123.5 378.5t312.5 139.5q172 0 279 -129v182h-275v199h275v100h368v-100h101v-199h-101v-1067h-368v104q-115 -129 -279 -129q-91 0 -169.5 34t-138.5 98.5t-94 164.5t-34 224zM412 496q0 -89 53 -142t131 -53q39 0 84 18.5t70 49.5v254q-25 30 -69.5 47.5 t-84.5 17.5q-78 0 -131 -51.5t-53 -140.5z" />
<glyph unicode="&#x112;" d="M111 0v1366h1036v-360h-623v-136h609v-360h-609v-150h623v-360h-1036zM250 1470v199h743v-199h-743z" />
<glyph unicode="&#x113;" horiz-adv-x="1112" d="M35 496q0 107 39.5 202t109.5 165t171 110.5t218 40.5q224 0 369 -151t145 -406v-76h-671q16 -52 72 -88.5t141 -36.5q48 0 120.5 20t106.5 50l152 -228q-70 -60 -187 -91.5t-235 -31.5q-155 0 -279.5 61.5t-198 181t-73.5 278.5zM188 1128v199h744v-199h-744zM412 614 h325q-5 19 -14 37t-26.5 38t-49.5 32t-74 12q-129 0 -161 -119z" />
<glyph unicode="&#x114;" d="M111 0v1366h1036v-360h-623v-136h609v-360h-609v-150h623v-360h-1036zM260 1595l156 127q77 -108 205 -108t204 108l154 -127q-62 -84 -155.5 -132t-202.5 -48q-108 0 -202.5 48t-158.5 132z" />
<glyph unicode="&#x115;" horiz-adv-x="1112" d="M35 496q0 107 39.5 202t109.5 165t171 110.5t218 40.5q224 0 369 -151t145 -406v-76h-671q16 -52 72 -88.5t141 -36.5q48 0 120.5 20t106.5 50l152 -228q-70 -60 -187 -91.5t-235 -31.5q-155 0 -279.5 61.5t-198 181t-73.5 278.5zM217 1253l156 127q77 -108 205 -108 t204 108l154 -127q-62 -84 -155.5 -132t-202.5 -48q-108 0 -202.5 48t-158.5 132zM412 614h325q-5 19 -14 37t-26.5 38t-49.5 32t-74 12q-129 0 -161 -119z" />
<glyph unicode="&#x116;" d="M111 0v1366h1036v-360h-623v-136h609v-360h-609v-150h623v-360h-1036zM444 1610q0 75 54 128.5t129 53.5q74 0 127 -53.5t53 -128.5t-53 -129t-127 -54q-75 0 -129 54t-54 129z" />
<glyph unicode="&#x117;" horiz-adv-x="1112" d="M35 496q0 107 39.5 202t109.5 165t171 110.5t218 40.5q224 0 369 -151t145 -406v-76h-671q16 -52 72 -88.5t141 -36.5q48 0 120.5 20t106.5 50l152 -228q-70 -60 -187 -91.5t-235 -31.5q-155 0 -279.5 61.5t-198 181t-73.5 278.5zM395 1268q0 75 54 128.5t129 53.5 q74 0 127 -53.5t53 -128.5t-53 -129t-127 -54q-75 0 -129 54t-54 129zM412 614h325q-5 19 -14 37t-26.5 38t-49.5 32t-74 12q-129 0 -161 -119z" />
<glyph unicode="&#x118;" d="M111 0v1366h1036v-360h-623v-136h609v-360h-609v-150h623v-360q-133 -68 -133 -172q0 -37 18 -53.5t41 -16.5q50 0 72 58l135 -88q-72 -109 -207 -109q-96 0 -160.5 48t-64.5 145q0 108 80 188h-817z" />
<glyph unicode="&#x119;" horiz-adv-x="1112" d="M35 496q0 107 39.5 202t109.5 165t171 110.5t218 40.5q224 0 369 -151t145 -406v-76h-671q16 -52 72 -88.5t141 -36.5q48 0 120.5 20t106.5 50l152 -228q-72 -64 -213 -98q-133 -68 -133 -172q0 -37 18 -53.5t41 -16.5q50 0 72 58l135 -88q-72 -109 -207 -109 q-96 0 -160.5 48t-64.5 145q0 91 57 163q-147 6 -264 69t-185.5 180.5t-68.5 271.5zM412 614h325q-5 19 -14 37t-26.5 38t-49.5 32t-74 12q-129 0 -161 -119z" />
<glyph unicode="&#x11a;" d="M111 0v1366h1036v-360h-623v-136h609v-360h-609v-150h623v-360h-1036zM287 1776h215l131 -150l125 150h215l-180 -295h-320z" />
<glyph unicode="&#x11b;" horiz-adv-x="1112" d="M35 496q0 107 39.5 202t109.5 165t171 110.5t218 40.5q224 0 369 -151t145 -406v-76h-671q16 -52 72 -88.5t141 -36.5q48 0 120.5 20t106.5 50l152 -228q-70 -60 -187 -91.5t-235 -31.5q-155 0 -279.5 61.5t-198 181t-73.5 278.5zM225 1434h215l131 -150l125 150h215 l-180 -295h-319zM412 614h325q-5 19 -14 37t-26.5 38t-49.5 32t-74 12q-129 0 -161 -119z" />
<glyph unicode="&#x11c;" horiz-adv-x="1486" d="M37 682q0 160 59 294.5t161 224t239 139t292 49.5q95 0 179.5 -20.5t148.5 -54.5t118 -81t91 -96.5t64 -104.5l-349 -178q-33 70 -99.5 120t-152.5 50q-147 0 -239 -98.5t-92 -243.5t92 -243.5t239 -98.5q58 0 119 18t94 43v50h-253v360h665v-559q-251 -277 -625 -277 q-155 0 -292 50t-239 139.5t-161 223.5t-59 294zM446 1481l181 295h319l187 -295h-215l-132 149l-124 -149h-216z" />
<glyph unicode="&#x11d;" horiz-adv-x="1218" d="M35 520q0 238 121 366t313 128q169 0 279 -129v104h368v-883q0 -123 -39.5 -216.5t-99.5 -147.5t-143 -87.5t-158 -44.5t-158 -11q-264 0 -450 147l155 262q54 -54 132.5 -81t162.5 -27q38 0 73.5 8.5t73 29t60.5 64t23 104.5v54q-116 -133 -279 -133q-91 0 -168.5 30 t-137.5 89t-94 155t-34 219zM283 1139l180 295h319l187 -295h-215l-131 149l-125 -149h-215zM412 520q0 -86 51.5 -127t132.5 -41q38 0 82.5 17.5t69.5 46.5v209q-25 29 -69.5 46t-82.5 17q-81 0 -132.5 -41t-51.5 -127z" />
<glyph unicode="&#x11e;" horiz-adv-x="1486" d="M37 682q0 160 59 294.5t161 224t239 139t292 49.5q95 0 179.5 -20.5t148.5 -54.5t118 -81t91 -96.5t64 -104.5l-349 -178q-33 70 -99.5 120t-152.5 50q-147 0 -239 -98.5t-92 -243.5t92 -243.5t239 -98.5q58 0 119 18t94 43v50h-253v360h665v-559q-251 -277 -625 -277 q-155 0 -292 50t-239 139.5t-161 223.5t-59 294zM428 1595l156 127q77 -108 204 -108q129 0 205 108l154 -127q-62 -84 -156 -132t-203 -48q-107 0 -201.5 48t-158.5 132z" />
<glyph unicode="&#x11f;" horiz-adv-x="1218" d="M35 520q0 238 121 366t313 128q169 0 279 -129v104h368v-883q0 -123 -39.5 -216.5t-99.5 -147.5t-143 -87.5t-158 -44.5t-158 -11q-264 0 -450 147l155 262q54 -54 132.5 -81t162.5 -27q38 0 73.5 8.5t73 29t60.5 64t23 104.5v54q-116 -133 -279 -133q-91 0 -168.5 30 t-137.5 89t-94 155t-34 219zM242 1253l155 127q77 -108 205 -108q129 0 205 108l154 -127q-62 -84 -156 -132t-203 -48q-107 0 -201.5 48t-158.5 132zM412 520q0 -86 51.5 -127t132.5 -41q38 0 82.5 17.5t69.5 46.5v209q-25 29 -69.5 46t-82.5 17q-81 0 -132.5 -41 t-51.5 -127z" />
<glyph unicode="&#x120;" horiz-adv-x="1486" d="M37 682q0 160 59 294.5t161 224t239 139t292 49.5q95 0 179.5 -20.5t148.5 -54.5t118 -81t91 -96.5t64 -104.5l-349 -178q-33 70 -99.5 120t-152.5 50q-147 0 -239 -98.5t-92 -243.5t92 -243.5t239 -98.5q58 0 119 18t94 43v50h-253v360h665v-559q-251 -277 -625 -277 q-155 0 -292 50t-239 139.5t-161 223.5t-59 294zM606 1610q0 75 53.5 128.5t128.5 53.5q74 0 127.5 -53.5t53.5 -128.5t-53.5 -129t-127.5 -54q-75 0 -128.5 54t-53.5 129z" />
<glyph unicode="&#x121;" horiz-adv-x="1218" d="M35 520q0 238 121 366t313 128q169 0 279 -129v104h368v-883q0 -123 -39.5 -216.5t-99.5 -147.5t-143 -87.5t-158 -44.5t-158 -11q-264 0 -450 147l155 262q54 -54 132.5 -81t162.5 -27q38 0 73.5 8.5t73 29t60.5 64t23 104.5v54q-116 -133 -279 -133q-91 0 -168.5 30 t-137.5 89t-94 155t-34 219zM412 520q0 -86 51.5 -127t132.5 -41q38 0 82.5 17.5t69.5 46.5v209q-25 29 -69.5 46t-82.5 17q-81 0 -132.5 -41t-51.5 -127zM446 1268q0 75 54 128.5t129 53.5q74 0 127 -53.5t53 -128.5t-53 -129t-127 -54q-75 0 -129 54t-54 129z" />
<glyph unicode="&#x122;" horiz-adv-x="1486" d="M37 682q0 160 59 294.5t161 224t239 139t292 49.5q95 0 179.5 -20.5t148.5 -54.5t118 -81t91 -96.5t64 -104.5l-349 -178q-33 70 -99.5 120t-152.5 50q-147 0 -239 -98.5t-92 -243.5t92 -243.5t239 -98.5q58 0 119 18t94 43v50h-253v360h665v-559q-251 -277 -625 -277 q-155 0 -292 50t-239 139.5t-161 223.5t-59 294zM629 -248q0 67 47 114.5t112 47.5q73 0 126 -54t53 -145q0 -99 -51 -186.5t-142 -151.5l-112 91q40 19 83 63t56 86q-9 -6 -39 -6q-57 0 -95 39t-38 102z" />
<glyph unicode="&#x123;" horiz-adv-x="1218" d="M35 520q0 238 121 366t313 128q169 0 279 -129v104h368v-883q0 -123 -39.5 -216.5t-99.5 -147.5t-143 -87.5t-158 -44.5t-158 -11q-264 0 -450 147l155 262q54 -54 132.5 -81t162.5 -27q38 0 73.5 8.5t73 29t60.5 64t23 104.5v54q-116 -133 -279 -133q-91 0 -168.5 30 t-137.5 89t-94 155t-34 219zM412 520q0 -86 51.5 -127t132.5 -41q38 0 82.5 17.5t69.5 46.5v209q-25 29 -69.5 46t-82.5 17q-81 0 -132.5 -41t-51.5 -127zM436 1253q0 220 185 349l112 -91q-36 -12 -82.5 -53.5t-54.5 -79.5q2 0 6.5 1t7.5 1q59 0 106.5 -43.5t47.5 -107.5 q0 -67 -48 -115.5t-116 -48.5q-25 0 -51 8.5t-52.5 27.5t-43.5 58.5t-17 93.5z" />
<glyph unicode="&#x124;" horiz-adv-x="1538" d="M111 0v1366h413v-483h490v483h413v-1366h-413v522h-490v-522h-413zM426 1481l180 295h320l186 -295h-215l-131 149l-125 -149h-215z" />
<glyph unicode="&#x125;" horiz-adv-x="1245" d="M104 0v1366h369v-489q50 58 135.5 97.5t204.5 39.5q164 0 247 -85t83 -222v-707h-369v551q0 73 -36.5 105t-106.5 32q-56 0 -91.5 -21.5t-66.5 -56.5v-610h-369zM281 1481l180 295h319l187 -295h-215l-131 149l-125 -149h-215z" />
<glyph unicode="&#x126;" horiz-adv-x="1566" d="M14 1026v199h111v141h414v-141h489v141h414v-141h110v-199h-110v-1026h-414v522h-489v-522h-414v1026h-111zM539 883h489v143h-489v-143z" />
<glyph unicode="&#x127;" horiz-adv-x="1255" d="M14 1067v199h101v100h368v-100h275v-199h-275v-190q50 58 135.5 97.5t204.5 39.5q164 0 247 -85t83 -222v-707h-369v551q0 73 -36.5 105t-106.5 32q-56 0 -91.5 -21.5t-66.5 -56.5v-610h-368v1067h-101z" />
<glyph unicode="&#x128;" horiz-adv-x="634" d="M-29 1489q0 274 242 274q55 0 99 -22t74.5 -44t51.5 -22t35 19.5t14 56.5h183q0 -274 -242 -274q-43 0 -80.5 13.5t-59 30.5t-44.5 30.5t-41 13.5q-21 0 -35 -19.5t-14 -56.5h-183zM111 0v1366h413v-1366h-413z" />
<glyph unicode="&#x129;" horiz-adv-x="573" d="M-59 1147q0 274 241 274q43 0 81 -13.5t59.5 -30.5t44.5 -30.5t41 -13.5q21 0 35 19.5t14 56.5h182q0 -274 -242 -274q-55 0 -99 22t-74.5 44t-51.5 22t-35 -19.5t-14 -56.5h-182zM102 0v989h369v-989h-369z" />
<glyph unicode="&#x12a;" horiz-adv-x="634" d="M-53 1470v199h743v-199h-743zM111 0v1366h413v-1366h-413z" />
<glyph unicode="&#x12b;" horiz-adv-x="573" d="M-84 1128v199h743v-199h-743zM102 0v989h369v-989h-369z" />
<glyph unicode="&#x12c;" horiz-adv-x="634" d="M-33 1595l156 127q77 -108 205 -108t204 108l154 -127q-62 -84 -155.5 -132t-202.5 -48q-108 0 -202.5 48t-158.5 132zM111 0v1366h413v-1366h-413z" />
<glyph unicode="&#x12d;" horiz-adv-x="573" d="M-70 1253l156 127q77 -108 205 -108q129 0 205 108l153 -127q-62 -84 -155.5 -132t-202.5 -48q-108 0 -202.5 48t-158.5 132zM102 0v989h369v-989h-369z" />
<glyph unicode="&#x12e;" horiz-adv-x="634" d="M111 0v1366h413v-1366h2q-133 -68 -133 -172q0 -37 18.5 -53.5t41.5 -16.5q49 0 71 58l135 -88q-72 -109 -206 -109q-96 0 -161 48.5t-65 144.5q0 108 80 188h-196z" />
<glyph unicode="&#x12f;" horiz-adv-x="573" d="M80 1268q0 86 60.5 146.5t146.5 60.5t146.5 -60.5t60.5 -146.5t-60.5 -146.5t-146.5 -60.5t-146.5 60.5t-60.5 146.5zM102 0v989h369v-989q-133 -68 -133 -172q0 -37 18 -53.5t41 -16.5q50 0 72 58l135 -88q-72 -109 -207 -109q-96 0 -160.5 48t-64.5 145q0 108 80 188 h-150z" />
<glyph unicode="&#x130;" horiz-adv-x="634" d="M111 0v1366h413v-1366h-413zM139 1610q0 75 54 128.5t129 53.5q74 0 127 -53.5t53 -128.5t-53 -129t-127 -54q-75 0 -129 54t-54 129z" />
<glyph unicode="&#x131;" horiz-adv-x="573" d="M102 0v989h369v-989h-369z" />
<glyph unicode="&#x132;" horiz-adv-x="1654" d="M111 0v1366h413v-1366h-413zM635 86l168 315q89 -61 176 -61q68 0 109.5 41.5t41.5 112.5v872h414v-879q0 -255 -141 -383.5t-387 -128.5q-238 0 -381 111z" />
<glyph unicode="&#x133;" horiz-adv-x="1146" d="M80 1268q0 86 60.5 146.5t146.5 60.5t146.5 -60.5t60.5 -146.5t-60.5 -146.5t-146.5 -60.5t-146.5 60.5t-60.5 146.5zM102 0v989h369v-989h-369zM356 -334l88 273q31 -23 55.5 -31t67.5 -8q52 0 80.5 36.5t28.5 106.5v946h368v-946q0 -201 -102.5 -322.5t-308.5 -121.5 q-107 0 -160 14t-117 53zM653 1268q0 86 60.5 146.5t146.5 60.5t146.5 -60.5t60.5 -146.5t-60.5 -146.5t-146.5 -60.5t-146.5 60.5t-60.5 146.5z" />
<glyph unicode="&#x134;" horiz-adv-x="1019" d="M0 86l168 315q89 -61 176 -61q68 0 110 41.5t42 112.5v872h413v-879q0 -255 -141 -383.5t-387 -128.5q-238 0 -381 111zM362 1481l181 295h319l187 -295h-215l-132 149l-124 -149h-216z" />
<glyph unicode="&#x135;" horiz-adv-x="573" d="M-217 -334l88 297q31 -23 55.5 -31t67.5 -8q50 0 79 33t29 86v946h369v-946q0 -201 -103 -322.5t-309 -121.5q-107 0 -159.5 14t-116.5 53zM-49 1139l180 295h320l186 -295h-215l-131 149l-125 -149h-215z" />
<glyph unicode="&#x136;" horiz-adv-x="1411" d="M111 0v1366h413v-512l359 512h506l-517 -635l539 -731h-504l-307 481l-76 -102v-379h-413zM543 -248q0 67 47 114.5t112 47.5q73 0 126 -54t53 -145q0 -99 -51 -186.5t-142 -151.5l-113 91q40 19 83.5 63t56.5 86q-9 -6 -39 -6q-57 0 -95 39t-38 102z" />
<glyph unicode="&#x137;" horiz-adv-x="1140" d="M102 0v1366h369v-729l227 352h445l-340 -450l362 -539h-452l-170 319l-72 -96v-223h-369zM408 -248q0 67 47 114.5t112 47.5q73 0 125.5 -54t52.5 -145q0 -100 -50.5 -187t-141.5 -151l-113 91q40 19 83.5 63t56.5 86q-9 -6 -39 -6q-57 0 -95 39t-38 102z" />
<glyph unicode="&#x138;" horiz-adv-x="1140" d="M102 0v989h369v-352l227 352h445l-340 -450l362 -539h-452l-170 319l-72 -96v-223h-369z" />
<glyph unicode="&#x139;" horiz-adv-x="1097" d="M111 0v1366h413v-1006h518v-360h-931zM432 1481l246 295h317l-317 -295h-246z" />
<glyph unicode="&#x13a;" horiz-adv-x="573" d="M102 0v1366h369v-1366h-369zM145 1481l246 295h318l-318 -295h-246z" />
<glyph unicode="&#x13b;" horiz-adv-x="1097" d="M111 0v1366h413v-1006h518v-360h-931zM377 -248q0 67 47.5 114.5t112.5 47.5q73 0 125.5 -54t52.5 -145q0 -99 -51 -186.5t-142 -151.5l-112 91q40 19 83 63t56 86q-9 -6 -39 -6q-57 0 -95 39t-38 102z" />
<glyph unicode="&#x13c;" horiz-adv-x="573" d="M102 0v1366h369v-1366h-369zM125 -248q0 67 47.5 114.5t112.5 47.5q73 0 125.5 -54t52.5 -145q0 -99 -51 -186.5t-142 -151.5l-112 91q40 19 83 63t56 86q-9 -6 -39 -6q-57 0 -95 39t-38 102z" />
<glyph unicode="&#x13d;" horiz-adv-x="1097" d="M111 0v1366h413v-1006h518v-360h-931zM657 1233q0 67 47.5 114.5t112.5 47.5q73 0 125.5 -54t52.5 -145q0 -100 -50.5 -187t-141.5 -151l-113 90q40 19 83 63.5t56 86.5q-9 -6 -38 -6q-57 0 -95.5 39t-38.5 102z" />
<glyph unicode="&#x13e;" horiz-adv-x="856" d="M102 0v1366h369v-1366h-369zM551 1233q0 67 47.5 114.5t112.5 47.5q73 0 125.5 -54t52.5 -145q0 -99 -51 -186.5t-142 -151.5l-112 90q40 19 83 63.5t56 86.5q-9 -6 -39 -6q-57 0 -95 39t-38 102z" />
<glyph unicode="&#x13f;" horiz-adv-x="1226" d="M111 0v1366h413v-1006h518v-360h-931zM719 700q0 90 64 155t153 65t153 -65t64 -155q0 -88 -64 -152.5t-153 -64.5t-153 64.5t-64 152.5z" />
<glyph unicode="&#x140;" horiz-adv-x="946" d="M102 0v1366h369v-1366h-369zM543 500q0 89 64 154t153 65t153 -65t64 -154q0 -88 -64 -152.5t-153 -64.5t-153 64.5t-64 152.5z" />
<glyph unicode="&#x141;" horiz-adv-x="1116" d="M14 334v328l115 65v639h414v-399l114 65v-330l-114 -65v-277h518v-360h-932v399z" />
<glyph unicode="&#x142;" horiz-adv-x="675" d="M14 369v258l140 80v659h368v-446l140 79v-256l-140 -81v-662h-368v449z" />
<glyph unicode="&#x143;" horiz-adv-x="1536" d="M111 0v1366h426l475 -647v647h413v-1366h-397l-504 692v-692h-413zM627 1481l245 295h318l-318 -295h-245z" />
<glyph unicode="&#x144;" horiz-adv-x="1243" d="M102 0v989h369v-112q50 58 135.5 97.5t204.5 39.5q164 0 247 -87t83 -225v-702h-369v547q0 141 -143 141q-56 0 -91.5 -21.5t-66.5 -56.5v-610h-369zM481 1139l246 295h317l-317 -295h-246z" />
<glyph unicode="&#x145;" horiz-adv-x="1536" d="M111 0v1366h426l475 -647v647h413v-1366h-397l-504 692v-692h-413zM604 -248q0 67 47.5 114.5t112.5 47.5q73 0 125.5 -54t52.5 -145q0 -100 -50.5 -187t-141.5 -151l-113 91q40 19 83 63t56 86q-9 -6 -39 -6q-57 0 -95 39t-38 102z" />
<glyph unicode="&#x146;" horiz-adv-x="1243" d="M102 0v989h369v-112q50 58 135.5 97.5t204.5 39.5q164 0 247 -87t83 -225v-702h-369v547q0 141 -143 141q-56 0 -91.5 -21.5t-66.5 -56.5v-610h-369zM459 -248q0 67 47 114.5t112 47.5q73 0 126 -54t53 -145q0 -99 -51 -186.5t-142 -151.5l-112 91q40 19 83 63t56 86 q-9 -6 -39 -6q-57 0 -95 39t-38 102z" />
<glyph unicode="&#x147;" horiz-adv-x="1536" d="M111 0v1366h426l475 -647v647h413v-1366h-397l-504 692v-692h-413zM424 1776h215l131 -150l125 150h215l-180 -295h-320z" />
<glyph unicode="&#x148;" horiz-adv-x="1243" d="M102 0v989h369v-112q50 58 135.5 97.5t204.5 39.5q164 0 247 -87t83 -225v-702h-369v547q0 141 -143 141q-56 0 -91.5 -21.5t-66.5 -56.5v-610h-369zM279 1434h215l131 -150l125 150h215l-181 -295h-319z" />
<glyph unicode="&#x149;" horiz-adv-x="1243" d="M51 1446q0 67 47.5 114.5t112.5 47.5q73 0 125.5 -54t52.5 -145q0 -100 -50.5 -187t-141.5 -151l-113 90q40 19 83 63.5t56 86.5q-9 -6 -39 -6q-57 0 -95 39t-38 102zM102 0v989h369v-112q50 58 135.5 97.5t204.5 39.5q164 0 247 -87t83 -225v-702h-369v547 q0 141 -143 141q-56 0 -91.5 -21.5t-66.5 -56.5v-610h-369z" />
<glyph unicode="&#x14a;" horiz-adv-x="1536" d="M111 0v1366h426l475 -647v647h413v-1255q0 -255 -141 -383.5t-387 -128.5q-239 0 -381 110l168 316q90 -62 176 -62q98 0 137 80l-473 649v-692h-413z" />
<glyph unicode="&#x14b;" horiz-adv-x="1243" d="M102 0v989h369v-112q50 58 135.5 97.5t204.5 39.5q164 0 247 -87t83 -225v-659q0 -201 -103 -322.5t-309 -121.5q-107 0 -159.5 14t-116.5 53l88 297q31 -23 55.5 -31t67.5 -8q50 0 79 33t29 86v504q0 141 -143 141q-56 0 -91.5 -21.5t-66.5 -56.5v-610h-369z" />
<glyph unicode="&#x14c;" horiz-adv-x="1568" d="M37 682q0 155 57.5 287.5t157.5 224t237.5 143.5t294.5 52t295 -52t237.5 -143.5t157.5 -224t58 -287.5t-58 -287.5t-157.5 -224t-237.5 -143.5t-295 -52t-294.5 52t-237.5 143.5t-157.5 224t-57.5 287.5zM412 1470v199h743v-199h-743zM457 682q0 -146 90.5 -244 t236.5 -98t237 98t91 244t-91 244t-237 98t-236.5 -98t-90.5 -244z" />
<glyph unicode="&#x14d;" horiz-adv-x="1181" d="M35 496q0 104 38 197.5t107.5 165t175.5 113.5t234 42t235 -42t176.5 -113.5t107.5 -165t38 -197.5t-38 -198t-107.5 -166t-176.5 -114.5t-235 -42.5t-234 42.5t-175.5 114.5t-107.5 166t-38 198zM219 1128v199h744v-199h-744zM414 496q0 -86 46.5 -140.5t129.5 -54.5 q84 0 131 54.5t47 140.5q0 85 -47 138.5t-131 53.5q-82 0 -129 -54t-47 -138z" />
<glyph unicode="&#x14e;" horiz-adv-x="1568" d="M37 682q0 155 57.5 287.5t157.5 224t237.5 143.5t294.5 52t295 -52t237.5 -143.5t157.5 -224t58 -287.5t-58 -287.5t-157.5 -224t-237.5 -143.5t-295 -52t-294.5 52t-237.5 143.5t-157.5 224t-57.5 287.5zM424 1595l156 127q77 -108 204 -108q129 0 205 108l154 -127 q-62 -84 -156 -132t-203 -48q-107 0 -201.5 48t-158.5 132zM457 682q0 -146 90.5 -244t236.5 -98t237 98t91 244t-91 244t-237 98t-236.5 -98t-90.5 -244z" />
<glyph unicode="&#x14f;" horiz-adv-x="1181" d="M35 496q0 104 38 197.5t107.5 165t175.5 113.5t234 42t235 -42t176.5 -113.5t107.5 -165t38 -197.5t-38 -198t-107.5 -166t-176.5 -114.5t-235 -42.5t-234 42.5t-175.5 114.5t-107.5 166t-38 198zM227 1253l156 127q77 -108 205 -108q129 0 205 108l153 -127 q-62 -84 -155.5 -132t-202.5 -48q-108 0 -202.5 48t-158.5 132zM414 496q0 -86 46.5 -140.5t129.5 -54.5q84 0 131 54.5t47 140.5q0 85 -47 138.5t-131 53.5q-82 0 -129 -54t-47 -138z" />
<glyph unicode="&#x150;" horiz-adv-x="1568" d="M37 682q0 155 57.5 287.5t157.5 224t237.5 143.5t294.5 52t295 -52t237.5 -143.5t157.5 -224t58 -287.5t-58 -287.5t-157.5 -224t-237.5 -143.5t-295 -52t-294.5 52t-237.5 143.5t-157.5 224t-57.5 287.5zM457 682q0 -146 90.5 -244t236.5 -98t237 98t91 244t-91 244 t-237 98t-236.5 -98t-90.5 -244zM506 1481l164 295h276l-235 -295h-205zM825 1481l164 295h277l-236 -295h-205z" />
<glyph unicode="&#x151;" horiz-adv-x="1181" d="M35 496q0 104 38 197.5t107.5 165t175.5 113.5t234 42t235 -42t176.5 -113.5t107.5 -165t38 -197.5t-38 -198t-107.5 -166t-176.5 -114.5t-235 -42.5t-234 42.5t-175.5 114.5t-107.5 166t-38 198zM313 1139l164 295h277l-236 -295h-205zM414 496q0 -86 46.5 -140.5 t129.5 -54.5q84 0 131 54.5t47 140.5q0 85 -47 138.5t-131 53.5q-82 0 -129 -54t-47 -138zM633 1139l164 295h276l-235 -295h-205z" />
<glyph unicode="&#x152;" horiz-adv-x="2174" d="M37 682q0 156 53.5 288.5t147 223t222.5 141.5t277 51q91 0 185 -24t155 -70v74h1037v-360h-623v-136h608v-360h-608v-150h623v-360h-1037v74q-61 -48 -155.5 -73.5t-184.5 -25.5q-198 0 -357 87.5t-251 249.5t-92 370zM457 682q0 -147 93.5 -244.5t250.5 -97.5 q91 0 164 39t112 106v396q-38 66 -111 103.5t-165 37.5q-157 0 -250.5 -96.5t-93.5 -243.5z" />
<glyph unicode="&#x153;" horiz-adv-x="1845" d="M35 496q0 104 38 197.5t107.5 165t175.5 113.5t234 42q115 0 200 -42.5t164 -115.5q150 158 353 158q224 0 369 -151t145 -406v-76h-672q25 -51 80 -89t143 -38q57 0 114.5 19.5t94.5 50.5l160 -226q-70 -60 -187 -91.5t-235 -31.5q-122 0 -205 41t-162 115 q-156 -156 -362 -156q-128 0 -234 42.5t-175.5 114.5t-107.5 166t-38 198zM414 496q0 -95 49.5 -146t126.5 -51q78 0 128 51t50 146q0 93 -49.5 142.5t-128.5 49.5q-77 0 -126.5 -49.5t-49.5 -142.5zM1145 614h325q-5 20 -13.5 38t-26.5 38t-49.5 32.5t-73.5 12.5 q-75 0 -112.5 -36.5t-49.5 -84.5z" />
<glyph unicode="&#x154;" horiz-adv-x="1388" d="M111 0v1366h729q154 0 267.5 -64.5t168.5 -169.5t55 -235q0 -84 -22.5 -155.5t-60.5 -121t-78 -82.5t-85 -55l248 -483h-471l-188 430h-150v-430h-413zM524 791h252q57 0 96 27t39 81q0 52 -39 79.5t-96 27.5h-252v-215zM575 1481l246 295h318l-318 -295h-246z" />
<glyph unicode="&#x155;" horiz-adv-x="798" d="M102 0v989h369v-108q47 56 134 96.5t169 40.5v-352q-30 10 -84 10q-65 0 -127.5 -18t-91.5 -52v-606h-369zM293 1139l246 295h317l-317 -295h-246z" />
<glyph unicode="&#x156;" horiz-adv-x="1388" d="M111 0v1366h729q154 0 267.5 -64.5t168.5 -169.5t55 -235q0 -84 -22.5 -155.5t-60.5 -121t-78 -82.5t-85 -55l248 -483h-471l-188 430h-150v-430h-413zM524 791h252q57 0 96 27t39 81q0 52 -39 79.5t-96 27.5h-252v-215zM539 -248q0 67 47 114.5t112 47.5q73 0 126 -54 t53 -145q0 -99 -51 -186.5t-142 -151.5l-113 91q40 19 83.5 63t56.5 86q-9 -6 -39 -6q-57 0 -95 39t-38 102z" />
<glyph unicode="&#x157;" horiz-adv-x="798" d="M102 0v989h369v-108q47 56 134 96.5t169 40.5v-352q-30 10 -84 10q-65 0 -127.5 -18t-91.5 -52v-606h-369zM236 -248q0 67 47 114.5t112 47.5q73 0 125.5 -54t52.5 -145q0 -100 -50.5 -187t-141.5 -151l-113 91q40 19 83.5 63t56.5 86q-9 -6 -39 -6q-57 0 -95 39t-38 102 z" />
<glyph unicode="&#x158;" horiz-adv-x="1388" d="M111 0v1366h729q154 0 267.5 -64.5t168.5 -169.5t55 -235q0 -84 -22.5 -155.5t-60.5 -121t-78 -82.5t-85 -55l248 -483h-471l-188 430h-150v-430h-413zM358 1776h215l132 -150l124 150h215l-180 -295h-319zM524 791h252q57 0 96 27t39 81q0 52 -39 79.5t-96 27.5h-252 v-215z" />
<glyph unicode="&#x159;" horiz-adv-x="798" d="M94 1434h215l131 -150l125 150h215l-180 -295h-319zM102 0v989h369v-108q47 56 134 96.5t169 40.5v-352q-30 10 -84 10q-65 0 -127.5 -18t-91.5 -52v-606h-369z" />
<glyph unicode="&#x15a;" horiz-adv-x="1255" d="M6 193l215 307q82 -79 196 -127.5t245 -48.5q65 0 108 18t43 55q0 21 -26 35t-70 23.5t-101.5 19t-120.5 23.5t-126 33.5t-120.5 53.5t-101.5 79t-70 114.5t-26 155.5q0 88 36.5 168.5t105.5 144t179 101.5t246 38q347 0 580 -190l-221 -293q-86 65 -193.5 100t-208.5 35 q-104 0 -104 -61q0 -20 26 -35t70 -25t101 -20.5t120 -25t126 -34.5t120 -53t101 -76.5t70 -109.5t26 -147q0 -225 -157 -350.5t-433 -125.5q-394 0 -635 218zM487 1481l246 295h318l-318 -295h-246z" />
<glyph unicode="&#x15b;" horiz-adv-x="1003" d="M18 127l148 248q61 -47 168 -86t188 -39q99 0 99 43q0 18 -31 28.5t-80.5 17t-109.5 15t-120 29.5t-109.5 54t-80.5 94t-31 145q0 141 118.5 239.5t324.5 98.5q236 0 428 -127l-135 -240q-50 42 -130 72.5t-161 30.5q-39 0 -65.5 -12.5t-26.5 -30.5q0 -14 24 -23.5 t63.5 -14t90 -14t103 -20.5t103 -36.5t90 -60t63.5 -92t24 -131.5q0 -151 -126.5 -245.5t-342.5 -94.5q-135 0 -270.5 42.5t-215.5 109.5zM360 1139l246 295h318l-318 -295h-246z" />
<glyph unicode="&#x15c;" horiz-adv-x="1255" d="M6 193l215 307q82 -79 196 -127.5t245 -48.5q65 0 108 18t43 55q0 21 -26 35t-70 23.5t-101.5 19t-120.5 23.5t-126 33.5t-120.5 53.5t-101.5 79t-70 114.5t-26 155.5q0 88 36.5 168.5t105.5 144t179 101.5t246 38q347 0 580 -190l-221 -293q-86 65 -193.5 100t-208.5 35 q-104 0 -104 -61q0 -20 26 -35t70 -25t101 -20.5t120 -25t126 -34.5t120 -53t101 -76.5t70 -109.5t26 -147q0 -225 -157 -350.5t-433 -125.5q-394 0 -635 218zM270 1481l181 295h319l186 -295h-215l-131 149l-125 -149h-215z" />
<glyph unicode="&#x15d;" horiz-adv-x="1003" d="M18 127l148 248q61 -47 168 -86t188 -39q99 0 99 43q0 18 -31 28.5t-80.5 17t-109.5 15t-120 29.5t-109.5 54t-80.5 94t-31 145q0 141 118.5 239.5t324.5 98.5q236 0 428 -127l-135 -240q-50 42 -130 72.5t-161 30.5q-39 0 -65.5 -12.5t-26.5 -30.5q0 -14 24 -23.5 t63.5 -14t90 -14t103 -20.5t103 -36.5t90 -60t63.5 -92t24 -131.5q0 -151 -126.5 -245.5t-342.5 -94.5q-135 0 -270.5 42.5t-215.5 109.5zM160 1139l180 295h319l187 -295h-215l-131 149l-125 -149h-215z" />
<glyph unicode="&#x15e;" horiz-adv-x="1255" d="M6 193l215 307q82 -79 196 -127.5t245 -48.5q65 0 108 18t43 55q0 21 -26 35t-70 23.5t-101.5 19t-120.5 23.5t-126 33.5t-120.5 53.5t-101.5 79t-70 114.5t-26 155.5q0 88 36.5 168.5t105.5 144t179 101.5t246 38q347 0 580 -190l-221 -293q-86 65 -193.5 100t-208.5 35 q-104 0 -104 -61q0 -20 26 -35t70 -25t101 -20.5t120 -25t126 -34.5t120 -53t101 -76.5t70 -109.5t26 -147q0 -219 -148.5 -343.5t-412.5 -132.5l-31 -71q30 18 70 18q57 0 98 -42t41 -107q0 -85 -69.5 -134t-172.5 -49q-77 0 -142.5 20t-101.5 50l64 131q87 -61 170 -61 q36 0 61 12t25 37q0 35 -43 35q-32 0 -53 -25l-121 70l45 125q-303 27 -504 209z" />
<glyph unicode="&#x15f;" horiz-adv-x="1003" d="M18 127l148 248q61 -47 168 -86t188 -39q99 0 99 43q0 18 -31 28.5t-80.5 17t-109.5 15t-120 29.5t-109.5 54t-80.5 94t-31 145q0 141 118.5 239.5t324.5 98.5q236 0 428 -127l-135 -240q-50 42 -130 72.5t-161 30.5q-39 0 -65.5 -12.5t-26.5 -30.5q0 -14 24 -23.5 t63.5 -14t90 -14t103 -20.5t103 -36.5t90 -60t63.5 -92t24 -131.5q0 -138 -109 -230.5t-299 -107.5l-30 -73q30 18 69 18q57 0 98 -42t41 -107q0 -85 -69.5 -134t-171.5 -49q-77 0 -142.5 20t-101.5 50l64 131q87 -61 170 -61q36 0 61 12t25 37q0 35 -43 35q-33 0 -54 -25 l-121 70l46 123q-114 12 -218 51t-170 94z" />
<glyph unicode="&#x160;" horiz-adv-x="1255" d="M6 193l215 307q82 -79 196 -127.5t245 -48.5q65 0 108 18t43 55q0 21 -26 35t-70 23.5t-101.5 19t-120.5 23.5t-126 33.5t-120.5 53.5t-101.5 79t-70 114.5t-26 155.5q0 88 36.5 168.5t105.5 144t179 101.5t246 38q347 0 580 -190l-221 -293q-86 65 -193.5 100t-208.5 35 q-104 0 -104 -61q0 -20 26 -35t70 -25t101 -20.5t120 -25t126 -34.5t120 -53t101 -76.5t70 -109.5t26 -147q0 -225 -157 -350.5t-433 -125.5q-394 0 -635 218zM270 1776h215l131 -150l125 150h215l-180 -295h-319z" />
<glyph unicode="&#x161;" horiz-adv-x="1003" d="M18 127l148 248q61 -47 168 -86t188 -39q99 0 99 43q0 18 -31 28.5t-80.5 17t-109.5 15t-120 29.5t-109.5 54t-80.5 94t-31 145q0 141 118.5 239.5t324.5 98.5q236 0 428 -127l-135 -240q-50 42 -130 72.5t-161 30.5q-39 0 -65.5 -12.5t-26.5 -30.5q0 -14 24 -23.5 t63.5 -14t90 -14t103 -20.5t103 -36.5t90 -60t63.5 -92t24 -131.5q0 -151 -126.5 -245.5t-342.5 -94.5q-135 0 -270.5 42.5t-215.5 109.5zM160 1434h215l131 -150l125 150h215l-180 -295h-320z" />
<glyph unicode="&#x162;" horiz-adv-x="1218" d="M37 1006v360h1145v-360h-365v-1006h-414v1006h-366zM446 -248q0 67 47.5 114.5t112.5 47.5q73 0 125.5 -54t52.5 -145q0 -100 -50.5 -187t-141.5 -151l-113 91q40 19 83 63t56 86q-9 -6 -38 -6q-57 0 -95.5 39t-38.5 102z" />
<glyph unicode="&#x163;" horiz-adv-x="782" d="M14 670v319h164v271h369v-271h201v-319h-201v-277q0 -39 23 -65.5t59 -26.5q23 0 44.5 5.5t28.5 12.5l66 -278q-32 -29 -97 -47.5t-153 -18.5q-165 0 -252.5 79t-87.5 233v383h-164zM227 -248q0 67 47.5 114.5t112.5 47.5q73 0 125.5 -54t52.5 -145q0 -100 -50.5 -187 t-141.5 -151l-113 91q40 19 83 63t56 86q-9 -6 -39 -6q-57 0 -95 39t-38 102z" />
<glyph unicode="&#x164;" horiz-adv-x="1218" d="M37 1006v360h1145v-360h-365v-1006h-414v1006h-366zM266 1776h215l131 -150l125 150h215l-180 -295h-319z" />
<glyph unicode="&#x165;" horiz-adv-x="915" d="M14 670v319h164v271h369v-271h201v-319h-201v-277q0 -39 23 -65.5t59 -26.5q23 0 44.5 5.5t28.5 12.5l66 -278q-32 -29 -97 -47.5t-153 -18.5q-165 0 -252.5 79t-87.5 233v383h-164zM641 1446q0 67 47.5 114.5t112.5 47.5q73 0 125.5 -54t52.5 -145q0 -99 -51 -186.5 t-142 -151.5l-112 90q40 19 83 63.5t56 86.5q-9 -6 -39 -6q-57 0 -95 39t-38 102z" />
<glyph unicode="&#x166;" horiz-adv-x="1218" d="M37 1006v360h1145v-360h-365v-334h242v-199h-242v-473h-414v473h-237v199h237v334h-366z" />
<glyph unicode="&#x167;" horiz-adv-x="782" d="M14 391v199h164v80h-164v319h164v271h369v-271h201v-319h-201v-80h137v-199h-137q0 -39 23 -64.5t59 -25.5q23 0 44.5 5.5t28.5 12.5l66 -278q-32 -29 -97 -47.5t-153 -18.5q-165 0 -252.5 79t-87.5 233v104h-164z" />
<glyph unicode="&#x168;" horiz-adv-x="1570" d="M111 561v805h419v-791q0 -103 66.5 -169t189.5 -66q121 0 187.5 66t66.5 169v791h420v-803q0 -129 -41 -235.5t-122.5 -186t-211.5 -123t-299 -43.5t-299.5 43.5t-211.5 123t-122.5 185t-41.5 234.5zM440 1489q0 274 242 274q43 0 80.5 -13.5t59 -30.5t44.5 -30.5 t41 -13.5q21 0 35 19.5t14 56.5h183q0 -274 -242 -274q-55 0 -99 22t-74.5 44t-51.5 22t-35 -19.5t-14 -56.5h-183z" />
<glyph unicode="&#x169;" horiz-adv-x="1241" d="M102 283v706h369v-549q0 -139 143 -139q38 0 70.5 13.5t49 27.5t36.5 37v610h369v-989h-369v111q-51 -57 -136 -96.5t-204 -39.5q-163 0 -245.5 86t-82.5 222zM272 1147q0 274 242 274q43 0 80.5 -13.5t59 -30.5t44.5 -30.5t41 -13.5q21 0 35 19.5t14 56.5h183 q0 -274 -242 -274q-55 0 -99 22t-74.5 44t-51.5 22t-35 -19.5t-14 -56.5h-183z" />
<glyph unicode="&#x16a;" horiz-adv-x="1570" d="M111 561v805h419v-791q0 -103 66.5 -169t189.5 -66q121 0 187.5 66t66.5 169v791h420v-803q0 -129 -41 -235.5t-122.5 -186t-211.5 -123t-299 -43.5t-299.5 43.5t-211.5 123t-122.5 185t-41.5 234.5zM420 1470v199h743v-199h-743z" />
<glyph unicode="&#x16b;" horiz-adv-x="1241" d="M102 283v706h369v-549q0 -139 143 -139q38 0 70.5 13.5t49 27.5t36.5 37v610h369v-989h-369v111q-51 -57 -136 -96.5t-204 -39.5q-163 0 -245.5 86t-82.5 222zM248 1128v199h743v-199h-743z" />
<glyph unicode="&#x16c;" horiz-adv-x="1570" d="M111 561v805h419v-791q0 -103 66.5 -169t189.5 -66q121 0 187.5 66t66.5 169v791h420v-803q0 -129 -41 -235.5t-122.5 -186t-211.5 -123t-299 -43.5t-299.5 43.5t-211.5 123t-122.5 185t-41.5 234.5zM430 1595l156 127q77 -108 205 -108t204 108l154 -127 q-62 -84 -155.5 -132t-202.5 -48q-108 0 -202.5 48t-158.5 132z" />
<glyph unicode="&#x16d;" horiz-adv-x="1241" d="M102 283v706h369v-549q0 -139 143 -139q38 0 70.5 13.5t49 27.5t36.5 37v610h369v-989h-369v111q-51 -57 -136 -96.5t-204 -39.5q-163 0 -245.5 86t-82.5 222zM266 1253l156 127q77 -108 205 -108t204 108l154 -127q-62 -84 -155.5 -132t-202.5 -48q-108 0 -202.5 48 t-158.5 132z" />
<glyph unicode="&#x16e;" horiz-adv-x="1570" d="M111 561v805h419v-791q0 -103 66.5 -169t189.5 -66q121 0 187.5 66t66.5 169v791h420v-803q0 -129 -41 -235.5t-122.5 -186t-211.5 -123t-299 -43.5t-299.5 43.5t-211.5 123t-122.5 185t-41.5 234.5zM563 1634q0 94 68 162t162 68q93 0 159 -68t66 -162t-66 -161.5 t-159 -67.5q-94 0 -162 67.5t-68 161.5zM721 1634q0 -29 21.5 -50t50.5 -21t49 21t20 50q0 30 -20 51t-49 21t-50.5 -21.5t-21.5 -50.5z" />
<glyph unicode="&#x16f;" horiz-adv-x="1241" d="M102 283v706h369v-549q0 -139 143 -139q38 0 70.5 13.5t49 27.5t36.5 37v610h369v-989h-369v111q-51 -57 -136 -96.5t-204 -39.5q-163 0 -245.5 86t-82.5 222zM393 1292q0 94 68 162t162 68q93 0 159 -68t66 -162t-66 -161.5t-159 -67.5q-94 0 -162 67.5t-68 161.5z M551 1292q0 -29 21.5 -50t50.5 -21t49 21t20 50q0 30 -20 51t-49 21t-50.5 -21.5t-21.5 -50.5z" />
<glyph unicode="&#x170;" horiz-adv-x="1570" d="M111 561v805h419v-791q0 -103 66.5 -169t189.5 -66q121 0 187.5 66t66.5 169v791h420v-803q0 -129 -41 -235.5t-122.5 -186t-211.5 -123t-299 -43.5t-299.5 43.5t-211.5 123t-122.5 185t-41.5 234.5zM514 1481l164 295h276l-235 -295h-205zM834 1481l163 295h277 l-236 -295h-204z" />
<glyph unicode="&#x171;" horiz-adv-x="1241" d="M102 283v706h369v-549q0 -139 143 -139q38 0 70.5 13.5t49 27.5t36.5 37v610h369v-989h-369v111q-51 -57 -136 -96.5t-204 -39.5q-163 0 -245.5 86t-82.5 222zM342 1139l164 295h276l-235 -295h-205zM662 1139l163 295h277l-236 -295h-204z" />
<glyph unicode="&#x172;" horiz-adv-x="1570" d="M111 561v805h419v-791q0 -103 66.5 -169t189.5 -66q121 0 187.5 66t66.5 169v791h420v-803q0 -214 -111.5 -363t-330.5 -200q-133 -68 -133 -172q0 -37 18 -53.5t41 -16.5q50 0 72 58l135 -88q-72 -109 -207 -109q-96 0 -160.5 48t-64.5 145q0 91 57 163 q-167 1 -295.5 45.5t-208.5 123.5t-120.5 184t-40.5 233z" />
<glyph unicode="&#x173;" horiz-adv-x="1241" d="M102 283v706h369v-549q0 -139 143 -139q38 0 70.5 13.5t49 27.5t36.5 37v610h369v-989q-133 -68 -133 -172q0 -37 18 -53.5t41 -16.5q50 0 72 58l135 -88q-72 -109 -207 -109q-96 0 -160.5 48t-64.5 145q0 108 80 188h-150v111q-51 -57 -136 -96.5t-204 -39.5 q-163 0 -245.5 86t-82.5 222z" />
<glyph unicode="&#x174;" horiz-adv-x="1953" d="M-25 1366h463l176 -836l207 836h312l206 -836l174 836h465l-391 -1366h-434l-176 774l-176 -774h-434zM635 1481l180 295h320l186 -295h-215l-131 149l-125 -149h-215z" />
<glyph unicode="&#x175;" horiz-adv-x="1648" d="M-25 989h379l131 -545l174 545h330l172 -545l131 545h381l-287 -989h-401l-162 553l-159 -553h-402zM481 1139l181 295h319l186 -295h-215l-131 149l-125 -149h-215z" />
<glyph unicode="&#x176;" horiz-adv-x="1359" d="M-37 1366h465l254 -461l250 461h465l-508 -823v-543h-414v543zM342 1481l180 295h320l186 -295h-215l-131 149l-125 -149h-215z" />
<glyph unicode="&#x177;" horiz-adv-x="1095" d="M-31 989h389l189 -565l190 565h389l-430 -1112q-32 -83 -78 -138.5t-108 -84.5t-125 -41t-149 -14q-88 0 -144 16l51 328q36 -19 78 -19q112 0 129 39l8 21zM205 1139l180 295h320l186 -295h-215l-131 149l-125 -149h-215z" />
<glyph unicode="&#x178;" horiz-adv-x="1359" d="M-37 1366h465l254 -461l250 461h465l-508 -823v-543h-414v543zM279 1608q0 76 52.5 129t129.5 53t129.5 -53t52.5 -129q0 -77 -53 -130t-129 -53t-129 53t-53 130zM721 1608q0 76 53.5 129t128.5 53q77 0 130.5 -53t53.5 -129t-53.5 -129.5t-130.5 -53.5 q-75 0 -128.5 53.5t-53.5 129.5z" />
<glyph unicode="&#x179;" horiz-adv-x="1228" d="M74 0v328l520 678h-520v360h1067v-326l-523 -680h537v-360h-1081zM369 1481l245 295h318l-318 -295h-245z" />
<glyph unicode="&#x17a;" horiz-adv-x="995" d="M68 0v270l348 400h-348v319h852v-258l-357 -412h365v-319h-860zM356 1139l246 295h318l-318 -295h-246z" />
<glyph unicode="&#x17b;" horiz-adv-x="1228" d="M74 0v328l520 678h-520v360h1067v-326l-523 -680h537v-360h-1081zM416 1610q0 75 53.5 128.5t128.5 53.5q74 0 127 -53.5t53 -128.5t-53 -129t-127 -54q-75 0 -128.5 54t-53.5 129z" />
<glyph unicode="&#x17c;" horiz-adv-x="995" d="M68 0v270l348 400h-348v319h852v-258l-357 -412h365v-319h-860zM311 1268q0 75 54 128.5t129 53.5q74 0 127 -53.5t53 -128.5t-53 -129t-127 -54q-75 0 -129 54t-54 129z" />
<glyph unicode="&#x17d;" horiz-adv-x="1228" d="M74 0v328l520 678h-520v360h1067v-326l-523 -680h537v-360h-1081zM272 1776h215l131 -150l125 150h215l-180 -295h-319z" />
<glyph unicode="&#x17e;" horiz-adv-x="995" d="M68 0v270l348 400h-348v319h852v-258l-357 -412h365v-319h-860zM143 1434h215l131 -150l125 150h215l-180 -295h-319z" />
<glyph unicode="&#x17f;" horiz-adv-x="759" d="M14 670v319h164v45q0 155 106 253.5t271 98.5q92 0 175.5 -26.5t133.5 -79.5l-133 -205q-33 39 -96 39q-33 0 -60.5 -22.5t-27.5 -57.5v-1034h-369v670h-164z" />
<glyph unicode="&#x192;" horiz-adv-x="976" d="M-20 -330l174 787h-82v319h151l58 260q34 153 161.5 251.5t292.5 98.5q194 0 289 -100l-145 -301q-30 41 -88 41q-37 0 -67 -22.5t-40 -63.5l-37 -164h178v-319h-247l-177 -787h-421z" />
<glyph unicode="&#x1a0;" horiz-adv-x="1568" d="M37 682q0 155 57.5 287.5t157.5 224t237.5 143.5t294.5 52q164 0 307.5 -57t245.5 -161q65 50 86 109q-9 -6 -34 -6q-50 0 -83.5 34.5t-33.5 90.5q0 58 41 99.5t98 41.5q65 0 110.5 -47t45.5 -127q0 -83 -40.5 -156.5t-113.5 -128.5q119 -174 119 -399q0 -155 -58 -287.5 t-157.5 -224t-237.5 -143.5t-295 -52t-294.5 52t-237.5 143.5t-157.5 224t-57.5 287.5zM457 682q0 -146 90.5 -244t236.5 -98t237 98t91 244t-91 244t-237 98t-236.5 -98t-90.5 -244z" />
<glyph unicode="&#x1a1;" horiz-adv-x="1181" d="M35 496q0 104 38 197.5t107.5 165t175.5 113.5t234 42q213 0 362 -113q66 51 86 107q-10 -7 -34 -7q-50 0 -83.5 34.5t-33.5 90.5q0 58 41 100t98 42q65 0 110.5 -47t45.5 -127q0 -159 -146 -279q111 -139 111 -319q0 -104 -38 -198t-107.5 -166t-176.5 -114.5 t-235 -42.5t-234 42.5t-175.5 114.5t-107.5 166t-38 198zM414 496q0 -86 46.5 -140.5t129.5 -54.5q84 0 131 54.5t47 140.5q0 85 -47 138.5t-131 53.5q-82 0 -129 -54t-47 -138z" />
<glyph unicode="&#x1af;" horiz-adv-x="1570" d="M111 561v805h419v-791q0 -103 66.5 -169t189.5 -66q121 0 187.5 66t66.5 169v791h420v-61q54 50 70 94q-9 -6 -35 -6q-50 0 -83.5 34.5t-33.5 90.5q0 58 41.5 99.5t98.5 41.5q65 0 110 -47t45 -127q0 -91 -54 -179.5t-159 -144.5v-598q0 -129 -41 -235.5t-122.5 -186 t-211.5 -123t-299 -43.5t-299.5 43.5t-211.5 123t-122.5 185t-41.5 234.5z" />
<glyph unicode="&#x1b0;" horiz-adv-x="1241" d="M102 283v706h369v-549q0 -139 143 -139q38 0 70.5 13.5t49 27.5t36.5 37v610h334q24 27 37 60q-11 -7 -35 -7q-50 0 -83.5 34.5t-33.5 90.5q0 58 41 100t98 42q65 0 110.5 -47t45.5 -127q0 -73 -36.5 -148.5t-108.5 -132.5v-854h-369v111q-51 -57 -136 -96.5t-204 -39.5 q-163 0 -245.5 86t-82.5 222z" />
<glyph unicode="&#x1fc;" horiz-adv-x="2025" d="M-51 0l809 1366h1206v-360h-623v-136h609v-360h-609v-150h623v-360h-1036v160h-424l-84 -160h-471zM696 520h232v441zM993 1481l246 295h317l-317 -295h-246z" />
<glyph unicode="&#x1fd;" horiz-adv-x="1742" d="M35 295q0 157 98.5 239t247.5 82q97 0 182.5 -28t128.5 -78v100q0 53 -50 87t-142 34q-71 0 -147.5 -25.5t-137.5 -70.5l-125 229q94 75 219.5 112.5t247.5 37.5q212 0 320 -121q136 121 348 121q101 0 191 -38.5t157 -109t106 -176.5t39 -233v-76h-653q57 -117 213 -117 q55 0 110 19.5t91 50.5l159 -236q-69 -59 -183 -91t-220 -32q-215 0 -358 134q-71 -60 -177.5 -97t-228.5 -37q-125 0 -220.5 32t-155.5 106t-60 182zM399 305q0 -35 36 -52t79 -17q72 0 125 25t53 54v7q-20 25 -63.5 40t-91.5 15q-55 0 -96.5 -19t-41.5 -53zM723 1139 l246 295h317l-317 -295h-246zM1061 614h307q-5 20 -13.5 37.5t-25.5 37.5t-47 32t-70 12q-68 0 -103.5 -36t-47.5 -83z" />
<glyph unicode="&#x1fe;" horiz-adv-x="1568" d="M37 0l178 209q-178 191 -178 473q0 155 57.5 287.5t157.5 224t237.5 143.5t294.5 52q190 0 365 -82l51 59h283l-156 -184q205 -199 205 -500q0 -155 -58 -287.5t-157.5 -224t-237.5 -143.5t-295 -52q-225 0 -401 101l-64 -76h-282zM457 682q0 -86 30 -154l406 478 q-49 18 -109 18q-146 0 -236.5 -98t-90.5 -244zM637 373q71 -33 147 -33q146 0 237 98t91 244q0 106 -51 188zM639 1481l246 295h317l-317 -295h-246z" />
<glyph unicode="&#x1ff;" horiz-adv-x="1181" d="M35 0l131 145q-131 143 -131 351q0 104 38 197.5t107.5 165t175.5 113.5t234 42q168 0 299 -72l43 47h215l-133 -145q133 -145 133 -348q0 -104 -38 -198t-107.5 -166t-176.5 -114.5t-235 -42.5q-172 0 -301 74l-45 -49h-209zM414 496q0 -41 8 -68l227 252q-24 8 -59 8 q-82 0 -129 -54t-47 -138zM446 1139l246 295h318l-318 -295h-246zM526 311q30 -10 64 -10q84 0 131 54.5t47 140.5q0 34 -10 67z" />
<glyph unicode="&#x218;" horiz-adv-x="1255" d="M6 193l215 307q82 -79 196 -127.5t245 -48.5q65 0 108 18t43 55q0 21 -26 35t-70 23.5t-101.5 19t-120.5 23.5t-126 33.5t-120.5 53.5t-101.5 79t-70 114.5t-26 155.5q0 88 36.5 168.5t105.5 144t179 101.5t246 38q347 0 580 -190l-221 -293q-86 65 -193.5 100t-208.5 35 q-104 0 -104 -61q0 -20 26 -35t70 -25t101 -20.5t120 -25t126 -34.5t120 -53t101 -76.5t70 -109.5t26 -147q0 -225 -157 -350.5t-433 -125.5q-394 0 -635 218zM459 -248q0 67 47 114.5t112 47.5q73 0 126 -54t53 -145q0 -99 -51 -186.5t-142 -151.5l-112 91q40 19 83 63 t56 86q-9 -6 -39 -6q-57 0 -95 39t-38 102z" />
<glyph unicode="&#x219;" horiz-adv-x="1003" d="M18 127l148 248q61 -47 168 -86t188 -39q99 0 99 43q0 18 -31 28.5t-80.5 17t-109.5 15t-120 29.5t-109.5 54t-80.5 94t-31 145q0 141 118.5 239.5t324.5 98.5q236 0 428 -127l-135 -240q-50 42 -130 72.5t-161 30.5q-39 0 -65.5 -12.5t-26.5 -30.5q0 -14 24 -23.5 t63.5 -14t90 -14t103 -20.5t103 -36.5t90 -60t63.5 -92t24 -131.5q0 -151 -126.5 -245.5t-342.5 -94.5q-135 0 -270.5 42.5t-215.5 109.5zM350 -248q0 67 47.5 114.5t112.5 47.5q73 0 125.5 -54t52.5 -145q0 -100 -50.5 -187t-141.5 -151l-113 91q40 19 83 63t56 86 q-9 -6 -39 -6q-57 0 -95 39t-38 102z" />
<glyph unicode="&#x21a;" horiz-adv-x="1218" d="M37 1006v360h1145v-360h-365v-1006h-414v1006h-366zM446 -248q0 67 47.5 114.5t112.5 47.5q73 0 125.5 -54t52.5 -145q0 -100 -50.5 -187t-141.5 -151l-113 91q40 19 83 63t56 86q-9 -6 -38 -6q-57 0 -95.5 39t-38.5 102z" />
<glyph unicode="&#x21b;" horiz-adv-x="782" d="M14 670v319h164v271h369v-271h201v-319h-201v-277q0 -39 23 -65.5t59 -26.5q23 0 44.5 5.5t28.5 12.5l66 -278q-32 -29 -97 -47.5t-153 -18.5q-165 0 -252.5 79t-87.5 233v383h-164zM227 -248q0 67 47.5 114.5t112.5 47.5q73 0 125.5 -54t52.5 -145q0 -100 -50.5 -187 t-141.5 -151l-113 91q40 19 83 63t56 86q-9 -6 -39 -6q-57 0 -95 39t-38 102z" />
<glyph unicode="&#x237;" horiz-adv-x="573" d="M-217 -334l88 297q31 -23 55.5 -31t67.5 -8q50 0 79 33t29 86v946h369v-946q0 -201 -103 -322.5t-309 -121.5q-107 0 -159.5 14t-116.5 53z" />
<glyph unicode="&#x2b0;" horiz-adv-x="868" d="M82 668v888h258v-315q78 86 225 86q111 0 166 -57.5t55 -147.5v-454h-260v356q0 84 -92 84q-51 0 -94 -43v-397h-258z" />
<glyph unicode="&#x2bc;" horiz-adv-x="575" d="M70 1171q0 89 63 152t150 63q98 0 167.5 -71.5t69.5 -192.5q0 -133 -67 -248.5t-189 -201.5l-149 121q52 23 109.5 81.5t76.5 114.5q-20 -8 -53 -8q-75 0 -126.5 53t-51.5 137z" />
<glyph unicode="&#x2c6;" horiz-adv-x="686" d="M0 1139l180 295h320l186 -295h-215l-131 149l-125 -149h-215z" />
<glyph unicode="&#x2c7;" horiz-adv-x="686" d="M0 1434h215l131 -150l125 150h215l-180 -295h-320z" />
<glyph unicode="&#x2c9;" horiz-adv-x="743" d="M0 1210v199h743v-199h-743z" />
<glyph unicode="&#x2cb;" horiz-adv-x="563" d="M0 1434h317l246 -295h-246z" />
<glyph unicode="&#x2d8;" horiz-adv-x="718" d="M0 1253l156 127q77 -108 204 -108q129 0 205 108l154 -127q-62 -84 -156 -132t-203 -48q-107 0 -201.5 48t-158.5 132z" />
<glyph unicode="&#x2d9;" horiz-adv-x="485" d="M61 1268q0 75 54 128.5t129 53.5q74 0 127 -53.5t53 -128.5t-53 -129t-127 -54q-75 0 -129 54t-54 129z" />
<glyph unicode="&#x2da;" horiz-adv-x="454" d="M0 1292q0 94 67.5 162t161.5 68q93 0 159.5 -68t66.5 -162t-66.5 -161.5t-159.5 -67.5q-94 0 -161.5 67.5t-67.5 161.5zM158 1292q0 -29 21 -50t50 -21t49.5 21t20.5 50t-20.5 50.5t-49.5 21.5t-50 -21.5t-21 -50.5z" />
<glyph unicode="&#x2db;" horiz-adv-x="432" d="M0 -188q0 160 182 264l117 -76q-133 -68 -133 -172q0 -37 18 -53.5t41 -16.5q50 0 72 58l135 -88q-72 -109 -207 -109q-96 0 -160.5 48t-64.5 145z" />
<glyph unicode="&#x2dc;" horiz-adv-x="698" d="M0 1147q0 274 242 274q43 0 80.5 -13.5t59 -30.5t44.5 -30.5t41 -13.5q21 0 35 19.5t14 56.5h182q0 -274 -241 -274q-43 0 -81 13.5t-59.5 30.5t-44.5 30.5t-41 13.5q-21 0 -35 -19.5t-14 -56.5h-182z" />
<glyph unicode="&#x2dd;" horiz-adv-x="759" d="M0 1139l164 295h276l-235 -295h-205zM319 1139l164 295h277l-236 -295h-205z" />
<glyph unicode="&#x309;" horiz-adv-x="432" d="M31 1499q21 60 68 89.5t108 29.5q77 0 128.5 -38.5t51.5 -115.5q0 -43 -25 -98h-143q35 38 35 90q0 27 -14.5 39t-32.5 12q-38 0 -57 -47z" />
<glyph unicode="&#x37e;" horiz-adv-x="575" d="M70 201q0 89 63 152t150 63q98 0 167.5 -71.5t69.5 -192.5q0 -133 -67 -249t-189 -202l-149 121q52 23 109.5 81.5t76.5 114.5q-20 -8 -53 -8q-75 0 -126.5 53t-51.5 138zM70 786q0 89 65 153.5t154 64.5t154 -64.5t65 -153.5t-65 -155t-154 -66t-154 66t-65 155z" />
<glyph unicode="&#x384;" horiz-adv-x="516" d="M244 1108l45 459h274l-168 -459h-151z" />
<glyph unicode="&#x385;" horiz-adv-x="1243" d="M98 1266q0 76 53 129t130 53t129.5 -53t52.5 -129q0 -77 -53 -130t-129 -53q-77 0 -130 53.5t-53 129.5zM500 1108l45 459h276l-168 -459h-153zM776 1266q0 76 53.5 129t128.5 53q77 0 131 -53t54 -129t-54 -129.5t-131 -53.5q-75 0 -128.5 53.5t-53.5 129.5z" />
<glyph unicode="&#x386;" horiz-adv-x="1454" d="M-37 0l504 1366h520l504 -1366h-469l-49 160h-492l-49 -160h-469zM152 1108l45 459h274l-168 -459h-151zM592 520h270l-135 441z" />
<glyph unicode="&#x388;" horiz-adv-x="1335" d="M-45 1108l45 459h274l-168 -459h-151zM225 0v1366h1037v-360h-623v-136h608v-360h-608v-150h623v-360h-1037z" />
<glyph unicode="&#x389;" horiz-adv-x="1652" d="M-45 1108l45 459h274l-168 -459h-151zM225 0v1366h414v-483h489v483h414v-1366h-414v522h-489v-522h-414z" />
<glyph unicode="&#x38a;" horiz-adv-x="749" d="M-45 1108l45 459h274l-168 -459h-151zM225 0v1366h414v-1366h-414z" />
<glyph unicode="&#x38c;" horiz-adv-x="1568" d="M-45 1108l45 459h274l-168 -459h-151zM37 682q0 155 57.5 287.5t157.5 224t237.5 143.5t294.5 52t295 -52t237.5 -143.5t157.5 -224t58 -287.5t-58 -287.5t-157.5 -224t-237.5 -143.5t-295 -52t-294.5 52t-237.5 143.5t-157.5 224t-57.5 287.5zM457 682q0 -146 90.5 -244 t236.5 -98t237 98t91 244t-91 244t-237 98t-236.5 -98t-90.5 -244z" />
<glyph unicode="&#x38e;" horiz-adv-x="1587" d="M-45 1108l45 459h274l-168 -459h-151zM190 1366h465l254 -461l250 461h465l-508 -823v-543h-414v543z" />
<glyph unicode="&#x38f;" horiz-adv-x="1597" d="M-45 1108l45 459h274l-168 -459h-151zM66 784q0 188 100 327t267.5 208.5t379.5 69.5q213 0 381 -69.5t267.5 -208.5t99.5 -327q0 -235 -244 -424h209v-360h-611v360q78 23 131 79t74 118.5t21 128.5q0 42 -9 85.5t-33 89.5t-59.5 81t-94.5 57.5t-132 22.5t-132 -22.5 t-94.5 -57.5t-59.5 -81t-33 -89.5t-9 -85.5q0 -66 21 -128.5t74 -118.5t131 -79v-360h-611v360h211q-245 190 -245 424z" />
<glyph unicode="&#x390;" horiz-adv-x="602" d="M-221 1266q0 76 52.5 129t129.5 53t129.5 -53t52.5 -129q0 -77 -53 -130t-129 -53t-129 53t-53 130zM102 287v702h369v-624q0 -31 20 -47.5t50 -16.5q21 0 39 6l22 -311q-72 -21 -160 -21q-165 0 -252.5 79t-87.5 233zM180 1108l45 459h277l-168 -459h-154zM457 1266 q0 76 53.5 129t128.5 53q77 0 130.5 -53t53.5 -129t-53.5 -129.5t-130.5 -53.5q-75 0 -128.5 53.5t-53.5 129.5z" />
<glyph unicode="&#x391;" horiz-adv-x="1454" d="M-37 0l504 1366h520l504 -1366h-469l-49 160h-492l-49 -160h-469zM592 520h270l-135 441z" />
<glyph unicode="&#x392;" horiz-adv-x="1427" d="M111 0v1366h829q102 0 182.5 -31.5t127.5 -83t71.5 -111.5t24.5 -122q0 -124 -65.5 -207t-168.5 -106q112 -18 186 -111t74 -223q0 -73 -25 -138.5t-73 -118t-127 -83.5t-178 -31h-858zM524 344h332q44 0 70 23.5t26 62.5q0 38 -26.5 63t-69.5 25h-332v-174zM524 862h320 q33 0 57.5 23t24.5 59q0 34 -24.5 56t-57.5 22h-320v-160z" />
<glyph unicode="&#x393;" horiz-adv-x="1212" d="M111 0v1366h1036v-360h-623v-1006h-413z" />
<glyph unicode="&#x394;" horiz-adv-x="1454" d="M-37 0l504 1366h520l504 -1366h-1528zM543 360h368l-184 601z" />
<glyph unicode="&#x395;" d="M111 0v1366h1036v-360h-623v-136h609v-360h-609v-150h623v-360h-1036z" />
<glyph unicode="&#x396;" horiz-adv-x="1228" d="M74 0v328l520 678h-520v360h1067v-326l-523 -680h537v-360h-1081z" />
<glyph unicode="&#x397;" horiz-adv-x="1538" d="M111 0v1366h413v-483h490v483h413v-1366h-413v522h-490v-522h-413z" />
<glyph unicode="&#x398;" horiz-adv-x="1568" d="M37 682q0 155 57.5 287.5t157.5 224t237.5 143.5t294.5 52t295 -52t237.5 -143.5t157.5 -224t58 -287.5t-58 -287.5t-157.5 -224t-237.5 -143.5t-295 -52t-294.5 52t-237.5 143.5t-157.5 224t-57.5 287.5zM457 682q0 -146 90.5 -244t236.5 -98t237 98t91 244t-91 244 t-237 98t-236.5 -98t-90.5 -244zM539 510v360h491v-360h-491z" />
<glyph unicode="&#x399;" horiz-adv-x="634" d="M111 0v1366h413v-1366h-413z" />
<glyph unicode="&#x39a;" horiz-adv-x="1374" d="M111 0v1366h413v-512l359 512h506l-517 -635l539 -731h-504l-307 481l-76 -102v-379h-413z" />
<glyph unicode="&#x39b;" horiz-adv-x="1454" d="M-37 0l504 1366h520l504 -1366h-469l-295 961l-295 -961h-469z" />
<glyph unicode="&#x39c;" horiz-adv-x="1843" d="M111 0v1366h571l240 -655l239 655h572v-1366h-414v821l-305 -821h-185l-305 821v-821h-413z" />
<glyph unicode="&#x39d;" horiz-adv-x="1536" d="M111 0v1366h426l475 -647v647h413v-1366h-397l-504 692v-692h-413z" />
<glyph unicode="&#x39e;" horiz-adv-x="1294" d="M74 1006v360h1145v-360h-1145zM76 0v360h1145v-360h-1145zM88 510v360h1118v-360h-1118z" />
<glyph unicode="&#x39f;" horiz-adv-x="1568" d="M37 682q0 155 57.5 287.5t157.5 224t237.5 143.5t294.5 52t295 -52t237.5 -143.5t157.5 -224t58 -287.5t-58 -287.5t-157.5 -224t-237.5 -143.5t-295 -52t-294.5 52t-237.5 143.5t-157.5 224t-57.5 287.5zM457 682q0 -146 90.5 -244t236.5 -98t237 98t91 244t-91 244 t-237 98t-236.5 -98t-90.5 -244z" />
<glyph unicode="&#x3a0;" horiz-adv-x="1538" d="M111 0v1366h1316v-1366h-413v1006h-490v-1006h-413z" />
<glyph unicode="&#x3a1;" horiz-adv-x="1355" d="M111 0v1366h729q154 0 267.5 -64.5t168.5 -169.5t55 -235q0 -129 -55 -233.5t-168.5 -169t-267.5 -64.5h-316v-430h-413zM524 791h262q55 0 90 27t35 79q0 53 -35 81t-90 28h-262v-215z" />
<glyph unicode="&#x3a3;" d="M74 0v360l358 334l-356 314v358h1071v-360h-553l348 -310l-367 -336h572v-360h-1073z" />
<glyph unicode="&#x3a4;" horiz-adv-x="1218" d="M37 1006v360h1145v-360h-365v-1006h-414v1006h-366z" />
<glyph unicode="&#x3a5;" horiz-adv-x="1359" d="M-37 1366h465l254 -461l250 461h465l-508 -823v-543h-414v543z" />
<glyph unicode="&#x3a6;" horiz-adv-x="1851" d="M37 682q0 239 176 374.5t506 166.5v143h414v-143q329 -31 505.5 -166.5t176.5 -374.5t-176.5 -375.5t-505.5 -167.5v-139h-414v139q-330 31 -506 167.5t-176 375.5zM457 682q0 -146 262 -176v352q-133 -17 -197.5 -60t-64.5 -116zM1133 506q262 30 262 176 q0 73 -64.5 116t-197.5 60v-352z" />
<glyph unicode="&#x3a7;" horiz-adv-x="1400" d="M-37 0l457 700l-426 666h485l221 -389l218 389h489l-426 -664l457 -702h-488l-250 418l-249 -418h-488z" />
<glyph unicode="&#x3a8;" horiz-adv-x="1918" d="M111 840v526h419v-512q0 -164 224 -217v729h413v-727q108 25 163.5 80t55.5 135v512h422v-524q0 -231 -162 -384t-479 -192v-266h-413v266q-319 39 -481 192t-162 382z" />
<glyph unicode="&#x3a9;" horiz-adv-x="1568" d="M37 784q0 188 100 327t267.5 208.5t379.5 69.5q213 0 381 -69.5t267.5 -208.5t99.5 -327q0 -235 -244 -424h209v-360h-610v360q78 23 130.5 79t73.5 118.5t21 128.5q0 42 -9 85.5t-33 89.5t-59.5 81t-94.5 57.5t-132 22.5t-131.5 -22.5t-94.5 -57.5t-59.5 -81 t-32.5 -89.5t-9 -85.5q0 -66 21 -128.5t73.5 -118.5t130.5 -79v-360h-610v360h211q-246 191 -246 424z" />
<glyph unicode="&#x3aa;" horiz-adv-x="634" d="M-86 1642q0 77 53 130t129 53t129.5 -53.5t53.5 -129.5t-53 -129t-130 -53q-76 0 -129 53t-53 129zM111 0v1366h413v-1366h-413zM356 1642q0 76 54 129.5t129 53.5q77 0 130.5 -53.5t53.5 -129.5t-53.5 -129t-130.5 -53q-75 0 -129 53t-54 129z" />
<glyph unicode="&#x3ab;" horiz-adv-x="1359" d="M-37 1366h465l254 -461l250 461h465l-508 -823v-543h-414v543zM274 1642q0 76 53 129.5t130 53.5q76 0 129 -53t53 -130q0 -76 -52.5 -129t-129.5 -53t-130 53t-53 129zM717 1642q0 76 53.5 129.5t128.5 53.5q77 0 130.5 -53.5t53.5 -129.5t-53.5 -129t-130.5 -53 q-75 0 -128.5 53t-53.5 129z" />
<glyph unicode="&#x3ac;" horiz-adv-x="1249" d="M35 496q0 239 123.5 378.5t312.5 139.5q170 0 277 -129v104h370v-624q0 -31 20 -47.5t50 -16.5q21 0 39 6l22 -311q-72 -21 -159 -21q-244 0 -316 168q-49 -81 -128.5 -124.5t-174.5 -43.5q-91 0 -169.5 34t-138.5 98.5t-94 164.5t-34 224zM412 496q0 -89 53 -142 t131 -53q39 0 84 18.5t70 49.5v252q-25 30 -69.5 47.5t-84.5 17.5q-79 0 -131.5 -50.5t-52.5 -139.5zM526 1108l45 459h275l-168 -459h-152z" />
<glyph unicode="&#x3ad;" horiz-adv-x="1009" d="M35 279q0 97 83 160.5t185 70.5q-108 19 -179 82.5t-71 142.5q2 130 129.5 204t380.5 73q132 0 245 -45.5t191 -122.5l-174 -207q-109 100 -280 100q-52 0 -81.5 -13.5t-29.5 -35.5q0 -28 21.5 -41.5t93.5 -13.5h184v-271h-184q-133 0 -133 -61q0 -49 121 -49 q74 0 160 24t149 70l164 -215q-73 -70 -197.5 -113t-275.5 -43q-229 1 -366.5 85t-135.5 219zM406 1108l45 459h274l-168 -459h-151z" />
<glyph unicode="&#x3ae;" horiz-adv-x="1243" d="M102 0v989h369v-112q50 58 135.5 97.5t204.5 39.5q164 0 247 -87t83 -225v-1079h-369v924q0 141 -143 141q-56 0 -91.5 -21.5t-66.5 -56.5v-610h-369zM522 1108l45 459h275l-168 -459h-152z" />
<glyph unicode="&#x3af;" horiz-adv-x="602" d="M102 287v702h369v-624q0 -31 20 -47.5t50 -16.5q21 0 39 6l22 -311q-72 -21 -160 -21q-165 0 -252.5 79t-87.5 233zM203 1108l45 459h274l-168 -459h-151z" />
<glyph unicode="&#x3b0;" horiz-adv-x="1212" d="M84 1266q0 76 53 129t129 53q77 0 130 -53t53 -129t-53.5 -129.5t-129.5 -53.5t-129 53t-53 130zM102 459v530h369v-524q0 -71 40.5 -117.5t109.5 -46.5q87 0 132.5 63t45.5 187q0 78 -24.5 168t-67.5 158l342 137q65 -102 97 -226.5t32 -236.5q0 -257 -149 -416.5 t-408 -159.5q-129 0 -229 36t-163 101.5t-95 153t-32 193.5zM485 1108l45 459h277l-168 -459h-154zM762 1266q0 76 53.5 129t128.5 53q77 0 130.5 -53t53.5 -129t-53.5 -129.5t-130.5 -53.5q-75 0 -128.5 53.5t-53.5 129.5z" />
<glyph unicode="&#x3b1;" horiz-adv-x="1249" d="M35 496q0 239 123.5 378.5t312.5 139.5q170 0 277 -129v104h370v-624q0 -31 20 -47.5t50 -16.5q21 0 39 6l22 -311q-72 -21 -159 -21q-244 0 -316 168q-49 -81 -128.5 -124.5t-174.5 -43.5q-91 0 -169.5 34t-138.5 98.5t-94 164.5t-34 224zM412 496q0 -89 53 -142 t131 -53q39 0 84 18.5t70 49.5v252q-25 30 -69.5 47.5t-84.5 17.5q-79 0 -131.5 -50.5t-52.5 -139.5z" />
<glyph unicode="&#x3b2;" d="M102 -377v1280q0 103 34 187t89 138t127.5 90.5t146 52t148.5 15.5q252 0 380 -101.5t128 -276.5q0 -110 -81 -195.5t-210 -107.5q59 -6 114.5 -31.5t103 -69t76 -112.5t28.5 -154q0 -96 -57 -180.5t-148.5 -133.5t-189.5 -49q-107 0 -182.5 29.5t-137.5 99.5v-481h-369z M471 367q72 -66 186 -66q71 0 111.5 32t40.5 81q0 47 -39 77.5t-113 30.5h-90v328h78q68 0 99.5 28.5t31.5 75.5q0 49 -34.5 77t-94.5 28q-82 0 -129 -44.5t-47 -111.5v-536z" />
<glyph unicode="&#x3b3;" horiz-adv-x="1095" d="M-51 989h409q82 -113 149.5 -283t82.5 -294q44 81 80.5 258t36.5 319h368q0 -242 -100.5 -521t-243.5 -458v-387h-369v162q0 341 -115 665.5t-298 538.5z" />
<glyph unicode="&#x3b4;" horiz-adv-x="1181" d="M35 475q0 123 54.5 223.5t135.5 157.5q-78 78 -78 197q0 141 118.5 239.5t324.5 98.5q236 0 428 -127l-135 -263q-50 42 -130 72.5t-161 30.5q-41 0 -66.5 -10t-25.5 -27q0 -11 22 -21.5t59.5 -20.5t86 -23t102.5 -33.5t107.5 -47t102 -68.5t86 -93.5t59.5 -126 t22 -162.5q0 -103 -35 -192.5t-100.5 -157.5t-168.5 -107t-231 -39q-136 0 -247 39t-182 107.5t-109.5 159t-38.5 194.5zM414 489q0 -88 51.5 -138t136.5 -50q90 0 140.5 46t50.5 124q0 40 -14.5 73.5t-36 56.5t-58 44t-68 34t-79.5 30q-58 -38 -90.5 -102.5t-32.5 -117.5z " />
<glyph unicode="&#x3b5;" horiz-adv-x="1009" d="M35 279q0 97 83 160.5t185 70.5q-108 19 -179 82.5t-71 142.5q2 130 129.5 204t380.5 73q132 0 245 -45.5t191 -122.5l-174 -207q-109 100 -280 100q-52 0 -81.5 -13.5t-29.5 -35.5q0 -28 21.5 -41.5t93.5 -13.5h184v-271h-184q-133 0 -133 -61q0 -49 121 -49 q74 0 160 24t149 70l164 -215q-73 -70 -197.5 -113t-275.5 -43q-229 1 -366.5 85t-135.5 219z" />
<glyph unicode="&#x3b6;" horiz-adv-x="987" d="M35 432q0 188 110.5 353t300.5 262h-378v319h852v-258q-87 -44 -175 -113.5t-163 -154t-122.5 -185t-47.5 -192.5q0 -90 47.5 -126t146.5 -36q186 0 266 -63t80 -187q0 -145 -129 -373h-385q39 50 88 143.5t49 135.5q0 18 -18 18q-241 0 -381.5 123t-140.5 334z" />
<glyph unicode="&#x3b7;" horiz-adv-x="1243" d="M102 0v989h369v-112q50 58 135.5 97.5t204.5 39.5q164 0 247 -87t83 -225v-1079h-369v924q0 141 -143 141q-56 0 -91.5 -21.5t-66.5 -56.5v-610h-369z" />
<glyph unicode="&#x3b8;" horiz-adv-x="1181" d="M35 684q0 192 64.5 351t193 257.5t297.5 98.5q128 0 234.5 -57t176.5 -154.5t108 -225t38 -270.5q0 -113 -24 -218.5t-71 -194.5t-113.5 -155t-156 -103.5t-192.5 -37.5q-169 0 -297.5 99.5t-193 259t-64.5 350.5zM422 526q13 -119 54.5 -172t113.5 -53q73 0 114 52.5 t56 172.5h-338zM422 846h338q-15 115 -56.5 167t-113.5 52t-113.5 -52t-54.5 -167z" />
<glyph unicode="&#x3b9;" horiz-adv-x="602" d="M102 287v702h369v-624q0 -31 20 -47.5t50 -16.5q21 0 39 6l22 -311q-72 -21 -160 -21q-165 0 -252.5 79t-87.5 233z" />
<glyph unicode="&#x3ba;" horiz-adv-x="1140" d="M102 0v989h369v-352l227 352h445l-340 -450l362 -539h-452l-170 319l-72 -96v-223h-369z" />
<glyph unicode="&#x3bb;" horiz-adv-x="1095" d="M-31 0l389 1006l-8 20q-17 39 -129 39q-43 0 -78 -18l-51 327q24 7 72 12t72 5q86 -2 149 -14t125 -41.5t108 -85t78 -138.5l430 -1112h-389l-190 565l-189 -565h-389z" />
<glyph unicode="&#x3bc;" horiz-adv-x="1269" d="M102 -377v1366h369v-549q0 -139 143 -139q38 0 70.5 13.5t49 27.5t36.5 37v610h369v-624q0 -31 19.5 -47.5t49.5 -16.5q21 0 39 6l23 -311q-72 -21 -160 -21q-248 0 -319 179q-34 -81 -96 -130t-144 -49q-46 0 -80 17v-369h-369z" />
<glyph unicode="&#x3bd;" horiz-adv-x="1095" d="M-31 989h389l207 -622q69 117 105.5 290.5t36.5 331.5h368q0 -245 -103 -528.5t-249 -460.5h-371z" />
<glyph unicode="&#x3be;" horiz-adv-x="987" d="M35 330q0 212 213 291q-84 14 -137.5 66t-53.5 132q0 73 47.5 135t124.5 93h-147v319h838v-319h-394q-90 -26 -90 -107q0 -45 43 -70.5t127 -25.5h307v-316h-307q-192 0 -192 -118q0 -109 192 -109q186 0 266 -63t80 -187q0 -145 -129 -373h-385q39 50 88 143.5t49 135.5 q0 18 -18 18q-254 0 -388 97.5t-134 257.5z" />
<glyph unicode="&#x3bf;" horiz-adv-x="1181" d="M35 496q0 104 38 197.5t107.5 165t175.5 113.5t234 42t235 -42t176.5 -113.5t107.5 -165t38 -197.5t-38 -198t-107.5 -166t-176.5 -114.5t-235 -42.5t-234 42.5t-175.5 114.5t-107.5 166t-38 198zM414 496q0 -86 46.5 -140.5t129.5 -54.5q84 0 131 54.5t47 140.5 q0 85 -47 138.5t-131 53.5q-82 0 -129 -54t-47 -138z" />
<glyph unicode="&#x3c0;" horiz-adv-x="1394" d="M14 670v319h1366v-319h-163v-670h-369v670h-301v-670h-369v670h-164z" />
<glyph unicode="&#x3c1;" horiz-adv-x="1218" d="M102 -377v873q0 104 37 197.5t104.5 165t171 113.5t228.5 42t228.5 -42t171 -113.5t104.5 -165t37 -197.5q0 -247 -121.5 -384t-312.5 -137q-166 0 -279 129v-481h-369zM471 369q24 -29 69.5 -48.5t82.5 -19.5q77 0 130.5 52.5t53.5 142.5q0 85 -44.5 138.5t-123.5 53.5 t-123.5 -53.5t-44.5 -138.5v-127z" />
<glyph unicode="&#x3c2;" horiz-adv-x="1028" d="M35 496q0 153 73.5 272t199.5 182.5t282 63.5q154 0 262.5 -56t157.5 -131l-238 -223q-25 38 -67.5 61t-98.5 23q-83 0 -138.5 -50.5t-55.5 -141.5t56 -143t138 -52q373 0 373 -250q0 -145 -129 -373h-385q39 50 88 143.5t49 135.5q0 18 -12 18q-156 0 -282 64 t-199.5 183.5t-73.5 273.5z" />
<glyph unicode="&#x3c3;" horiz-adv-x="1181" d="M35 496q0 104 38 193.5t108 156.5t175.5 105t233.5 38h561v-325h-133q98 -91 98 -244q0 -91 -33.5 -171t-97 -141.5t-165.5 -97t-230 -35.5t-234 42.5t-175.5 114.5t-107.5 166t-38 198zM414 496q0 -86 46.5 -140.5t129.5 -54.5q84 0 131 54.5t47 140.5q0 103 -80 168 h-98q-81 0 -128.5 -49t-47.5 -119z" />
<glyph unicode="&#x3c4;" horiz-adv-x="1013" d="M31 670v319h952v-319h-291v-277q0 -39 23 -65.5t59 -26.5q23 0 45.5 6t28.5 12l65 -278q-74 -66 -249 -66q-165 0 -252.5 79t-87.5 233v383h-293z" />
<glyph unicode="&#x3c5;" horiz-adv-x="1212" d="M102 459v530h369v-524q0 -71 40.5 -117.5t109.5 -46.5q87 0 132.5 63t45.5 187q0 78 -24.5 168t-67.5 158l342 137q65 -102 97 -226.5t32 -236.5q0 -257 -149 -416.5t-408 -159.5q-129 0 -229 36t-163 101.5t-95 153t-32 193.5z" />
<glyph unicode="&#x3c6;" horiz-adv-x="1732" d="M35 526q0 331 395 488l152 -287q-83 -29 -125.5 -85.5t-42.5 -115.5q0 -96 64 -148t204 -69v705h182q415 0 624.5 -132.5t209.5 -385.5q0 -223 -163 -353.5t-484 -158.5v-361h-369v361q-647 55 -647 542zM1051 309q139 17 203.5 63t64.5 124q0 60 -40 101t-96.5 58.5 t-131.5 22.5v-369z" />
<glyph unicode="&#x3c7;" horiz-adv-x="1067" d="M-25 -377l324 703l-303 663h403l133 -319l134 319h403l-303 -663l326 -703h-404l-153 361l-158 -361h-402z" />
<glyph unicode="&#x3c8;" horiz-adv-x="1732" d="M102 526v463h369v-461q0 -162 211 -209v1047h369v-1047q100 23 155.5 75t55.5 134v461h368v-463q0 -225 -145.5 -366t-433.5 -174v-363h-369v363q-290 33 -435 174t-145 366z" />
<glyph unicode="&#x3c9;" horiz-adv-x="1837" d="M35 496q0 306 227 518l283 -203q-131 -151 -131 -315q0 -86 42 -140.5t115 -54.5q76 0 119 54.5t43 140.5v247h369v-247q0 -86 43 -140.5t119 -54.5q73 0 115 54.5t42 140.5q0 164 -131 315l283 203q227 -212 227 -518q0 -140 -56 -257t-168 -190.5t-259 -73.5 q-145 0 -241.5 64.5t-157.5 196.5q-61 -131 -158 -196t-242 -65q-147 0 -259 73.5t-168 190.5t-56 257z" />
<glyph unicode="&#x3ca;" horiz-adv-x="602" d="M-102 1266q0 76 53 129t129 53t129 -53t53 -129q0 -77 -53 -130t-129 -53t-129 53t-53 130zM102 287v702h369v-624q0 -31 20 -47.5t50 -16.5q21 0 39 6l22 -311q-72 -21 -160 -21q-165 0 -252.5 79t-87.5 233zM340 1266q0 76 53.5 129t128.5 53q77 0 131 -53t54 -129 t-54 -129.5t-131 -53.5q-75 0 -128.5 53.5t-53.5 129.5z" />
<glyph unicode="&#x3cb;" horiz-adv-x="1212" d="M102 459v530h369v-524q0 -71 40.5 -117.5t109.5 -46.5q87 0 132.5 63t45.5 187q0 78 -24.5 168t-67.5 158l342 137q65 -102 97 -226.5t32 -236.5q0 -257 -149 -416.5t-408 -159.5q-129 0 -229 36t-163 101.5t-95 153t-32 193.5zM201 1266q0 76 52.5 129t129.5 53 t129.5 -53t52.5 -129q0 -77 -53 -130t-129 -53t-129 53t-53 130zM643 1266q0 76 53.5 129t128.5 53q77 0 131 -53t54 -129t-54 -129.5t-131 -53.5q-75 0 -128.5 53.5t-53.5 129.5z" />
<glyph unicode="&#x3cc;" horiz-adv-x="1181" d="M35 496q0 104 38 197.5t107.5 165t175.5 113.5t234 42t235 -42t176.5 -113.5t107.5 -165t38 -197.5t-38 -198t-107.5 -166t-176.5 -114.5t-235 -42.5t-234 42.5t-175.5 114.5t-107.5 166t-38 198zM414 496q0 -86 46.5 -140.5t129.5 -54.5q84 0 131 54.5t47 140.5 q0 85 -47 138.5t-131 53.5q-82 0 -129 -54t-47 -138zM492 1108l45 459h274l-168 -459h-151z" />
<glyph unicode="&#x3cd;" horiz-adv-x="1212" d="M102 459v530h369v-524q0 -71 40.5 -117.5t109.5 -46.5q87 0 132.5 63t45.5 187q0 78 -24.5 168t-67.5 158l342 137q65 -102 97 -226.5t32 -236.5q0 -257 -149 -416.5t-408 -159.5q-129 0 -229 36t-163 101.5t-95 153t-32 193.5zM508 1108l45 459h274l-168 -459h-151z" />
<glyph unicode="&#x3ce;" horiz-adv-x="1837" d="M35 496q0 306 227 518l283 -203q-131 -151 -131 -315q0 -86 42 -140.5t115 -54.5q76 0 119 54.5t43 140.5v247h369v-247q0 -86 43 -140.5t119 -54.5q73 0 115 54.5t42 140.5q0 164 -131 315l283 203q227 -212 227 -518q0 -140 -56 -257t-168 -190.5t-259 -73.5 q-145 0 -241.5 64.5t-157.5 196.5q-61 -131 -158 -196t-242 -65q-147 0 -259 73.5t-168 190.5t-56 257zM819 1108l45 459h275l-168 -459h-152z" />
<glyph unicode="&#x401;" d="M111 0v1366h1036v-360h-623v-136h609v-360h-609v-150h623v-360h-1036zM225 1608q0 76 53 129t130 53q76 0 129 -53t53 -129q0 -77 -53 -130t-129 -53t-129.5 53.5t-53.5 129.5zM668 1608q0 76 53.5 129t128.5 53q77 0 130.5 -53t53.5 -129t-53.5 -129.5t-130.5 -53.5 q-75 0 -128.5 53.5t-53.5 129.5z" />
<glyph unicode="&#x402;" horiz-adv-x="1648" d="M37 1006v360h1145v-360h-365v-148q161 31 260 31q272 0 409.5 -126t137.5 -343v-12q0 -188 -144.5 -310.5t-379.5 -122.5v340q52 0 78 26.5t26 68.5v6q0 55 -51.5 83.5t-136.5 28.5q-116 0 -199 -30v-498h-414v1006h-366z" />
<glyph unicode="&#x403;" horiz-adv-x="1212" d="M111 0v1366h1036v-360h-623v-1006h-413zM487 1481l246 295h318l-318 -295h-246z" />
<glyph unicode="&#x404;" horiz-adv-x="1427" d="M37 682q0 207 98.5 369t269 250t383.5 88q103 0 193.5 -23.5t156 -62t120 -92t90 -107t61.5 -113.5l-356 -166q-28 84 -104.5 141.5t-176.5 57.5q-192 0 -274 -154h460v-360h-469q37 -80 108 -125t175 -45q100 0 176.5 57.5t104.5 141.5l356 -164q-26 -59 -61 -112 t-89.5 -107t-120 -93t-156.5 -63.5t-194 -24.5q-213 0 -384 88.5t-269 250.5t-98 368z" />
<glyph unicode="&#x405;" horiz-adv-x="1255" d="M6 193l215 307q82 -79 196 -127.5t245 -48.5q65 0 108 18t43 55q0 21 -26 35t-70 23.5t-101.5 19t-120.5 23.5t-126 33.5t-120.5 53.5t-101.5 79t-70 114.5t-26 155.5q0 88 36.5 168.5t105.5 144t179 101.5t246 38q347 0 580 -190l-221 -293q-86 65 -193.5 100t-208.5 35 q-104 0 -104 -61q0 -20 26 -35t70 -25t101 -20.5t120 -25t126 -34.5t120 -53t101 -76.5t70 -109.5t26 -147q0 -225 -157 -350.5t-433 -125.5q-394 0 -635 218z" />
<glyph unicode="&#x406;" horiz-adv-x="634" d="M111 0v1366h413v-1366h-413z" />
<glyph unicode="&#x407;" horiz-adv-x="634" d="M-86 1608q0 76 53 129t129 53q77 0 130 -53t53 -129t-53.5 -129.5t-129.5 -53.5t-129 53t-53 130zM111 0v1366h413v-1366h-413zM356 1608q0 76 54 129t129 53q77 0 130.5 -53t53.5 -129t-53.5 -129.5t-130.5 -53.5q-75 0 -129 53.5t-54 129.5z" />
<glyph unicode="&#x408;" horiz-adv-x="1019" d="M0 86l168 315q89 -61 176 -61q68 0 110 41.5t42 112.5v872h413v-879q0 -255 -141 -383.5t-387 -128.5q-238 0 -381 111z" />
<glyph unicode="&#x409;" horiz-adv-x="2258" d="M41 -25v365q94 0 152.5 76.5t82.5 261.5l84 688h1067v-430h316q154 0 267.5 -64.5t168.5 -169t55 -233.5q0 -130 -55 -235t-168.5 -169.5t-267.5 -64.5h-729v1006h-281l-45 -359q-19 -158 -62.5 -276.5t-102 -193t-137.5 -120.5t-161.5 -64t-183.5 -18zM1427 360h263 q55 0 90 28t35 81q0 52 -35 79t-90 27h-263v-215z" />
<glyph unicode="&#x40a;" horiz-adv-x="2258" d="M111 0v1366h413v-483h490v483h413v-483h342q147 0 254 -61t159 -159.5t52 -220.5q0 -123 -52 -222t-159 -159.5t-254 -60.5h-755v522h-490v-522h-413zM1427 360h293q41 0 68 21.5t27 60.5t-27 59.5t-68 20.5h-293v-162z" />
<glyph unicode="&#x40b;" horiz-adv-x="1734" d="M37 1006v360h1145v-360h-365v-148q161 31 260 31q272 0 409.5 -142t137.5 -387v-360h-420v360q0 93 -49 130.5t-139 37.5q-116 0 -199 -30v-498h-414v1006h-366z" />
<glyph unicode="&#x40c;" horiz-adv-x="1374" d="M111 0v1366h413v-512l359 512h506l-517 -635l539 -731h-504l-307 481l-76 -102v-379h-413zM582 1481l245 295h318l-318 -295h-245z" />
<glyph unicode="&#x40e;" horiz-adv-x="1359" d="M-35 86l168 315q89 -61 176 -61q52 0 83 16t54 50l-481 960h463l252 -555l254 555h463l-547 -1092q-151 -299 -504 -299q-238 0 -381 111zM319 1595l156 127q77 -108 205 -108q129 0 205 108l153 -127q-62 -84 -155.5 -132t-202.5 -48q-108 0 -202.5 48t-158.5 132z" />
<glyph unicode="&#x40f;" horiz-adv-x="1538" d="M111 0v1366h413v-1006h490v1006h413v-1366h-450v-252h-414v252h-452z" />
<glyph unicode="&#x410;" horiz-adv-x="1454" d="M-37 0l504 1366h520l504 -1366h-469l-49 160h-492l-49 -160h-469zM592 520h270l-135 441z" />
<glyph unicode="&#x411;" horiz-adv-x="1355" d="M111 0v1366h1138v-360h-725v-109h336q112 0 202.5 -35t148.5 -96.5t89 -142t31 -172.5q0 -93 -31 -174.5t-89 -143.5t-148.5 -97.5t-202.5 -35.5h-749zM524 360h285q45 0 73.5 23t28.5 66t-28.5 65.5t-73.5 22.5h-285v-177z" />
<glyph unicode="&#x412;" horiz-adv-x="1427" d="M111 0v1366h829q102 0 182.5 -31.5t127.5 -83t71.5 -111.5t24.5 -122q0 -124 -65.5 -207t-168.5 -106q112 -18 186 -111t74 -223q0 -73 -25 -138.5t-73 -118t-127 -83.5t-178 -31h-858zM524 344h332q44 0 70 23.5t26 62.5q0 38 -26.5 63t-69.5 25h-332v-174zM524 862h320 q33 0 57.5 23t24.5 59q0 34 -24.5 56t-57.5 22h-320v-160z" />
<glyph unicode="&#x413;" horiz-adv-x="1212" d="M111 0v1366h1036v-360h-623v-1006h-413z" />
<glyph unicode="&#x414;" horiz-adv-x="1572" d="M41 -252v592q51 9 85 26t65.5 53.5t52 100t32.5 158.5l84 688h1067v-1006h119v-612h-413v252h-678v-252h-414zM555 360h459v646h-281l-45 -359q-20 -170 -133 -287z" />
<glyph unicode="&#x415;" d="M111 0v1366h1036v-360h-623v-136h609v-360h-609v-150h623v-360h-1036z" />
<glyph unicode="&#x416;" horiz-adv-x="2031" d="M-37 0l539 731l-516 635h506l317 -455v455h414v-455l317 455h506l-516 -635l538 -731h-503l-308 481l-34 -47v-434h-414v434l-35 47l-307 -481h-504z" />
<glyph unicode="&#x417;" horiz-adv-x="1304" d="M25 188l202 283q73 -63 187 -97t204 -34q104 0 162 26.5t58 65.5q0 25 -17 40.5t-69 24.5t-146 9h-280v360h280q98 0 153.5 18t55.5 50q0 88 -223 88q-92 0 -189 -31.5t-165 -87.5l-195 258q94 104 247.5 164.5t346.5 60.5q278 0 434 -103t156 -275q0 -109 -85.5 -195 t-215.5 -108q58 -6 114.5 -30.5t103.5 -64.5t76 -98.5t29 -126.5q0 -120 -79.5 -214t-219 -145t-315.5 -51q-197 0 -359 59t-251 154z" />
<glyph unicode="&#x418;" horiz-adv-x="1536" d="M111 0v1366h413v-729l475 729h426v-1366h-413v774l-504 -774h-397z" />
<glyph unicode="&#x419;" horiz-adv-x="1536" d="M111 0v1366h413v-729l475 729h426v-1366h-413v774l-504 -774h-397zM408 1595l155 127q77 -108 205 -108q129 0 205 108l153 -127q-62 -84 -155.5 -132t-202.5 -48q-107 0 -201.5 48t-158.5 132z" />
<glyph unicode="&#x41a;" horiz-adv-x="1374" d="M111 0v1366h413v-512l359 512h506l-517 -635l539 -731h-504l-307 481l-76 -102v-379h-413z" />
<glyph unicode="&#x41b;" horiz-adv-x="1538" d="M41 -25v365q94 0 152.5 76.5t82.5 261.5l84 688h1067v-1366h-413v1006h-281l-45 -359q-19 -158 -62.5 -276.5t-102 -193t-137.5 -120.5t-161.5 -64t-183.5 -18z" />
<glyph unicode="&#x41c;" horiz-adv-x="1843" d="M111 0v1366h571l240 -655l239 655h572v-1366h-414v821l-305 -821h-185l-305 821v-821h-413z" />
<glyph unicode="&#x41d;" horiz-adv-x="1538" d="M111 0v1366h413v-483h490v483h413v-1366h-413v522h-490v-522h-413z" />
<glyph unicode="&#x41e;" horiz-adv-x="1568" d="M37 682q0 155 57.5 287.5t157.5 224t237.5 143.5t294.5 52t295 -52t237.5 -143.5t157.5 -224t58 -287.5t-58 -287.5t-157.5 -224t-237.5 -143.5t-295 -52t-294.5 52t-237.5 143.5t-157.5 224t-57.5 287.5zM457 682q0 -146 90.5 -244t236.5 -98t237 98t91 244t-91 244 t-237 98t-236.5 -98t-90.5 -244z" />
<glyph unicode="&#x41f;" horiz-adv-x="1538" d="M111 0v1366h1316v-1366h-413v1006h-490v-1006h-413z" />
<glyph unicode="&#x420;" horiz-adv-x="1355" d="M111 0v1366h729q154 0 267.5 -64.5t168.5 -169.5t55 -235q0 -129 -55 -233.5t-168.5 -169t-267.5 -64.5h-316v-430h-413zM524 791h262q55 0 90 27t35 79q0 53 -35 81t-90 28h-262v-215z" />
<glyph unicode="&#x421;" horiz-adv-x="1427" d="M37 682q0 207 98.5 369t269 250t383.5 88q103 0 193.5 -23.5t156 -62t120 -92t90 -107t61.5 -113.5l-356 -166q-27 83 -101.5 141t-163.5 58q-147 0 -239 -98.5t-92 -243.5t92 -243.5t239 -98.5q89 0 163.5 58t101.5 141l356 -164q-26 -59 -61 -112t-89.5 -107t-120 -93 t-156.5 -63.5t-194 -24.5q-213 0 -384 88.5t-269 250.5t-98 368z" />
<glyph unicode="&#x422;" horiz-adv-x="1218" d="M37 1006v360h1145v-360h-365v-1006h-414v1006h-366z" />
<glyph unicode="&#x423;" horiz-adv-x="1359" d="M-35 86l168 315q89 -61 176 -61q52 0 83 16t54 50l-481 960h463l252 -555l254 555h463l-547 -1092q-151 -299 -504 -299q-238 0 -381 111z" />
<glyph unicode="&#x424;" horiz-adv-x="1851" d="M37 682q0 239 176 374.5t506 166.5v143h414v-143q329 -31 505.5 -166.5t176.5 -374.5t-176.5 -375.5t-505.5 -167.5v-139h-414v139q-330 31 -506 167.5t-176 375.5zM457 682q0 -146 262 -176v352q-133 -17 -197.5 -60t-64.5 -116zM1133 506q262 30 262 176 q0 73 -64.5 116t-197.5 60v-352z" />
<glyph unicode="&#x425;" horiz-adv-x="1400" d="M-37 0l457 700l-426 666h485l221 -389l218 389h489l-426 -664l457 -702h-488l-250 418l-249 -418h-488z" />
<glyph unicode="&#x426;" horiz-adv-x="1572" d="M111 0v1366h413v-1006h490v1006h413v-1006h119v-612h-413v252h-1022z" />
<glyph unicode="&#x427;" horiz-adv-x="1415" d="M84 934v432h420v-432q0 -93 49 -130.5t139 -37.5q114 0 199 31v569h414v-1366h-414v436q-156 -30 -260 -30q-273 0 -410 141.5t-137 386.5z" />
<glyph unicode="&#x428;" horiz-adv-x="2154" d="M111 0v1366h413v-1006h346v1006h414v-1006h346v1006h414v-1366h-1933z" />
<glyph unicode="&#x429;" horiz-adv-x="2189" d="M111 0v1366h413v-1006h346v1006h414v-1006h346v1006h414v-1006h119v-612h-414v252h-1638z" />
<glyph unicode="&#x42a;" horiz-adv-x="1648" d="M37 1006v360h780v-430h316q154 0 267.5 -64.5t168.5 -169t55 -233.5q0 -130 -55 -235t-168.5 -169.5t-267.5 -64.5h-730v1006h-366zM817 360h262q55 0 90 28t35 81q0 52 -35 79t-90 27h-262v-215z" />
<glyph unicode="&#x42b;" horiz-adv-x="1939" d="M111 0v1366h413v-430h316q154 0 267.5 -64.5t168.5 -169t55 -233.5q0 -130 -55 -235t-168.5 -169.5t-267.5 -64.5h-729zM524 360h262q55 0 90 28t35 81q0 52 -35 79t-90 27h-262v-215zM1415 0v1366h414v-1366h-414z" />
<glyph unicode="&#x42c;" horiz-adv-x="1355" d="M111 0v1366h413v-430h316q154 0 267.5 -64.5t168.5 -169t55 -233.5q0 -130 -55 -235t-168.5 -169.5t-267.5 -64.5h-729zM524 360h262q55 0 90 28t35 81q0 52 -35 79t-90 27h-262v-215z" />
<glyph unicode="&#x42d;" horiz-adv-x="1427" d="M18 375l357 164q28 -84 104 -141.5t176 -57.5q103 0 174.5 45.5t106.5 124.5h-467v360h459q-37 72 -106 113t-167 41q-100 0 -176 -57.5t-104 -141.5l-357 166q26 60 61.5 113.5t90 107t120 92t156 62t193.5 23.5q213 0 384 -88t269.5 -250t98.5 -369q0 -206 -98.5 -368 t-269.5 -250.5t-384 -88.5q-103 0 -194 24.5t-156.5 63.5t-120 93t-89.5 107t-61 112z" />
<glyph unicode="&#x42e;" horiz-adv-x="2269" d="M111 0v1366h413v-483h240q64 230 261 368t460 138q157 0 294.5 -52t237.5 -143.5t157.5 -224t57.5 -287.5t-57.5 -287.5t-157.5 -224t-237.5 -143.5t-294.5 -52q-276 0 -476.5 149.5t-254.5 397.5h-230v-522h-413zM1157 682q0 -146 91 -244t237 -98t236.5 98t90.5 244 t-90.5 244t-236.5 98t-237 -98t-91 -244z" />
<glyph unicode="&#x42f;" horiz-adv-x="1388" d="M55 0l248 483q-45 22 -85 55t-78 82.5t-60.5 121t-22.5 155.5q0 97 32.5 181.5t93.5 149t155.5 101.5t210.5 37h729v-1366h-414v430h-149l-189 -430h-471zM477 899q0 -54 39 -81t96 -27h252v215h-252q-57 0 -96 -27.5t-39 -79.5z" />
<glyph unicode="&#x430;" horiz-adv-x="1144" d="M35 301q0 71 21.5 127t55.5 90.5t80 57t91 31.5t92 9q98 0 179 -29t120 -79v102q0 54 -48.5 88.5t-136.5 34.5q-69 0 -142 -26t-132 -70l-125 227q94 75 219.5 112.5t247.5 37.5q78 0 145 -11.5t131.5 -40.5t109 -74.5t72 -119.5t27.5 -170v-598h-368v94 q-41 -53 -124 -86t-175 -33q-58 0 -116 20t-109 58t-83 103t-32 145zM399 295q0 -42 38 -61t91 -19q45 0 86.5 14t59.5 39v56q-18 25 -59.5 39t-86.5 14q-53 0 -91 -20t-38 -62z" />
<glyph unicode="&#x431;" horiz-adv-x="1181" d="M35 541q0 354 136.5 537t410.5 225q50 8 83 25t33 38h410q0 -213 -391 -276q-109 -18 -179.5 -49t-104 -68.5t-48.5 -89.5q59 70 130 100.5t169 30.5q103 0 191 -42t147 -113t92 -164.5t33 -196.5q0 -105 -38 -199.5t-107.5 -166.5t-176.5 -114.5t-235 -42.5 q-171 0 -298 74.5t-192 202t-65 289.5zM414 498q0 -87 46.5 -142t129.5 -55q84 0 131 55t47 142q0 83 -47 136.5t-131 53.5q-82 0 -129 -54t-47 -136z" />
<glyph unicode="&#x432;" horiz-adv-x="1265" d="M102 0v989h713q156 0 240 -77.5t84 -176.5q0 -85 -47.5 -143.5t-124.5 -81.5q87 -17 140.5 -82.5t53.5 -157.5q0 -113 -84 -191.5t-239 -78.5h-736zM471 272h266q23 0 38.5 12.5t15.5 32.5q0 21 -15 34.5t-39 13.5h-266v-93zM471 635h252q19 0 32 12t13 29 q0 18 -12.5 29.5t-32.5 11.5h-252v-82z" />
<glyph unicode="&#x433;" horiz-adv-x="935" d="M102 0v989h803v-319h-434v-670h-369z" />
<glyph unicode="&#x434;" horiz-adv-x="1275" d="M37 -252v559q29 0 48 6.5t39 26.5t34 63.5t24 112.5l70 473h889v-670h108v-571h-368v252h-475v-252h-369zM467 319h305v351h-205l-22 -154q-18 -126 -78 -197z" />
<glyph unicode="&#x435;" horiz-adv-x="1112" d="M35 496q0 107 39.5 202t109.5 165t171 110.5t218 40.5q224 0 369 -151t145 -406v-76h-671q16 -52 72 -88.5t141 -36.5q48 0 120.5 20t106.5 50l152 -228q-70 -60 -187 -91.5t-235 -31.5q-155 0 -279.5 61.5t-198 181t-73.5 278.5zM412 614h325q-5 19 -14 37t-26.5 38 t-49.5 32t-74 12q-129 0 -161 -119z" />
<glyph unicode="&#x436;" horiz-adv-x="1626" d="M-25 0l363 539l-340 450h444l187 -289v289h368v-289l187 289h444l-340 -450l363 -539h-453l-170 319l-31 -40v-279h-368v279l-31 40l-170 -319h-453z" />
<glyph unicode="&#x437;" horiz-adv-x="1009" d="M0 131l164 215q63 -46 149 -70t160 -24q121 0 121 49q0 61 -133 61h-185v271h185q72 0 93 13.5t21 41.5q0 22 -29 35.5t-81 13.5q-172 0 -281 -100l-174 207q78 77 191 122.5t245 45.5q253 1 380.5 -73t129.5 -204q0 -79 -70.5 -142.5t-178.5 -82.5q102 -7 185 -70.5 t83 -160.5q2 -135 -135.5 -219t-366.5 -85q-151 0 -275.5 43t-197.5 113z" />
<glyph unicode="&#x438;" horiz-adv-x="1243" d="M102 0v989h369v-440l297 440h373v-989h-369v469l-317 -469h-353z" />
<glyph unicode="&#x439;" horiz-adv-x="1243" d="M102 0v989h369v-440l297 440h373v-989h-369v469l-317 -469h-353zM262 1253l156 127q77 -108 205 -108t204 108l154 -127q-62 -84 -155.5 -132t-202.5 -48q-108 0 -202.5 48t-158.5 132z" />
<glyph unicode="&#x43a;" horiz-adv-x="1140" d="M102 0v989h369v-352l227 352h445l-340 -450l362 -539h-452l-170 319l-72 -96v-223h-369z" />
<glyph unicode="&#x43b;" horiz-adv-x="1243" d="M37 -25v301q55 0 90.5 52.5t54.5 187.5l70 473h889v-989h-369v670h-205l-28 -203q-17 -118 -51 -205.5t-92 -153.5t-148 -99.5t-211 -33.5z" />
<glyph unicode="&#x43c;" horiz-adv-x="1521" d="M102 0v989h488l170 -477l172 477h487v-989h-366v539l-191 -539h-200l-191 539v-539h-369z" />
<glyph unicode="&#x43d;" horiz-adv-x="1243" d="M102 0v989h369v-313h301v313h369v-989h-369v356h-301v-356h-369z" />
<glyph unicode="&#x43e;" horiz-adv-x="1181" d="M35 496q0 104 38 197.5t107.5 165t175.5 113.5t234 42t235 -42t176.5 -113.5t107.5 -165t38 -197.5t-38 -198t-107.5 -166t-176.5 -114.5t-235 -42.5t-234 42.5t-175.5 114.5t-107.5 166t-38 198zM414 496q0 -86 46.5 -140.5t129.5 -54.5q84 0 131 54.5t47 140.5 q0 85 -47 138.5t-131 53.5q-82 0 -129 -54t-47 -138z" />
<glyph unicode="&#x43f;" horiz-adv-x="1243" d="M102 0v989h1039v-989h-369v670h-301v-670h-369z" />
<glyph unicode="&#x440;" horiz-adv-x="1218" d="M102 -377v1366h369v-104q110 129 279 129q191 0 312.5 -136t121.5 -382q0 -247 -121.5 -384t-312.5 -137q-166 0 -279 129v-481h-369zM471 369q24 -29 69.5 -48.5t82.5 -19.5q77 0 130.5 52.5t53.5 142.5q0 89 -53.5 140.5t-130.5 51.5q-38 0 -82.5 -18.5t-69.5 -48.5 v-252z" />
<glyph unicode="&#x441;" horiz-adv-x="1028" d="M35 496q0 153 73.5 272t199.5 182.5t282 63.5q154 0 262.5 -56t157.5 -131l-238 -223q-25 38 -67.5 61t-98.5 23q-83 0 -138.5 -50.5t-55.5 -141.5t56 -143t138 -52q55 0 97.5 24.5t68.5 61.5l238 -225q-50 -74 -158.5 -130.5t-261.5 -56.5q-156 0 -282 64t-199.5 183.5 t-73.5 273.5z" />
<glyph unicode="&#x442;" horiz-adv-x="954" d="M31 670v319h893v-319h-260v-670h-369v670h-264z" />
<glyph unicode="&#x443;" horiz-adv-x="1095" d="M-31 989h389l189 -565l190 565h389l-430 -1112q-32 -83 -78 -138.5t-108 -84.5t-125 -41t-149 -14q-88 0 -144 16l51 328q36 -19 78 -19q112 0 129 39l8 21z" />
<glyph unicode="&#x444;" horiz-adv-x="1757" d="M35 494q0 247 112 383.5t289 136.5q154 0 258 -129v481h369v-481q102 129 258 129q177 0 289 -136t112 -382q0 -247 -112 -384t-289 -137q-154 0 -258 129v-481h-369v481q-102 -129 -258 -129q-177 0 -289 136.5t-112 382.5zM406 494q0 -89 45.5 -141t111.5 -52 q33 0 71 18.5t60 49.5v252q-21 29 -59.5 48t-71.5 19q-66 0 -111.5 -52t-45.5 -142zM1063 369q21 -30 60 -49t71 -19q66 0 112 52.5t46 142.5q0 89 -46 140.5t-112 51.5q-33 0 -71 -18t-60 -49v-252z" />
<glyph unicode="&#x445;" horiz-adv-x="1067" d="M-25 0l324 508l-303 481h403l133 -231l134 231h403l-303 -481l326 -508h-404l-153 262l-158 -262h-402z" />
<glyph unicode="&#x446;" horiz-adv-x="1275" d="M102 0v989h369v-670h301v670h369v-670h108v-571h-368v252h-779z" />
<glyph unicode="&#x447;" horiz-adv-x="1222" d="M82 598v391h369v-276q0 -142 143 -142q91 0 158 43v375h368v-989h-368v324q-49 -32 -128.5 -55t-172.5 -23q-369 0 -369 352z" />
<glyph unicode="&#x448;" horiz-adv-x="1835" d="M102 0v989h369v-670h262v670h369v-670h262v670h369v-989h-1631z" />
<glyph unicode="&#x449;" horiz-adv-x="1867" d="M102 0v989h369v-670h262v670h369v-670h262v670h369v-670h108v-571h-368v252h-1371z" />
<glyph unicode="&#x44a;" horiz-adv-x="1388" d="M31 670v319h633v-295h311q181 0 280 -99.5t99 -248.5q0 -145 -103 -245.5t-276 -100.5h-680v670h-264zM664 289h241q34 0 55 16t21 41q0 26 -21 43t-55 17h-241v-117z" />
<glyph unicode="&#x44b;" horiz-adv-x="1716" d="M102 0v989h369v-295h311q181 0 280 -99.5t99 -248.5q0 -145 -103 -245.5t-276 -100.5h-680zM471 289h242q33 0 54 16t21 41q0 26 -20.5 43t-54.5 17h-242v-117zM1245 0v989h369v-989h-369z" />
<glyph unicode="&#x44c;" horiz-adv-x="1196" d="M102 0v989h369v-295h311q181 0 280 -99.5t99 -248.5q0 -145 -103 -245.5t-276 -100.5h-680zM471 289h242q33 0 54 16t21 41q0 26 -20.5 43t-54.5 17h-242v-117z" />
<glyph unicode="&#x44d;" horiz-adv-x="1028" d="M18 162l224 186q67 -96 172 -96q61 0 109.5 33.5t72.5 95.5h-285v233h283q-24 59 -71.5 90t-108.5 31q-105 0 -172 -92l-224 184q49 75 157.5 131t262.5 56q156 0 282 -63.5t199.5 -182.5t73.5 -272q0 -154 -73.5 -273.5t-199.5 -183.5t-282 -64q-153 0 -261.5 56.5 t-158.5 130.5z" />
<glyph unicode="&#x44e;" horiz-adv-x="1748" d="M102 0v989h369v-313h162q55 152 191 245t333 93q128 0 235 -42t176.5 -113.5t107.5 -165t38 -197.5t-38 -198t-107.5 -166t-176.5 -114.5t-235 -42.5q-211 0 -352.5 106.5t-186.5 274.5h-147v-356h-369zM981 496q0 -86 46.5 -140.5t129.5 -54.5q84 0 131 54.5t47 140.5 q0 85 -47 138.5t-131 53.5q-82 0 -129 -54t-47 -138z" />
<glyph unicode="&#x44f;" horiz-adv-x="1232" d="M80 0l194 332q-32 14 -62 36.5t-61 59t-50 92.5t-19 123q0 145 103 245.5t276 100.5h680v-989h-369v295h-145l-138 -295h-409zM455 643q0 -26 20.5 -42.5t54.5 -16.5h242v116h-242q-33 0 -54 -16t-21 -41z" />
<glyph unicode="&#x451;" horiz-adv-x="1112" d="M35 496q0 107 39.5 202t109.5 165t171 110.5t218 40.5q224 0 369 -151t145 -406v-76h-671q16 -52 72 -88.5t141 -36.5q48 0 120.5 20t106.5 50l152 -228q-70 -60 -187 -91.5t-235 -31.5q-155 0 -279.5 61.5t-198 181t-73.5 278.5zM176 1266q0 76 53 129t129 53 q77 0 130 -53t53 -129t-53.5 -129.5t-129.5 -53.5t-129 53t-53 130zM412 614h325q-5 19 -14 37t-26.5 38t-49.5 32t-74 12q-129 0 -161 -119zM618 1266q0 76 54 129t129 53q77 0 130.5 -53t53.5 -129t-53.5 -129.5t-130.5 -53.5q-75 0 -129 53.5t-54 129.5z" />
<glyph unicode="&#x452;" horiz-adv-x="1255" d="M14 1067v199h101v100h368v-100h275v-199h-275v-190q50 58 135.5 97.5t204.5 39.5q164 0 247 -85t83 -222v-664q0 -201 -103 -322.5t-309 -121.5q-107 0 -159.5 14t-116.5 53l88 273q31 -23 55.5 -31t67.5 -8q52 0 80 36.5t28 106.5v508q0 73 -36.5 105t-106.5 32 q-56 0 -91.5 -21.5t-66.5 -56.5v-610h-368v1067h-101z" />
<glyph unicode="&#x453;" horiz-adv-x="935" d="M102 0v989h803v-319h-434v-670h-369zM365 1139l245 295h318l-318 -295h-245z" />
<glyph unicode="&#x454;" horiz-adv-x="1028" d="M35 496q0 153 73.5 272t199.5 182.5t282 63.5q154 0 262.5 -56t157.5 -131l-224 -184q-67 92 -172 92q-61 0 -109.5 -31t-72.5 -90h285v-233h-287q24 -62 73 -95.5t111 -33.5q105 0 172 96l224 -186q-50 -74 -158.5 -130.5t-261.5 -56.5q-156 0 -282 64t-199.5 183.5 t-73.5 273.5z" />
<glyph unicode="&#x455;" horiz-adv-x="1003" d="M18 127l148 248q61 -47 168 -86t188 -39q99 0 99 43q0 18 -31 28.5t-80.5 17t-109.5 15t-120 29.5t-109.5 54t-80.5 94t-31 145q0 141 118.5 239.5t324.5 98.5q236 0 428 -127l-135 -240q-50 42 -130 72.5t-161 30.5q-39 0 -65.5 -12.5t-26.5 -30.5q0 -14 24 -23.5 t63.5 -14t90 -14t103 -20.5t103 -36.5t90 -60t63.5 -92t24 -131.5q0 -151 -126.5 -245.5t-342.5 -94.5q-135 0 -270.5 42.5t-215.5 109.5z" />
<glyph unicode="&#x456;" horiz-adv-x="573" d="M80 1268q0 86 60.5 146.5t146.5 60.5t146.5 -60.5t60.5 -146.5t-60.5 -146.5t-146.5 -60.5t-146.5 60.5t-60.5 146.5zM102 0v989h369v-989h-369z" />
<glyph unicode="&#x457;" horiz-adv-x="573" d="M-117 1266q0 76 53 129t130 53q76 0 129 -53t53 -129q0 -77 -53 -130t-129 -53t-129.5 53.5t-53.5 129.5zM102 0v989h369v-989h-369zM326 1266q0 76 53.5 129t128.5 53q77 0 130.5 -53t53.5 -129t-53.5 -129.5t-130.5 -53.5q-75 0 -128.5 53.5t-53.5 129.5z" />
<glyph unicode="&#x458;" horiz-adv-x="573" d="M-217 -334l88 273q31 -23 55.5 -31t67.5 -8q52 0 80 36.5t28 106.5v946h369v-946q0 -201 -103 -322.5t-309 -121.5q-107 0 -159.5 14t-116.5 53zM80 1268q0 86 60.5 146.5t146.5 60.5t146.5 -60.5t60.5 -146.5t-60.5 -146.5t-146.5 -60.5t-146.5 60.5t-60.5 146.5z" />
<glyph unicode="&#x459;" horiz-adv-x="1865" d="M37 -25v301q55 0 90.5 52.5t54.5 187.5l70 473h889v-295h311q181 0 280 -99.5t99 -248.5q0 -145 -103 -245.5t-276 -100.5h-680v670h-205l-28 -203q-17 -118 -51 -205.5t-92 -153.5t-148 -99.5t-211 -33.5zM1141 289h241q34 0 55 16t21 41q0 26 -21 43t-55 17h-241v-117z " />
<glyph unicode="&#x45a;" horiz-adv-x="1865" d="M102 0v989h369v-295h301v295h369v-295h311q181 0 280 -99.5t99 -248.5q0 -145 -103 -245.5t-276 -100.5h-680v375h-301v-375h-369zM1141 289h241q34 0 55 16t21 41q0 26 -21 43t-55 17h-241v-117z" />
<glyph unicode="&#x45b;" horiz-adv-x="1255" d="M14 1067v199h101v100h368v-100h275v-199h-275v-190q50 58 135.5 97.5t204.5 39.5q164 0 247 -85t83 -222v-707h-369v551q0 73 -36.5 105t-106.5 32q-56 0 -91.5 -21.5t-66.5 -56.5v-610h-368v1067h-101z" />
<glyph unicode="&#x45c;" horiz-adv-x="1140" d="M102 0v989h369v-352l227 352h445l-340 -450l362 -539h-452l-170 319l-72 -96v-223h-369zM432 1139l246 295h317l-317 -295h-246z" />
<glyph unicode="&#x45e;" horiz-adv-x="1095" d="M-31 989h389l189 -565l190 565h389l-430 -1112q-32 -83 -78 -138.5t-108 -84.5t-125 -41t-149 -14q-88 0 -144 16l51 328q36 -19 78 -19q112 0 129 39l8 21zM188 1253l156 127q77 -108 205 -108q129 0 205 108l153 -127q-62 -84 -155.5 -132t-202.5 -48q-108 0 -202.5 48 t-158.5 132z" />
<glyph unicode="&#x45f;" horiz-adv-x="1243" d="M102 0v989h369v-670h301v670h369v-989h-336v-252h-369v252h-334z" />
<glyph unicode="&#x490;" horiz-adv-x="1212" d="M111 0v1366h622v252h414v-612h-623v-1006h-413z" />
<glyph unicode="&#x491;" horiz-adv-x="935" d="M102 0v989h435v252h368v-571h-434v-670h-369z" />
<glyph unicode="&#x1e02;" horiz-adv-x="1427" d="M111 0v1366h829q102 0 182.5 -31.5t127.5 -83t71.5 -111.5t24.5 -122q0 -124 -65.5 -207t-168.5 -106q112 -18 186 -111t74 -223q0 -73 -25 -138.5t-73 -118t-127 -83.5t-178 -31h-858zM524 344h332q44 0 70 23.5t26 62.5q0 38 -26.5 63t-69.5 25h-332v-174zM524 862h320 q33 0 57.5 23t24.5 59q0 34 -24.5 56t-57.5 22h-320v-160zM532 1610q0 75 54 128.5t129 53.5q74 0 127 -53.5t53 -128.5t-53 -129t-127 -54q-75 0 -129 54t-54 129z" />
<glyph unicode="&#x1e03;" d="M102 0v1366h369v-481q107 129 279 129q189 0 312.5 -139.5t123.5 -378.5q0 -124 -34 -224t-94 -164.5t-138.5 -98.5t-169.5 -34q-164 0 -279 129v-104h-369zM442 1610q0 75 54 128.5t129 53.5q74 0 127 -53.5t53 -128.5t-53 -129t-127 -54q-75 0 -129 54t-54 129z M471 367q25 -30 69.5 -48t84.5 -18q78 0 131 52.5t53 142.5q0 89 -53 140.5t-131 51.5q-39 0 -84 -18t-70 -49v-254z" />
<glyph unicode="&#x1e0a;" horiz-adv-x="1507" d="M111 0v1366h610q217 0 385 -78.5t266 -234.5t98 -369t-98 -369.5t-265.5 -235.5t-383.5 -79h-612zM524 360h197q150 0 240 94.5t90 229.5q0 144 -84 233t-244 89h-199v-646zM571 1610q0 75 54 128.5t129 53.5q74 0 127 -53.5t53 -128.5t-53 -129t-127 -54q-75 0 -129 54 t-54 129z" />
<glyph unicode="&#x1e0b;" d="M35 496q0 239 123.5 378.5t312.5 139.5q172 0 279 -129v481h368v-1366h-368v104q-115 -129 -279 -129q-91 0 -169.5 34t-138.5 98.5t-94 164.5t-34 224zM412 496q0 -89 53 -142t131 -53q39 0 84 18.5t70 49.5v254q-25 30 -69.5 47.5t-84.5 17.5q-78 0 -131 -51.5 t-53 -140.5zM418 1610q0 75 53.5 128.5t128.5 53.5q74 0 127 -53.5t53 -128.5t-53 -129t-127 -54q-75 0 -128.5 54t-53.5 129z" />
<glyph unicode="&#x1e1e;" horiz-adv-x="1212" d="M111 0v1366h1036v-360h-623v-136h609v-360h-609v-510h-413zM455 1610q0 75 53.5 128.5t128.5 53.5q74 0 127 -53.5t53 -128.5t-53 -129t-127 -54q-75 0 -128.5 54t-53.5 129z" />
<glyph unicode="&#x1e1f;" horiz-adv-x="759" d="M14 670v319h164v45q0 155 106 253.5t271 98.5q92 0 175.5 -26.5t133.5 -79.5l-133 -205q-33 39 -90 39q-37 0 -65.5 -22.5t-28.5 -57.5v-45h201v-319h-201v-670h-369v670h-164zM375 1610q0 75 53.5 128.5t128.5 53.5q74 0 127 -53.5t53 -128.5t-53 -129t-127 -54 q-75 0 -128.5 54t-53.5 129z" />
<glyph unicode="&#x1e22;" horiz-adv-x="1538" d="M111 0v1366h413v-483h490v483h413v-1366h-413v522h-490v-522h-413zM588 1610q0 75 53.5 128.5t128.5 53.5q74 0 127 -53.5t53 -128.5t-53 -129t-127 -54q-75 0 -128.5 54t-53.5 129z" />
<glyph unicode="&#x1e23;" horiz-adv-x="1245" d="M104 0v1366h369v-489q50 58 135.5 97.5t204.5 39.5q164 0 247 -85t83 -222v-707h-369v551q0 73 -36.5 105t-106.5 32q-56 0 -91.5 -21.5t-66.5 -56.5v-610h-369zM440 1610q0 75 54 128.5t129 53.5q74 0 127 -53.5t53 -128.5t-53 -129t-127 -54q-75 0 -129 54t-54 129z " />
<glyph unicode="&#x1e56;" horiz-adv-x="1355" d="M111 0v1366h729q154 0 267.5 -64.5t168.5 -169.5t55 -235q0 -129 -55 -233.5t-168.5 -169t-267.5 -64.5h-316v-430h-413zM496 1610q0 75 53.5 128.5t128.5 53.5q74 0 127 -53.5t53 -128.5t-53 -129t-127 -54q-75 0 -128.5 54t-53.5 129zM524 791h262q55 0 90 27t35 79 q0 53 -35 81t-90 28h-262v-215z" />
<glyph unicode="&#x1e57;" horiz-adv-x="1218" d="M102 -377v1366h369v-104q110 129 279 129q191 0 312.5 -136t121.5 -382q0 -247 -121.5 -384t-312.5 -137q-166 0 -279 129v-481h-369zM442 1268q0 75 54 128.5t129 53.5q74 0 127 -53.5t53 -128.5t-53 -129t-127 -54q-75 0 -129 54t-54 129zM471 369q24 -29 69.5 -48.5 t82.5 -19.5q77 0 130.5 52.5t53.5 142.5q0 89 -53.5 140.5t-130.5 51.5q-38 0 -82.5 -18.5t-69.5 -48.5v-252z" />
<glyph unicode="&#x1e60;" horiz-adv-x="1255" d="M6 193l215 307q82 -79 196 -127.5t245 -48.5q65 0 108 18t43 55q0 21 -26 35t-70 23.5t-101.5 19t-120.5 23.5t-126 33.5t-120.5 53.5t-101.5 79t-70 114.5t-26 155.5q0 88 36.5 168.5t105.5 144t179 101.5t246 38q347 0 580 -190l-221 -293q-86 65 -193.5 100t-208.5 35 q-104 0 -104 -61q0 -20 26 -35t70 -25t101 -20.5t120 -25t126 -34.5t120 -53t101 -76.5t70 -109.5t26 -147q0 -225 -157 -350.5t-433 -125.5q-394 0 -635 218zM446 1610q0 75 54 128.5t129 53.5q74 0 127 -53.5t53 -128.5t-53 -129t-127 -54q-75 0 -129 54t-54 129z" />
<glyph unicode="&#x1e61;" horiz-adv-x="1003" d="M18 127l148 248q61 -47 168 -86t188 -39q99 0 99 43q0 18 -31 28.5t-80.5 17t-109.5 15t-120 29.5t-109.5 54t-80.5 94t-31 145q0 141 118.5 239.5t324.5 98.5q236 0 428 -127l-135 -240q-50 42 -130 72.5t-161 30.5q-39 0 -65.5 -12.5t-26.5 -30.5q0 -14 24 -23.5 t63.5 -14t90 -14t103 -20.5t103 -36.5t90 -60t63.5 -92t24 -131.5q0 -151 -126.5 -245.5t-342.5 -94.5q-135 0 -270.5 42.5t-215.5 109.5zM319 1268q0 75 54 128.5t129 53.5q74 0 127 -53.5t53 -128.5t-53 -129t-127 -54q-75 0 -129 54t-54 129z" />
<glyph unicode="&#x1e6a;" horiz-adv-x="1218" d="M37 1006v360h1145v-360h-365v-1006h-414v1006h-366zM428 1610q0 75 53.5 128.5t128.5 53.5q74 0 127.5 -53.5t53.5 -128.5t-53.5 -129t-127.5 -54q-75 0 -128.5 54t-53.5 129z" />
<glyph unicode="&#x1e6b;" horiz-adv-x="782" d="M14 670v319h164v271h369v-271h201v-319h-201v-277q0 -39 23 -65.5t59 -26.5q23 0 44.5 5.5t28.5 12.5l66 -278q-32 -29 -97 -47.5t-153 -18.5q-165 0 -252.5 79t-87.5 233v383h-164zM184 1610q0 75 54 128.5t129 53.5q74 0 127 -53.5t53 -128.5t-53 -129t-127 -54 q-75 0 -129 54t-54 129z" />
<glyph unicode="&#x1e80;" horiz-adv-x="1953" d="M-25 1366h463l176 -836l207 836h312l206 -836l174 836h465l-391 -1366h-434l-176 774l-176 -774h-434zM557 1776h317l246 -295h-246z" />
<glyph unicode="&#x1e81;" horiz-adv-x="1648" d="M-25 989h379l131 -545l174 545h330l172 -545l131 545h381l-287 -989h-401l-162 553l-159 -553h-402zM397 1434h318l246 -295h-246z" />
<glyph unicode="&#x1e82;" horiz-adv-x="1953" d="M-25 1366h463l176 -836l207 836h312l206 -836l174 836h465l-391 -1366h-434l-176 774l-176 -774h-434zM838 1481l245 295h318l-318 -295h-245z" />
<glyph unicode="&#x1e83;" horiz-adv-x="1648" d="M-25 989h379l131 -545l174 545h330l172 -545l131 545h381l-287 -989h-401l-162 553l-159 -553h-402zM680 1139l246 295h317l-317 -295h-246z" />
<glyph unicode="&#x1e84;" horiz-adv-x="1953" d="M-25 1366h463l176 -836l207 836h312l206 -836l174 836h465l-391 -1366h-434l-176 774l-176 -774h-434zM571 1608q0 76 53 129t130 53q76 0 129 -53t53 -129q0 -77 -53 -130t-129 -53t-129.5 53.5t-53.5 129.5zM1014 1608q0 76 53.5 129t128.5 53q77 0 130.5 -53 t53.5 -129t-53.5 -129.5t-130.5 -53.5q-75 0 -128.5 53.5t-53.5 129.5z" />
<glyph unicode="&#x1e85;" horiz-adv-x="1648" d="M-25 989h379l131 -545l174 545h330l172 -545l131 545h381l-287 -989h-401l-162 553l-159 -553h-402zM420 1266q0 76 53 129t129 53t129 -53t53 -129q0 -77 -53 -130t-129 -53t-129 53t-53 130zM862 1266q0 76 53.5 129t128.5 53q77 0 131 -53t54 -129t-54 -129.5 t-131 -53.5q-75 0 -128.5 53.5t-53.5 129.5z" />
<glyph unicode="&#x1ea0;" horiz-adv-x="1454" d="M-37 0l504 1366h520l504 -1366h-469l-49 160h-492l-49 -160h-469zM547 -246q0 75 53.5 129t128.5 54q74 0 127 -54t53 -129t-53 -128.5t-127 -53.5q-75 0 -128.5 53.5t-53.5 128.5zM592 520h270l-135 441z" />
<glyph unicode="&#x1ea1;" horiz-adv-x="1144" d="M35 301q0 71 21.5 127t55.5 90.5t80 57t91 31.5t92 9q98 0 179 -29t120 -79v102q0 54 -48.5 88.5t-136.5 34.5q-69 0 -142 -26t-132 -70l-125 227q94 75 219.5 112.5t247.5 37.5q78 0 145 -11.5t131.5 -40.5t109 -74.5t72 -119.5t27.5 -170v-598h-368v94 q-41 -53 -124 -86t-175 -33q-58 0 -116 20t-109 58t-83 103t-32 145zM391 -246q0 75 53.5 129t128.5 54q74 0 127.5 -54t53.5 -129t-53.5 -128.5t-127.5 -53.5q-75 0 -128.5 53.5t-53.5 128.5zM399 295q0 -42 38 -61t91 -19q45 0 86.5 14t59.5 39v56q-18 25 -59.5 39 t-86.5 14q-53 0 -91 -20t-38 -62z" />
<glyph unicode="&#x1ea2;" horiz-adv-x="1454" d="M-37 0l504 1366h520l504 -1366h-469l-49 160h-492l-49 -160h-469zM549 1561q21 60 68 89t108 29q77 0 128.5 -38t51.5 -115q0 -46 -24 -99h-144q35 38 35 91q0 27 -14.5 39t-32.5 12q-38 0 -57 -47zM592 520h270l-135 441z" />
<glyph unicode="&#x1ea3;" horiz-adv-x="1144" d="M35 301q0 71 21.5 127t55.5 90.5t80 57t91 31.5t92 9q98 0 179 -29t120 -79v102q0 54 -48.5 88.5t-136.5 34.5q-69 0 -142 -26t-132 -70l-125 227q94 75 219.5 112.5t247.5 37.5q78 0 145 -11.5t131.5 -40.5t109 -74.5t72 -119.5t27.5 -170v-598h-368v94 q-41 -53 -124 -86t-175 -33q-58 0 -116 20t-109 58t-83 103t-32 145zM393 1212q21 60 68 89.5t108 29.5q77 0 129 -38t52 -115q0 -44 -25 -99h-143q34 37 34 90q0 27 -14.5 39.5t-32.5 12.5q-38 0 -57 -47zM399 295q0 -42 38 -61t91 -19q45 0 86.5 14t59.5 39v56 q-18 25 -59.5 39t-86.5 14q-53 0 -91 -20t-38 -62z" />
<glyph unicode="&#x1ea4;" horiz-adv-x="1454" d="M-37 0l504 1366h520l504 -1366h-469l-49 160h-492l-49 -160h-469zM387 1397l180 221h320l186 -221h-215l-131 112l-125 -112h-215zM592 520h270l-135 441zM1001 1505l246 221h318l-318 -221h-246z" />
<glyph unicode="&#x1ea5;" horiz-adv-x="1144" d="M35 301q0 71 21.5 127t55.5 90.5t80 57t91 31.5t92 9q98 0 179 -29t120 -79v102q0 54 -48.5 88.5t-136.5 34.5q-69 0 -142 -26t-132 -70l-125 227q94 75 219.5 112.5t247.5 37.5q78 0 145 -11.5t131.5 -40.5t109 -74.5t72 -119.5t27.5 -170v-598h-368v94 q-41 -53 -124 -86t-175 -33q-58 0 -116 20t-109 58t-83 103t-32 145zM227 1139l181 295h319l186 -295h-215l-131 149l-125 -149h-215zM399 295q0 -42 38 -61t91 -19q45 0 86.5 14t59.5 39v56q-18 25 -59.5 39t-86.5 14q-53 0 -91 -20t-38 -62zM827 1282l246 295h318 l-318 -295h-246z" />
<glyph unicode="&#x1ea6;" horiz-adv-x="1454" d="M-100 1726h317l246 -221h-246zM-37 0l504 1366h520l504 -1366h-469l-49 160h-492l-49 -160h-469zM387 1397l180 221h320l186 -221h-215l-131 112l-125 -112h-215zM592 520h270l-135 441z" />
<glyph unicode="&#x1ea7;" horiz-adv-x="1144" d="M-262 1577h317l246 -295h-246zM35 301q0 71 21.5 127t55.5 90.5t80 57t91 31.5t92 9q98 0 179 -29t120 -79v102q0 54 -48.5 88.5t-136.5 34.5q-69 0 -142 -26t-132 -70l-125 227q94 75 219.5 112.5t247.5 37.5q78 0 145 -11.5t131.5 -40.5t109 -74.5t72 -119.5t27.5 -170 v-598h-368v94q-41 -53 -124 -86t-175 -33q-58 0 -116 20t-109 58t-83 103t-32 145zM227 1139l181 295h319l186 -295h-215l-131 149l-125 -149h-215zM399 295q0 -42 38 -61t91 -19q45 0 86.5 14t59.5 39v56q-18 25 -59.5 39t-86.5 14q-53 0 -91 -20t-38 -62z" />
<glyph unicode="&#x1ea8;" horiz-adv-x="1454" d="M-37 0l504 1366h520l504 -1366h-469l-49 160h-492l-49 -160h-469zM387 1397l180 221h320l186 -221h-215l-131 112l-125 -112h-215zM592 520h270l-135 441zM920 1626q41 88 176 88q77 0 128.5 -28.5t51.5 -86.5q0 -32 -25 -73h-143q35 28 35 67q0 20 -14.5 29.5t-32.5 9.5 q-39 0 -58 -35z" />
<glyph unicode="&#x1ea9;" horiz-adv-x="1144" d="M35 301q0 71 21.5 127t55.5 90.5t80 57t91 31.5t92 9q98 0 179 -29t120 -79v102q0 54 -48.5 88.5t-136.5 34.5q-69 0 -142 -26t-132 -70l-125 227q94 75 219.5 112.5t247.5 37.5q78 0 145 -11.5t131.5 -40.5t109 -74.5t72 -119.5t27.5 -170v-598h-368v94 q-41 -53 -124 -86t-175 -33q-58 0 -116 20t-109 58t-83 103t-32 145zM227 1139l181 295h319l186 -295h-215l-131 149l-125 -149h-215zM399 295q0 -42 38 -61t91 -19q45 0 86.5 14t59.5 39v56q-18 25 -59.5 39t-86.5 14q-53 0 -91 -20t-38 -62zM635 1499q21 60 68 89.5 t108 29.5q77 0 128.5 -38.5t51.5 -115.5q0 -45 -24 -98h-144q35 38 35 90q0 27 -14.5 39t-32.5 12q-38 0 -57 -47z" />
<glyph unicode="&#x1eaa;" horiz-adv-x="1454" d="M-37 0l504 1366h520l504 -1366h-469l-49 160h-492l-49 -160h-469zM377 1556q0 138 241 138q72 0 139.5 -22.5t86.5 -22.5q49 0 49 39h182q0 -138 -241 -138q-72 0 -140 21.5t-86 21.5q-21 0 -35 -9.5t-14 -27.5h-182zM387 1389l180 147h320l186 -147h-215l-131 73 l-125 -73h-215zM592 520h270l-135 441z" />
<glyph unicode="&#x1eab;" horiz-adv-x="1144" d="M35 301q0 71 21.5 127t55.5 90.5t80 57t91 31.5t92 9q98 0 179 -29t120 -79v102q0 54 -48.5 88.5t-136.5 34.5q-69 0 -142 -26t-132 -70l-125 227q94 75 219.5 112.5t247.5 37.5q78 0 145 -11.5t131.5 -40.5t109 -74.5t72 -119.5t27.5 -170v-598h-368v94 q-41 -53 -124 -86t-175 -33q-58 0 -116 20t-109 58t-83 103t-32 145zM223 1409q0 274 242 274q55 0 99 -22t74.5 -44t51.5 -22t35 19.5t14 56.5h183q0 -274 -242 -274q-43 0 -80.5 13.5t-59 30.5t-44.5 30.5t-41 13.5q-21 0 -35 -19.5t-14 -56.5h-183zM227 1071l181 295h319 l186 -295h-215l-131 150l-125 -150h-215zM399 295q0 -42 38 -61t91 -19q45 0 86.5 14t59.5 39v56q-18 25 -59.5 39t-86.5 14q-53 0 -91 -20t-38 -62z" />
<glyph unicode="&#x1eac;" horiz-adv-x="1454" d="M-37 0l504 1366h520l504 -1366h-469l-49 160h-492l-49 -160h-469zM385 1481l180 295h320l186 -295h-215l-131 149l-125 -149h-215zM547 -246q0 75 53.5 129t128.5 54q74 0 127 -54t53 -129t-53 -128.5t-127 -53.5q-75 0 -128.5 53.5t-53.5 128.5zM592 520h270l-135 441z " />
<glyph unicode="&#x1ead;" horiz-adv-x="1144" d="M35 301q0 71 21.5 127t55.5 90.5t80 57t91 31.5t92 9q98 0 179 -29t120 -79v102q0 54 -48.5 88.5t-136.5 34.5q-69 0 -142 -26t-132 -70l-125 227q94 75 219.5 112.5t247.5 37.5q78 0 145 -11.5t131.5 -40.5t109 -74.5t72 -119.5t27.5 -170v-598h-368v94 q-41 -53 -124 -86t-175 -33q-58 0 -116 20t-109 58t-83 103t-32 145zM229 1139l181 295h319l186 -295h-215l-131 149l-125 -149h-215zM391 -246q0 75 53.5 129t128.5 54q74 0 127.5 -54t53.5 -129t-53.5 -128.5t-127.5 -53.5q-75 0 -128.5 53.5t-53.5 128.5zM399 295 q0 -42 38 -61t91 -19q45 0 86.5 14t59.5 39v56q-18 25 -59.5 39t-86.5 14q-53 0 -91 -20t-38 -62z" />
<glyph unicode="&#x1eae;" horiz-adv-x="1454" d="M-37 0l504 1366h520l504 -1366h-469l-49 160h-492l-49 -160h-469zM367 1493l155 63q75 -55 205 -55q128 0 205 55l153 -63q-134 -90 -358 -90q-107 0 -201.5 24t-158.5 66zM592 520h270l-135 441zM592 1542l246 148h317l-317 -148h-246z" />
<glyph unicode="&#x1eaf;" horiz-adv-x="1144" d="M35 301q0 71 21.5 127t55.5 90.5t80 57t91 31.5t92 9q98 0 179 -29t120 -79v102q0 54 -48.5 88.5t-136.5 34.5q-69 0 -142 -26t-132 -70l-125 227q94 75 219.5 112.5t247.5 37.5q78 0 145 -11.5t131.5 -40.5t109 -74.5t72 -119.5t27.5 -170v-598h-368v94 q-41 -53 -124 -86t-175 -33q-58 0 -116 20t-109 58t-83 103t-32 145zM205 1227l155 127q78 -109 205 -109q129 0 205 109l154 -127q-62 -84 -156 -132t-203 -48q-107 0 -201.5 48t-158.5 132zM399 295q0 -42 38 -61t91 -19q45 0 86.5 14t59.5 39v56q-18 25 -59.5 39 t-86.5 14q-53 0 -91 -20t-38 -62zM434 1323l246 295h317l-317 -295h-246z" />
<glyph unicode="&#x1eb0;" horiz-adv-x="1454" d="M-37 0l504 1366h520l504 -1366h-469l-49 160h-492l-49 -160h-469zM303 1690h318l245 -148h-245zM367 1483l155 63q75 -55 205 -55q128 0 205 55l153 -63q-134 -90 -358 -90q-107 0 -201.5 24t-158.5 66zM592 520h270l-135 441z" />
<glyph unicode="&#x1eb1;" horiz-adv-x="1144" d="M35 301q0 71 21.5 127t55.5 90.5t80 57t91 31.5t92 9q98 0 179 -29t120 -79v102q0 54 -48.5 88.5t-136.5 34.5q-69 0 -142 -26t-132 -70l-125 227q94 75 219.5 112.5t247.5 37.5q78 0 145 -11.5t131.5 -40.5t109 -74.5t72 -119.5t27.5 -170v-598h-368v94 q-41 -53 -124 -86t-175 -33q-58 0 -116 20t-109 58t-83 103t-32 145zM137 1618h318l245 -295h-245zM205 1227l155 127q78 -109 205 -109q129 0 205 109l154 -127q-62 -84 -156 -132t-203 -48q-107 0 -201.5 48t-158.5 132zM399 295q0 -42 38 -61t91 -19q45 0 86.5 14 t59.5 39v56q-18 25 -59.5 39t-86.5 14q-53 0 -91 -20t-38 -62z" />
<glyph unicode="&#x1eb2;" horiz-adv-x="1454" d="M-37 0l504 1366h520l504 -1366h-469l-49 160h-492l-49 -160h-469zM367 1483l155 63q75 -55 205 -55q128 0 205 55l153 -63q-134 -90 -358 -90q-107 0 -201.5 24t-158.5 66zM549 1610q42 59 176 59q77 0 128.5 -19.5t51.5 -58.5q0 -22 -24 -49h-144q35 20 35 45 q0 14 -14.5 20.5t-32.5 6.5q-36 0 -57 -25zM592 520h270l-135 441z" />
<glyph unicode="&#x1eb3;" horiz-adv-x="1144" d="M35 301q0 71 21.5 127t55.5 90.5t80 57t91 31.5t92 9q98 0 179 -29t120 -79v102q0 54 -48.5 88.5t-136.5 34.5q-69 0 -142 -26t-132 -70l-125 227q94 75 219.5 112.5t247.5 37.5q78 0 145 -11.5t131.5 -40.5t109 -74.5t72 -119.5t27.5 -170v-598h-368v94 q-41 -53 -124 -86t-175 -33q-58 0 -116 20t-109 58t-83 103t-32 145zM205 1227l155 127q78 -109 205 -109q129 0 205 109l154 -127q-62 -84 -156 -132t-203 -48q-107 0 -201.5 48t-158.5 132zM389 1479q21 60 68 89t108 29q77 0 128.5 -38t51.5 -115q0 -45 -24 -98h-143 q34 37 34 90q0 27 -14.5 39t-32.5 12q-38 0 -57 -47zM399 295q0 -42 38 -61t91 -19q45 0 86.5 14t59.5 39v56q-18 25 -59.5 39t-86.5 14q-53 0 -91 -20t-38 -62z" />
<glyph unicode="&#x1eb4;" horiz-adv-x="1454" d="M-37 0l504 1366h520l504 -1366h-469l-49 160h-492l-49 -160h-469zM369 1477l155 63q75 -55 205 -55q128 0 205 55l153 -63q-136 -91 -358 -91q-107 0 -201.5 24.5t-158.5 66.5zM377 1556q0 138 241 138q72 0 139.5 -22.5t86.5 -22.5q49 0 49 39h182q0 -138 -241 -138 q-72 0 -140 21.5t-86 21.5q-21 0 -35 -9.5t-14 -27.5h-182zM592 520h270l-135 441z" />
<glyph unicode="&#x1eb5;" horiz-adv-x="1144" d="M35 301q0 71 21.5 127t55.5 90.5t80 57t91 31.5t92 9q98 0 179 -29t120 -79v102q0 54 -48.5 88.5t-136.5 34.5q-69 0 -142 -26t-132 -70l-125 227q94 75 219.5 112.5t247.5 37.5q78 0 145 -11.5t131.5 -40.5t109 -74.5t72 -119.5t27.5 -170v-598h-368v94 q-41 -53 -124 -86t-175 -33q-58 0 -116 20t-109 58t-83 103t-32 145zM205 1227l155 127q78 -109 205 -109q129 0 205 109l154 -127q-62 -84 -156 -132t-203 -48q-107 0 -201.5 48t-158.5 132zM205 1364q0 274 241 274q43 0 81 -14t59.5 -30t44.5 -30t41 -14q21 0 35 19.5 t14 56.5h182q0 -274 -241 -274q-43 0 -81 14t-59.5 30t-44.5 30t-41 14q-21 0 -35 -19.5t-14 -56.5h-182zM399 295q0 -42 38 -61t91 -19q45 0 86.5 14t59.5 39v56q-18 25 -59.5 39t-86.5 14q-53 0 -91 -20t-38 -62z" />
<glyph unicode="&#x1eb6;" horiz-adv-x="1454" d="M-37 0l504 1366h520l504 -1366h-469l-49 160h-492l-49 -160h-469zM367 1595l155 127q77 -108 205 -108q129 0 205 108l153 -127q-62 -84 -155.5 -132t-202.5 -48q-107 0 -201.5 48t-158.5 132zM547 -246q0 75 53.5 129t128.5 54q74 0 127 -54t53 -129t-53 -128.5 t-127 -53.5q-75 0 -128.5 53.5t-53.5 128.5zM592 520h270l-135 441z" />
<glyph unicode="&#x1eb7;" horiz-adv-x="1144" d="M35 301q0 71 21.5 127t55.5 90.5t80 57t91 31.5t92 9q98 0 179 -29t120 -79v102q0 54 -48.5 88.5t-136.5 34.5q-69 0 -142 -26t-132 -70l-125 227q94 75 219.5 112.5t247.5 37.5q78 0 145 -11.5t131.5 -40.5t109 -74.5t72 -119.5t27.5 -170v-598h-368v94 q-41 -53 -124 -86t-175 -33q-58 0 -116 20t-109 58t-83 103t-32 145zM205 1253l155 127q77 -108 205 -108q129 0 205 108l154 -127q-62 -84 -156 -132t-203 -48q-107 0 -201.5 48t-158.5 132zM391 -246q0 75 53.5 129t128.5 54q74 0 127.5 -54t53.5 -129t-53.5 -128.5 t-127.5 -53.5q-75 0 -128.5 53.5t-53.5 128.5zM399 295q0 -42 38 -61t91 -19q45 0 86.5 14t59.5 39v56q-18 25 -59.5 39t-86.5 14q-53 0 -91 -20t-38 -62z" />
<glyph unicode="&#x1eb8;" d="M111 0v1366h1036v-360h-623v-136h609v-360h-609v-150h623v-360h-1036zM444 -246q0 75 54 129t129 54q74 0 127 -54t53 -129t-53 -128.5t-127 -53.5q-75 0 -129 53.5t-54 128.5z" />
<glyph unicode="&#x1eb9;" horiz-adv-x="1112" d="M35 496q0 107 39.5 202t109.5 165t171 110.5t218 40.5q224 0 369 -151t145 -406v-76h-671q16 -52 72 -88.5t141 -36.5q48 0 120.5 20t106.5 50l152 -228q-70 -60 -187 -91.5t-235 -31.5q-155 0 -279.5 61.5t-198 181t-73.5 278.5zM395 -246q0 75 54 129t129 54 q74 0 127 -54t53 -129t-53 -128.5t-127 -53.5q-75 0 -129 53.5t-54 128.5zM412 614h325q-5 19 -14 37t-26.5 38t-49.5 32t-74 12q-129 0 -161 -119z" />
<glyph unicode="&#x1eba;" d="M111 0v1366h1036v-360h-623v-136h609v-360h-609v-150h623v-360h-1036zM432 1561q21 60 68 89t108 29q77 0 128.5 -38t51.5 -115q0 -46 -24 -99h-143q34 37 34 91q0 27 -14.5 39t-32.5 12q-38 0 -57 -47z" />
<glyph unicode="&#x1ebb;" horiz-adv-x="1112" d="M35 496q0 107 39.5 202t109.5 165t171 110.5t218 40.5q224 0 369 -151t145 -406v-76h-671q16 -52 72 -88.5t141 -36.5q48 0 120.5 20t106.5 50l152 -228q-70 -60 -187 -91.5t-235 -31.5q-155 0 -279.5 61.5t-198 181t-73.5 278.5zM377 1212q21 60 68 89.5t108 29.5 q77 0 128.5 -38t51.5 -115q0 -46 -24 -99h-144q35 38 35 90q0 27 -14.5 39.5t-32.5 12.5q-38 0 -57 -47zM412 614h325q-5 19 -14 37t-26.5 38t-49.5 32t-74 12q-129 0 -161 -119z" />
<glyph unicode="&#x1ebc;" d="M111 0v1366h1036v-360h-623v-136h609v-360h-609v-150h623v-360h-1036zM311 1489q0 274 242 274q55 0 99 -22t74.5 -44t51.5 -22t35 19.5t14 56.5h183q0 -274 -242 -274q-43 0 -80.5 13.5t-59 30.5t-44.5 30.5t-41 13.5q-21 0 -35 -19.5t-14 -56.5h-183z" />
<glyph unicode="&#x1ebd;" horiz-adv-x="1112" d="M35 496q0 107 39.5 202t109.5 165t171 110.5t218 40.5q224 0 369 -151t145 -406v-76h-671q16 -52 72 -88.5t141 -36.5q48 0 120.5 20t106.5 50l152 -228q-70 -60 -187 -91.5t-235 -31.5q-155 0 -279.5 61.5t-198 181t-73.5 278.5zM207 1147q0 274 242 274q55 0 99 -22 t74.5 -44t51.5 -22t35 19.5t14 56.5h182q0 -274 -241 -274q-43 0 -81 13.5t-59.5 30.5t-44.5 30.5t-41 13.5q-21 0 -35 -19.5t-14 -56.5h-182zM412 614h325q-5 19 -14 37t-26.5 38t-49.5 32t-74 12q-129 0 -161 -119z" />
<glyph unicode="&#x1ebe;" d="M111 0v1366h1036v-360h-623v-136h609v-360h-609v-150h623v-360h-1036zM299 1397l180 221h320l186 -221h-215l-131 112l-125 -112h-215zM913 1505l246 221h318l-318 -221h-246z" />
<glyph unicode="&#x1ebf;" horiz-adv-x="1112" d="M35 496q0 107 39.5 202t109.5 165t171 110.5t218 40.5q224 0 369 -151t145 -406v-76h-671q16 -52 72 -88.5t141 -36.5q48 0 120.5 20t106.5 50l152 -228q-70 -60 -187 -91.5t-235 -31.5q-155 0 -279.5 61.5t-198 181t-73.5 278.5zM227 1139l181 295h319l186 -295h-215 l-131 149l-125 -149h-215zM412 614h325q-5 19 -14 37t-26.5 38t-49.5 32t-74 12q-129 0 -161 -119zM827 1282l246 295h318l-318 -295h-246z" />
<glyph unicode="&#x1ec0;" d="M-182 1726h317l246 -221h-246zM111 0v1366h1036v-360h-623v-136h609v-360h-609v-150h623v-360h-1036zM305 1397l180 221h320l186 -221h-215l-131 112l-125 -112h-215z" />
<glyph unicode="&#x1ec1;" horiz-adv-x="1112" d="M-262 1577h317l246 -295h-246zM35 496q0 107 39.5 202t109.5 165t171 110.5t218 40.5q224 0 369 -151t145 -406v-76h-671q16 -52 72 -88.5t141 -36.5q48 0 120.5 20t106.5 50l152 -228q-70 -60 -187 -91.5t-235 -31.5q-155 0 -279.5 61.5t-198 181t-73.5 278.5zM227 1139 l181 295h319l186 -295h-215l-131 149l-125 -149h-215zM412 614h325q-5 19 -14 37t-26.5 38t-49.5 32t-74 12q-129 0 -161 -119z" />
<glyph unicode="&#x1ec2;" d="M111 0v1366h1036v-360h-623v-136h609v-360h-609v-150h623v-360h-1036zM295 1397l180 221h320l186 -221h-215l-131 112l-125 -112h-215zM827 1626q41 88 177 88q77 0 128.5 -28.5t51.5 -86.5q0 -32 -25 -73h-143q35 28 35 67q0 20 -14.5 29.5t-32.5 9.5q-39 0 -58 -35z " />
<glyph unicode="&#x1ec3;" horiz-adv-x="1112" d="M35 496q0 107 39.5 202t109.5 165t171 110.5t218 40.5q224 0 369 -151t145 -406v-76h-671q16 -52 72 -88.5t141 -36.5q48 0 120.5 20t106.5 50l152 -228q-70 -60 -187 -91.5t-235 -31.5q-155 0 -279.5 61.5t-198 181t-73.5 278.5zM227 1139l181 295h319l186 -295h-215 l-131 149l-125 -149h-215zM412 614h325q-5 19 -14 37t-26.5 38t-49.5 32t-74 12q-129 0 -161 -119zM635 1499q21 60 68 89.5t108 29.5q77 0 128.5 -38.5t51.5 -115.5q0 -45 -24 -98h-144q35 38 35 90q0 27 -14.5 39t-32.5 12q-38 0 -57 -47z" />
<glyph unicode="&#x1ec4;" d="M111 0v1366h1036v-360h-623v-136h609v-360h-609v-150h623v-360h-1036zM287 1556q0 138 241 138q72 0 140 -22.5t86 -22.5q49 0 49 39h182q0 -138 -242 -138q-73 0 -140 21.5t-85 21.5q-21 0 -35 -9.5t-14 -27.5h-182zM297 1389l180 147h320l186 -147h-215l-131 73 l-125 -73h-215z" />
<glyph unicode="&#x1ec5;" horiz-adv-x="1112" d="M35 496q0 107 39.5 202t109.5 165t171 110.5t218 40.5q224 0 369 -151t145 -406v-76h-671q16 -52 72 -88.5t141 -36.5q48 0 120.5 20t106.5 50l152 -228q-70 -60 -187 -91.5t-235 -31.5q-155 0 -279.5 61.5t-198 181t-73.5 278.5zM223 1409q0 274 242 274q55 0 99 -22 t74.5 -44t51.5 -22t35 19.5t14 56.5h183q0 -274 -242 -274q-43 0 -80.5 13.5t-59 30.5t-44.5 30.5t-41 13.5q-21 0 -35 -19.5t-14 -56.5h-183zM227 1071l181 295h319l186 -295h-215l-131 150l-125 -150h-215zM412 614h325q-5 19 -14 37t-26.5 38t-49.5 32t-74 12 q-129 0 -161 -119z" />
<glyph unicode="&#x1ec6;" d="M111 0v1366h1036v-360h-623v-136h609v-360h-609v-150h623v-360h-1036zM287 1481l180 295h319l187 -295h-215l-131 149l-125 -149h-215zM444 -246q0 75 54 129t129 54q74 0 127 -54t53 -129t-53 -128.5t-127 -53.5q-75 0 -129 53.5t-54 128.5z" />
<glyph unicode="&#x1ec7;" horiz-adv-x="1112" d="M35 496q0 107 39.5 202t109.5 165t171 110.5t218 40.5q224 0 369 -151t145 -406v-76h-671q16 -52 72 -88.5t141 -36.5q48 0 120.5 20t106.5 50l152 -228q-70 -60 -187 -91.5t-235 -31.5q-155 0 -279.5 61.5t-198 181t-73.5 278.5zM233 1139l181 295h319l187 -295h-215 l-132 149l-124 -149h-216zM395 -246q0 75 54 129t129 54q74 0 127 -54t53 -129t-53 -128.5t-127 -53.5q-75 0 -129 53.5t-54 128.5zM412 614h325q-5 19 -14 37t-26.5 38t-49.5 32t-74 12q-129 0 -161 -119z" />
<glyph unicode="&#x1ec8;" horiz-adv-x="634" d="M111 0v1366h413v-1366h-413zM139 1561q21 60 68 89t108 29q77 0 129 -38t52 -115q0 -44 -25 -99h-143q34 37 34 91q0 27 -14.5 39t-32.5 12q-38 0 -57 -47z" />
<glyph unicode="&#x1ec9;" horiz-adv-x="573" d="M102 0v989h369v-989h-369zM109 1212q21 60 68 89.5t108 29.5q77 0 128.5 -38t51.5 -115q0 -44 -25 -99h-143q35 38 35 90q0 27 -14.5 39.5t-32.5 12.5q-39 0 -58 -47z" />
<glyph unicode="&#x1eca;" horiz-adv-x="634" d="M111 0v1366h413v-1366h-413zM143 -246q0 75 54 129t129 54q74 0 127 -54t53 -129t-53 -128.5t-127 -53.5q-75 0 -129 53.5t-54 128.5z" />
<glyph unicode="&#x1ecb;" horiz-adv-x="573" d="M80 1268q0 86 60.5 146.5t146.5 60.5t146.5 -60.5t60.5 -146.5t-60.5 -146.5t-146.5 -60.5t-146.5 60.5t-60.5 146.5zM102 0v989h369v-989h-369zM111 -246q0 75 53.5 129t128.5 54q74 0 127 -54t53 -129t-53 -128.5t-127 -53.5q-75 0 -128.5 53.5t-53.5 128.5z" />
<glyph unicode="&#x1ecc;" horiz-adv-x="1568" d="M37 682q0 155 57.5 287.5t157.5 224t237.5 143.5t294.5 52t295 -52t237.5 -143.5t157.5 -224t58 -287.5t-58 -287.5t-157.5 -224t-237.5 -143.5t-295 -52t-294.5 52t-237.5 143.5t-157.5 224t-57.5 287.5zM457 682q0 -146 90.5 -244t236.5 -98t237 98t91 244t-91 244 t-237 98t-236.5 -98t-90.5 -244zM606 -246q0 75 53.5 129t128.5 54q74 0 127.5 -54t53.5 -129t-53.5 -128.5t-127.5 -53.5q-75 0 -128.5 53.5t-53.5 128.5z" />
<glyph unicode="&#x1ecd;" horiz-adv-x="1181" d="M35 496q0 104 38 197.5t107.5 165t175.5 113.5t234 42t235 -42t176.5 -113.5t107.5 -165t38 -197.5t-38 -198t-107.5 -166t-176.5 -114.5t-235 -42.5t-234 42.5t-175.5 114.5t-107.5 166t-38 198zM412 -246q0 75 53.5 129t128.5 54q74 0 127 -54t53 -129t-53 -128.5 t-127 -53.5q-75 0 -128.5 53.5t-53.5 128.5zM414 496q0 -86 46.5 -140.5t129.5 -54.5q84 0 131 54.5t47 140.5q0 85 -47 138.5t-131 53.5q-82 0 -129 -54t-47 -138z" />
<glyph unicode="&#x1ece;" horiz-adv-x="1568" d="M37 682q0 155 57.5 287.5t157.5 224t237.5 143.5t294.5 52t295 -52t237.5 -143.5t157.5 -224t58 -287.5t-58 -287.5t-157.5 -224t-237.5 -143.5t-295 -52t-294.5 52t-237.5 143.5t-157.5 224t-57.5 287.5zM457 682q0 -146 90.5 -244t236.5 -98t237 98t91 244t-91 244 t-237 98t-236.5 -98t-90.5 -244zM600 1561q21 60 68 89t108 29q77 0 128.5 -38t51.5 -115q0 -46 -24 -99h-144q35 38 35 91q0 27 -14.5 39t-32.5 12q-38 0 -57 -47z" />
<glyph unicode="&#x1ecf;" horiz-adv-x="1181" d="M35 496q0 104 38 197.5t107.5 165t175.5 113.5t234 42t235 -42t176.5 -113.5t107.5 -165t38 -197.5t-38 -198t-107.5 -166t-176.5 -114.5t-235 -42.5t-234 42.5t-175.5 114.5t-107.5 166t-38 198zM414 496q0 -86 46.5 -140.5t129.5 -54.5q84 0 131 54.5t47 140.5 q0 85 -47 138.5t-131 53.5q-82 0 -129 -54t-47 -138zM414 1212q21 60 68 89.5t108 29.5q77 0 128.5 -38t51.5 -115q0 -44 -25 -99h-143q35 38 35 90q0 27 -14.5 39.5t-32.5 12.5q-39 0 -58 -47z" />
<glyph unicode="&#x1ed0;" horiz-adv-x="1568" d="M37 682q0 155 57.5 287.5t157.5 224t237.5 143.5t294.5 52t295 -52t237.5 -143.5t157.5 -224t58 -287.5t-58 -287.5t-157.5 -224t-237.5 -143.5t-295 -52t-294.5 52t-237.5 143.5t-157.5 224t-57.5 287.5zM432 1397l180 221h320l186 -221h-215l-131 112l-125 -112h-215z M457 682q0 -146 90.5 -244t236.5 -98t237 98t91 244t-91 244t-237 98t-236.5 -98t-90.5 -244zM1047 1505l245 221h318l-318 -221h-245z" />
<glyph unicode="&#x1ed1;" horiz-adv-x="1181" d="M35 496q0 104 38 197.5t107.5 165t175.5 113.5t234 42t235 -42t176.5 -113.5t107.5 -165t38 -197.5t-38 -198t-107.5 -166t-176.5 -114.5t-235 -42.5t-234 42.5t-175.5 114.5t-107.5 166t-38 198zM248 1139l180 295h320l186 -295h-215l-131 149l-125 -149h-215zM414 496 q0 -86 46.5 -140.5t129.5 -54.5q84 0 131 54.5t47 140.5q0 85 -47 138.5t-131 53.5q-82 0 -129 -54t-47 -138zM848 1282l246 295h317l-317 -295h-246z" />
<glyph unicode="&#x1ed2;" horiz-adv-x="1568" d="M-57 1726h317l246 -221h-246zM37 682q0 155 57.5 287.5t157.5 224t237.5 143.5t294.5 52t295 -52t237.5 -143.5t157.5 -224t58 -287.5t-58 -287.5t-157.5 -224t-237.5 -143.5t-295 -52t-294.5 52t-237.5 143.5t-157.5 224t-57.5 287.5zM430 1397l180 221h320l186 -221 h-215l-131 112l-125 -112h-215zM457 682q0 -146 90.5 -244t236.5 -98t237 98t91 244t-91 244t-237 98t-236.5 -98t-90.5 -244z" />
<glyph unicode="&#x1ed3;" horiz-adv-x="1181" d="M-242 1577h318l246 -295h-246zM35 496q0 104 38 197.5t107.5 165t175.5 113.5t234 42t235 -42t176.5 -113.5t107.5 -165t38 -197.5t-38 -198t-107.5 -166t-176.5 -114.5t-235 -42.5t-234 42.5t-175.5 114.5t-107.5 166t-38 198zM248 1139l180 295h320l186 -295h-215 l-131 149l-125 -149h-215zM414 496q0 -86 46.5 -140.5t129.5 -54.5q84 0 131 54.5t47 140.5q0 85 -47 138.5t-131 53.5q-82 0 -129 -54t-47 -138z" />
<glyph unicode="&#x1ed4;" horiz-adv-x="1568" d="M37 682q0 155 57.5 287.5t157.5 224t237.5 143.5t294.5 52t295 -52t237.5 -143.5t157.5 -224t58 -287.5t-58 -287.5t-157.5 -224t-237.5 -143.5t-295 -52t-294.5 52t-237.5 143.5t-157.5 224t-57.5 287.5zM438 1397l180 221h320l186 -221h-215l-131 112l-125 -112h-215z M457 682q0 -146 90.5 -244t236.5 -98t237 98t91 244t-91 244t-237 98t-236.5 -98t-90.5 -244zM971 1626q41 88 176 88q77 0 128.5 -28.5t51.5 -86.5q0 -34 -24 -73h-144q35 28 35 67q0 20 -14.5 29.5t-32.5 9.5q-38 0 -57 -35z" />
<glyph unicode="&#x1ed5;" horiz-adv-x="1181" d="M35 496q0 104 38 197.5t107.5 165t175.5 113.5t234 42t235 -42t176.5 -113.5t107.5 -165t38 -197.5t-38 -198t-107.5 -166t-176.5 -114.5t-235 -42.5t-234 42.5t-175.5 114.5t-107.5 166t-38 198zM246 1139l180 295h319l187 -295h-215l-131 149l-125 -149h-215zM414 496 q0 -86 46.5 -140.5t129.5 -54.5q84 0 131 54.5t47 140.5q0 85 -47 138.5t-131 53.5q-82 0 -129 -54t-47 -138zM653 1499q21 60 68 89.5t108 29.5q77 0 129 -38.5t52 -115.5q0 -43 -25 -98h-143q35 38 35 90q0 26 -15 38.5t-33 12.5q-38 0 -57 -47z" />
<glyph unicode="&#x1ed6;" horiz-adv-x="1568" d="M37 682q0 155 57.5 287.5t157.5 224t237.5 143.5t294.5 52t295 -52t237.5 -143.5t157.5 -224t58 -287.5t-58 -287.5t-157.5 -224t-237.5 -143.5t-295 -52t-294.5 52t-237.5 143.5t-157.5 224t-57.5 287.5zM426 1556q0 138 242 138q72 0 139 -22.5t86 -22.5q49 0 49 39 h182q0 -138 -241 -138q-73 0 -140 21.5t-86 21.5q-21 0 -35 -9.5t-14 -27.5h-182zM436 1389l180 147h320l186 -147h-215l-131 73l-125 -73h-215zM457 682q0 -146 90.5 -244t236.5 -98t237 98t91 244t-91 244t-237 98t-236.5 -98t-90.5 -244z" />
<glyph unicode="&#x1ed7;" horiz-adv-x="1181" d="M35 496q0 104 38 197.5t107.5 165t175.5 113.5t234 42t235 -42t176.5 -113.5t107.5 -165t38 -197.5t-38 -198t-107.5 -166t-176.5 -114.5t-235 -42.5t-234 42.5t-175.5 114.5t-107.5 166t-38 198zM242 1409q0 274 241 274q43 0 81 -13.5t59.5 -30.5t44.5 -30.5t41 -13.5 q21 0 35 19.5t14 56.5h182q0 -274 -242 -274q-43 0 -80.5 13.5t-59 30.5t-44.5 30.5t-41 13.5q-21 0 -35 -19.5t-14 -56.5h-182zM246 1071l180 295h319l187 -295h-215l-131 150l-125 -150h-215zM414 496q0 -86 46.5 -140.5t129.5 -54.5q84 0 131 54.5t47 140.5 q0 85 -47 138.5t-131 53.5q-82 0 -129 -54t-47 -138z" />
<glyph unicode="&#x1ed8;" horiz-adv-x="1568" d="M37 682q0 155 57.5 287.5t157.5 224t237.5 143.5t294.5 52t295 -52t237.5 -143.5t157.5 -224t58 -287.5t-58 -287.5t-157.5 -224t-237.5 -143.5t-295 -52t-294.5 52t-237.5 143.5t-157.5 224t-57.5 287.5zM449 1481l180 295h319l187 -295h-215l-132 149l-124 -149h-215z M457 682q0 -146 90.5 -244t236.5 -98t237 98t91 244t-91 244t-237 98t-236.5 -98t-90.5 -244zM606 -246q0 75 53.5 129t128.5 54q74 0 127.5 -54t53.5 -129t-53.5 -128.5t-127.5 -53.5q-75 0 -128.5 53.5t-53.5 128.5z" />
<glyph unicode="&#x1ed9;" horiz-adv-x="1181" d="M35 496q0 104 38 197.5t107.5 165t175.5 113.5t234 42t235 -42t176.5 -113.5t107.5 -165t38 -197.5t-38 -198t-107.5 -166t-176.5 -114.5t-235 -42.5t-234 42.5t-175.5 114.5t-107.5 166t-38 198zM248 1139l180 295h320l186 -295h-215l-131 149l-125 -149h-215zM412 -246 q0 75 53.5 129t128.5 54q74 0 127 -54t53 -129t-53 -128.5t-127 -53.5q-75 0 -128.5 53.5t-53.5 128.5zM414 496q0 -86 46.5 -140.5t129.5 -54.5q84 0 131 54.5t47 140.5q0 85 -47 138.5t-131 53.5q-82 0 -129 -54t-47 -138z" />
<glyph unicode="&#x1eda;" horiz-adv-x="1568" d="M37 682q0 155 57.5 287.5t157.5 224t237.5 143.5t294.5 52q164 0 307.5 -57t245.5 -161q65 50 86 109q-9 -6 -34 -6q-50 0 -83.5 34.5t-33.5 90.5q0 58 41 99.5t98 41.5q65 0 110.5 -47t45.5 -127q0 -83 -40.5 -156.5t-113.5 -128.5q119 -174 119 -399q0 -155 -58 -287.5 t-157.5 -224t-237.5 -143.5t-295 -52t-294.5 52t-237.5 143.5t-157.5 224t-57.5 287.5zM457 682q0 -146 90.5 -244t236.5 -98t237 98t91 244t-91 244t-237 98t-236.5 -98t-90.5 -244zM639 1481l246 295h317l-317 -295h-246z" />
<glyph unicode="&#x1edb;" horiz-adv-x="1181" d="M35 496q0 104 38 197.5t107.5 165t175.5 113.5t234 42q213 0 362 -113q66 51 86 107q-10 -7 -34 -7q-50 0 -83.5 34.5t-33.5 90.5q0 58 41 100t98 42q65 0 110.5 -47t45.5 -127q0 -159 -146 -279q111 -139 111 -319q0 -104 -38 -198t-107.5 -166t-176.5 -114.5 t-235 -42.5t-234 42.5t-175.5 114.5t-107.5 166t-38 198zM414 496q0 -86 46.5 -140.5t129.5 -54.5q84 0 131 54.5t47 140.5q0 85 -47 138.5t-131 53.5q-82 0 -129 -54t-47 -138zM446 1139l246 295h318l-318 -295h-246z" />
<glyph unicode="&#x1edc;" horiz-adv-x="1568" d="M37 682q0 155 57.5 287.5t157.5 224t237.5 143.5t294.5 52q164 0 307.5 -57t245.5 -161q65 50 86 109q-9 -6 -34 -6q-50 0 -83.5 34.5t-33.5 90.5q0 58 41 99.5t98 41.5q65 0 110.5 -47t45.5 -127q0 -83 -40.5 -156.5t-113.5 -128.5q119 -174 119 -399q0 -155 -58 -287.5 t-157.5 -224t-237.5 -143.5t-295 -52t-294.5 52t-237.5 143.5t-157.5 224t-57.5 287.5zM362 1776h318l246 -295h-246zM457 682q0 -146 90.5 -244t236.5 -98t237 98t91 244t-91 244t-237 98t-236.5 -98t-90.5 -244z" />
<glyph unicode="&#x1edd;" horiz-adv-x="1181" d="M35 496q0 104 38 197.5t107.5 165t175.5 113.5t234 42q213 0 362 -113q66 51 86 107q-10 -7 -34 -7q-50 0 -83.5 34.5t-33.5 90.5q0 58 41 100t98 42q65 0 110.5 -47t45.5 -127q0 -159 -146 -279q111 -139 111 -319q0 -104 -38 -198t-107.5 -166t-176.5 -114.5 t-235 -42.5t-234 42.5t-175.5 114.5t-107.5 166t-38 198zM168 1434h317l246 -295h-246zM414 496q0 -86 46.5 -140.5t129.5 -54.5q84 0 131 54.5t47 140.5q0 85 -47 138.5t-131 53.5q-82 0 -129 -54t-47 -138z" />
<glyph unicode="&#x1ede;" horiz-adv-x="1568" d="M37 682q0 155 57.5 287.5t157.5 224t237.5 143.5t294.5 52q164 0 307.5 -57t245.5 -161q65 50 86 109q-9 -6 -34 -6q-50 0 -83.5 34.5t-33.5 90.5q0 58 41 99.5t98 41.5q65 0 110.5 -47t45.5 -127q0 -83 -40.5 -156.5t-113.5 -128.5q119 -174 119 -399q0 -155 -58 -287.5 t-157.5 -224t-237.5 -143.5t-295 -52t-294.5 52t-237.5 143.5t-157.5 224t-57.5 287.5zM457 682q0 -146 90.5 -244t236.5 -98t237 98t91 244t-91 244t-237 98t-236.5 -98t-90.5 -244zM606 1561q21 60 68 89t108 29q77 0 129 -38t52 -115q0 -44 -25 -99h-143q34 37 34 91 q0 27 -14.5 39t-32.5 12q-38 0 -57 -47z" />
<glyph unicode="&#x1edf;" horiz-adv-x="1181" d="M35 496q0 104 38 197.5t107.5 165t175.5 113.5t234 42q213 0 362 -113q66 51 86 107q-10 -7 -34 -7q-50 0 -83.5 34.5t-33.5 90.5q0 58 41 100t98 42q65 0 110.5 -47t45.5 -127q0 -159 -146 -279q111 -139 111 -319q0 -104 -38 -198t-107.5 -166t-176.5 -114.5 t-235 -42.5t-234 42.5t-175.5 114.5t-107.5 166t-38 198zM412 1212q21 60 68 89.5t108 29.5q77 0 128.5 -38t51.5 -115q0 -44 -25 -99h-143q35 38 35 90q0 27 -14.5 39.5t-32.5 12.5q-39 0 -58 -47zM414 496q0 -86 46.5 -140.5t129.5 -54.5q84 0 131 54.5t47 140.5 q0 85 -47 138.5t-131 53.5q-82 0 -129 -54t-47 -138z" />
<glyph unicode="&#x1ee0;" horiz-adv-x="1568" d="M37 682q0 155 57.5 287.5t157.5 224t237.5 143.5t294.5 52q164 0 307.5 -57t245.5 -161q65 50 86 109q-9 -6 -34 -6q-50 0 -83.5 34.5t-33.5 90.5q0 58 41 99.5t98 41.5q65 0 110.5 -47t45.5 -127q0 -83 -40.5 -156.5t-113.5 -128.5q119 -174 119 -399q0 -155 -58 -287.5 t-157.5 -224t-237.5 -143.5t-295 -52t-294.5 52t-237.5 143.5t-157.5 224t-57.5 287.5zM436 1489q0 274 242 274q43 0 80.5 -13.5t59 -30.5t44.5 -30.5t41 -13.5q21 0 35 19.5t14 56.5h183q0 -274 -242 -274q-55 0 -99 22t-74.5 44t-51.5 22t-35.5 -19.5t-14.5 -56.5h-182z M457 682q0 -146 90.5 -244t236.5 -98t237 98t91 244t-91 244t-237 98t-236.5 -98t-90.5 -244z" />
<glyph unicode="&#x1ee1;" horiz-adv-x="1181" d="M35 496q0 104 38 197.5t107.5 165t175.5 113.5t234 42q213 0 362 -113q66 51 86 107q-10 -7 -34 -7q-50 0 -83.5 34.5t-33.5 90.5q0 58 41 100t98 42q65 0 110.5 -47t45.5 -127q0 -159 -146 -279q111 -139 111 -319q0 -104 -38 -198t-107.5 -166t-176.5 -114.5 t-235 -42.5t-234 42.5t-175.5 114.5t-107.5 166t-38 198zM201 1147q0 274 241 274q43 0 81 -13.5t59.5 -30.5t44.5 -30.5t41 -13.5q21 0 35 19.5t14 56.5h182q0 -274 -242 -274q-55 0 -99 22t-74.5 44t-51.5 22t-35 -19.5t-14 -56.5h-182zM414 496q0 -86 46.5 -140.5 t129.5 -54.5q84 0 131 54.5t47 140.5q0 85 -47 138.5t-131 53.5q-82 0 -129 -54t-47 -138z" />
<glyph unicode="&#x1ee2;" horiz-adv-x="1568" d="M37 682q0 155 57.5 287.5t157.5 224t237.5 143.5t294.5 52q164 0 307.5 -57t245.5 -161q65 50 86 109q-9 -6 -34 -6q-50 0 -83.5 34.5t-33.5 90.5q0 58 41 99.5t98 41.5q65 0 110.5 -47t45.5 -127q0 -83 -40.5 -156.5t-113.5 -128.5q119 -174 119 -399q0 -155 -58 -287.5 t-157.5 -224t-237.5 -143.5t-295 -52t-294.5 52t-237.5 143.5t-157.5 224t-57.5 287.5zM457 682q0 -146 90.5 -244t236.5 -98t237 98t91 244t-91 244t-237 98t-236.5 -98t-90.5 -244zM606 -246q0 75 53.5 129t128.5 54q74 0 127.5 -54t53.5 -129t-53.5 -128.5t-127.5 -53.5 q-75 0 -128.5 53.5t-53.5 128.5z" />
<glyph unicode="&#x1ee3;" horiz-adv-x="1181" d="M35 496q0 104 38 197.5t107.5 165t175.5 113.5t234 42q213 0 362 -113q66 51 86 107q-10 -7 -34 -7q-50 0 -83.5 34.5t-33.5 90.5q0 58 41 100t98 42q65 0 110.5 -47t45.5 -127q0 -159 -146 -279q111 -139 111 -319q0 -104 -38 -198t-107.5 -166t-176.5 -114.5 t-235 -42.5t-234 42.5t-175.5 114.5t-107.5 166t-38 198zM412 -246q0 75 53.5 129t128.5 54q74 0 127 -54t53 -129t-53 -128.5t-127 -53.5q-75 0 -128.5 53.5t-53.5 128.5zM414 496q0 -86 46.5 -140.5t129.5 -54.5q84 0 131 54.5t47 140.5q0 85 -47 138.5t-131 53.5 q-82 0 -129 -54t-47 -138z" />
<glyph unicode="&#x1ee4;" horiz-adv-x="1570" d="M111 561v805h419v-791q0 -103 66.5 -169t189.5 -66q121 0 187.5 66t66.5 169v791h420v-803q0 -129 -41 -235.5t-122.5 -186t-211.5 -123t-299 -43.5t-299.5 43.5t-211.5 123t-122.5 185t-41.5 234.5zM610 -246q0 75 54 129t129 54q74 0 127 -54t53 -129t-53 -128.5 t-127 -53.5q-75 0 -129 53.5t-54 128.5z" />
<glyph unicode="&#x1ee5;" horiz-adv-x="1241" d="M102 283v706h369v-549q0 -139 143 -139q38 0 70.5 13.5t49 27.5t36.5 37v610h369v-989h-369v111q-51 -57 -136 -96.5t-204 -39.5q-163 0 -245.5 86t-82.5 222zM442 -246q0 75 54 129t129 54q74 0 127 -54t53 -129t-53 -128.5t-127 -53.5q-75 0 -129 53.5t-54 128.5z" />
<glyph unicode="&#x1ee6;" horiz-adv-x="1570" d="M111 561v805h419v-791q0 -103 66.5 -169t189.5 -66q121 0 187.5 66t66.5 169v791h420v-803q0 -129 -41 -235.5t-122.5 -186t-211.5 -123t-299 -43.5t-299.5 43.5t-211.5 123t-122.5 185t-41.5 234.5zM606 1561q21 60 68 89t108 29q77 0 129 -38t52 -115q0 -44 -25 -99 h-143q34 37 34 91q0 27 -14.5 39t-32.5 12q-38 0 -57 -47z" />
<glyph unicode="&#x1ee7;" horiz-adv-x="1241" d="M102 283v706h369v-549q0 -139 143 -139q38 0 70.5 13.5t49 27.5t36.5 37v610h369v-989h-369v111q-51 -57 -136 -96.5t-204 -39.5q-163 0 -245.5 86t-82.5 222zM442 1212q21 60 68 89.5t108 29.5q77 0 129 -38t52 -115q0 -44 -25 -99h-143q35 38 35 90q0 27 -15 39.5 t-33 12.5q-38 0 -57 -47z" />
<glyph unicode="&#x1ee8;" horiz-adv-x="1570" d="M111 561v805h419v-791q0 -103 66.5 -169t189.5 -66q121 0 187.5 66t66.5 169v791h420v-61q54 50 70 94q-9 -6 -35 -6q-50 0 -83.5 34.5t-33.5 90.5q0 58 41.5 99.5t98.5 41.5q65 0 110 -47t45 -127q0 -91 -54 -179.5t-159 -144.5v-598q0 -129 -41 -235.5t-122.5 -186 t-211.5 -123t-299 -43.5t-299.5 43.5t-211.5 123t-122.5 185t-41.5 234.5zM645 1481l246 295h317l-317 -295h-246z" />
<glyph unicode="&#x1ee9;" horiz-adv-x="1241" d="M102 283v706h369v-549q0 -139 143 -139q38 0 70.5 13.5t49 27.5t36.5 37v610h334q24 27 37 60q-11 -7 -35 -7q-50 0 -83.5 34.5t-33.5 90.5q0 58 41 100t98 42q65 0 110.5 -47t45.5 -127q0 -73 -36.5 -148.5t-108.5 -132.5v-854h-369v111q-51 -57 -136 -96.5t-204 -39.5 q-163 0 -245.5 86t-82.5 222zM477 1139l246 295h317l-317 -295h-246z" />
<glyph unicode="&#x1eea;" horiz-adv-x="1570" d="M111 561v805h419v-791q0 -103 66.5 -169t189.5 -66q121 0 187.5 66t66.5 169v791h420v-61q54 50 70 94q-9 -6 -35 -6q-50 0 -83.5 34.5t-33.5 90.5q0 58 41.5 99.5t98.5 41.5q65 0 110 -47t45 -127q0 -91 -54 -179.5t-159 -144.5v-598q0 -129 -41 -235.5t-122.5 -186 t-211.5 -123t-299 -43.5t-299.5 43.5t-211.5 123t-122.5 185t-41.5 234.5zM362 1776h318l246 -295h-246z" />
<glyph unicode="&#x1eeb;" horiz-adv-x="1241" d="M102 283v706h369v-549q0 -139 143 -139q38 0 70.5 13.5t49 27.5t36.5 37v610h334q24 27 37 60q-11 -7 -35 -7q-50 0 -83.5 34.5t-33.5 90.5q0 58 41 100t98 42q65 0 110.5 -47t45.5 -127q0 -73 -36.5 -148.5t-108.5 -132.5v-854h-369v111q-51 -57 -136 -96.5t-204 -39.5 q-163 0 -245.5 86t-82.5 222zM199 1434h317l246 -295h-246z" />
<glyph unicode="&#x1eec;" horiz-adv-x="1570" d="M111 561v805h419v-791q0 -103 66.5 -169t189.5 -66q121 0 187.5 66t66.5 169v791h420v-61q54 50 70 94q-9 -6 -35 -6q-50 0 -83.5 34.5t-33.5 90.5q0 58 41.5 99.5t98.5 41.5q65 0 110 -47t45 -127q0 -91 -54 -179.5t-159 -144.5v-598q0 -129 -41 -235.5t-122.5 -186 t-211.5 -123t-299 -43.5t-299.5 43.5t-211.5 123t-122.5 185t-41.5 234.5zM606 1561q21 60 68 89t108 29q77 0 129 -38t52 -115q0 -44 -25 -99h-143q34 37 34 91q0 27 -14.5 39t-32.5 12q-38 0 -57 -47z" />
<glyph unicode="&#x1eed;" horiz-adv-x="1241" d="M102 283v706h369v-549q0 -139 143 -139q38 0 70.5 13.5t49 27.5t36.5 37v610h334q24 27 37 60q-11 -7 -35 -7q-50 0 -83.5 34.5t-33.5 90.5q0 58 41 100t98 42q65 0 110.5 -47t45.5 -127q0 -73 -36.5 -148.5t-108.5 -132.5v-854h-369v111q-51 -57 -136 -96.5t-204 -39.5 q-163 0 -245.5 86t-82.5 222zM442 1212q21 60 68 89.5t108 29.5q77 0 129 -38t52 -115q0 -44 -25 -99h-143q35 38 35 90q0 27 -15 39.5t-33 12.5q-38 0 -57 -47z" />
<glyph unicode="&#x1eee;" horiz-adv-x="1570" d="M111 561v805h419v-791q0 -103 66.5 -169t189.5 -66q121 0 187.5 66t66.5 169v791h420v-61q54 50 70 94q-9 -6 -35 -6q-50 0 -83.5 34.5t-33.5 90.5q0 58 41.5 99.5t98.5 41.5q65 0 110 -47t45 -127q0 -91 -54 -179.5t-159 -144.5v-598q0 -129 -41 -235.5t-122.5 -186 t-211.5 -123t-299 -43.5t-299.5 43.5t-211.5 123t-122.5 185t-41.5 234.5zM436 1489q0 274 242 274q43 0 80.5 -13.5t59 -30.5t44.5 -30.5t41 -13.5q21 0 35 19.5t14 56.5h183q0 -274 -242 -274q-55 0 -99 22t-74.5 44t-51.5 22t-35.5 -19.5t-14.5 -56.5h-182z" />
<glyph unicode="&#x1eef;" horiz-adv-x="1241" d="M102 283v706h369v-549q0 -139 143 -139q38 0 70.5 13.5t49 27.5t36.5 37v610h334q24 27 37 60q-11 -7 -35 -7q-50 0 -83.5 34.5t-33.5 90.5q0 58 41 100t98 42q65 0 110.5 -47t45.5 -127q0 -73 -36.5 -148.5t-108.5 -132.5v-854h-369v111q-51 -57 -136 -96.5t-204 -39.5 q-163 0 -245.5 86t-82.5 222zM270 1147q0 274 242 274q43 0 80.5 -13.5t59 -30.5t44.5 -30.5t41 -13.5q21 0 35 19.5t14 56.5h183q0 -274 -242 -274q-55 0 -99 22t-74.5 44t-51.5 22t-35 -19.5t-14 -56.5h-183z" />
<glyph unicode="&#x1ef0;" horiz-adv-x="1570" d="M111 561v805h419v-791q0 -103 66.5 -169t189.5 -66q121 0 187.5 66t66.5 169v791h420v-61q54 50 70 94q-9 -6 -35 -6q-50 0 -83.5 34.5t-33.5 90.5q0 58 41.5 99.5t98.5 41.5q65 0 110 -47t45 -127q0 -91 -54 -179.5t-159 -144.5v-598q0 -129 -41 -235.5t-122.5 -186 t-211.5 -123t-299 -43.5t-299.5 43.5t-211.5 123t-122.5 185t-41.5 234.5zM610 -246q0 75 54 129t129 54q74 0 127 -54t53 -129t-53 -128.5t-127 -53.5q-75 0 -129 53.5t-54 128.5z" />
<glyph unicode="&#x1ef1;" horiz-adv-x="1241" d="M102 283v706h369v-549q0 -139 143 -139q38 0 70.5 13.5t49 27.5t36.5 37v610h334q24 27 37 60q-11 -7 -35 -7q-50 0 -83.5 34.5t-33.5 90.5q0 58 41 100t98 42q65 0 110.5 -47t45.5 -127q0 -73 -36.5 -148.5t-108.5 -132.5v-854h-369v111q-51 -57 -136 -96.5t-204 -39.5 q-163 0 -245.5 86t-82.5 222zM442 -246q0 75 54 129t129 54q74 0 127 -54t53 -129t-53 -128.5t-127 -53.5q-75 0 -129 53.5t-54 128.5z" />
<glyph unicode="&#x1ef2;" horiz-adv-x="1359" d="M-37 1366h465l254 -461l250 461h465l-508 -823v-543h-414v543zM260 1776h318l245 -295h-245z" />
<glyph unicode="&#x1ef3;" horiz-adv-x="1095" d="M-31 989h389l189 -565l190 565h389l-430 -1112q-32 -83 -78 -138.5t-108 -84.5t-125 -41t-149 -14q-88 0 -144 16l51 328q36 -19 78 -19q112 0 129 39l8 21zM121 1434h317l246 -295h-246z" />
<glyph unicode="&#x2000;" horiz-adv-x="932" />
<glyph unicode="&#x2001;" horiz-adv-x="1864" />
<glyph unicode="&#x2002;" horiz-adv-x="932" />
<glyph unicode="&#x2003;" horiz-adv-x="1864" />
<glyph unicode="&#x2004;" horiz-adv-x="621" />
<glyph unicode="&#x2005;" horiz-adv-x="466" />
<glyph unicode="&#x2006;" horiz-adv-x="310" />
<glyph unicode="&#x2007;" horiz-adv-x="310" />
<glyph unicode="&#x2008;" horiz-adv-x="233" />
<glyph unicode="&#x2009;" horiz-adv-x="104" />
<glyph unicode="&#x200a;" horiz-adv-x="103" />
<glyph unicode="&#x2010;" horiz-adv-x="614" d="M61 342v307h492v-307h-492z" />
<glyph unicode="&#x2011;" horiz-adv-x="614" d="M61 342v307h492v-307h-492z" />
<glyph unicode="&#x2012;" horiz-adv-x="614" d="M61 342v307h492v-307h-492z" />
<glyph unicode="&#x2013;" horiz-adv-x="1214" d="M61 342v307h1092v-307h-1092z" />
<glyph unicode="&#x2014;" horiz-adv-x="1705" d="M61 342v307h1584v-307h-1584z" />
<glyph unicode="&#x2015;" horiz-adv-x="1214" d="M61 342v307h1092v-307h-1092z" />
<glyph unicode="&#x2018;" horiz-adv-x="575" d="M61 938q0 133 67 249t189 202l150 -121q-52 -23 -109.5 -82t-76.5 -115q20 8 53 8q75 0 126.5 -53t51.5 -137q0 -89 -63 -152t-150 -63q-99 0 -168.5 71.5t-69.5 192.5z" />
<glyph unicode="&#x2019;" horiz-adv-x="575" d="M70 1171q0 89 63 152t150 63q98 0 167.5 -71.5t69.5 -192.5q0 -133 -67 -248.5t-189 -201.5l-149 121q52 23 109.5 81.5t76.5 114.5q-20 -8 -53 -8q-75 0 -126.5 53t-51.5 137z" />
<glyph unicode="&#x201a;" horiz-adv-x="575" d="M70 199q0 89 63 152t150 63q98 0 167.5 -71.5t69.5 -192.5q0 -133 -67 -249t-189 -202l-149 121q52 23 109.5 81.5t76.5 114.5q-20 -8 -53 -8q-75 0 -126.5 53t-51.5 138z" />
<glyph unicode="&#x201b;" horiz-adv-x="575" d="M55 1122q0 121 69.5 192.5t168.5 71.5q87 0 150 -63t63 -152q0 -84 -51.5 -137t-126.5 -53q-34 0 -54 8q19 -56 77 -114.5t110 -81.5l-150 -121q-122 86 -189 201.5t-67 248.5z" />
<glyph unicode="&#x201c;" horiz-adv-x="1081" d="M53 938q0 133 67 249t189 202l150 -121q-52 -23 -110 -82t-77 -115q20 8 54 8q75 0 126.5 -53t51.5 -137q0 -89 -63 -152t-150 -63q-99 0 -168.5 71.5t-69.5 192.5zM559 938q0 133 67 249t189 202l150 -121q-52 -23 -110 -82t-77 -115q20 8 53 8q75 0 127 -53t52 -137 q0 -89 -63 -152t-150 -63q-99 0 -168.5 71.5t-69.5 192.5z" />
<glyph unicode="&#x201d;" horiz-adv-x="1081" d="M70 1171q0 89 63 152t150 63q98 0 167.5 -71.5t69.5 -192.5q0 -133 -67 -248.5t-189 -201.5l-149 121q52 23 109.5 81.5t76.5 114.5q-20 -8 -53 -8q-75 0 -126.5 53t-51.5 137zM575 1171q0 89 63 152t150 63q99 0 168.5 -71.5t69.5 -192.5q0 -133 -67 -248.5t-189 -201.5 l-149 121q52 23 109.5 81.5t76.5 114.5q-20 -8 -53 -8q-75 0 -127 53t-52 137z" />
<glyph unicode="&#x201e;" horiz-adv-x="1081" d="M70 199q0 89 63 152t150 63q98 0 167.5 -71.5t69.5 -192.5q0 -133 -67 -249t-189 -202l-149 121q52 23 109.5 81.5t76.5 114.5q-20 -8 -53 -8q-75 0 -126.5 53t-51.5 138zM575 199q0 89 63 152t150 63q99 0 168.5 -71.5t69.5 -192.5q0 -133 -67 -249t-189 -202l-149 121 q52 23 109.5 81.5t76.5 114.5q-20 -8 -53 -8q-75 0 -127 53.5t-52 137.5z" />
<glyph unicode="&#x2020;" horiz-adv-x="595" d="M35 1051v166l182 -7l-10 176h180l-8 -176l182 7v-166l-182 8l8 -389h-180l10 389z" />
<glyph unicode="&#x2021;" horiz-adv-x="595" d="M35 543v166l180 -9v359l-180 -8v166l180 -7l-8 176h180l-8 -176l182 7v-166l-182 8v-359l182 9v-166l-182 6l8 -180h-180l8 180z" />
<glyph unicode="&#x2022;" horiz-adv-x="733" d="M102 496q0 110 78.5 188t188.5 78t188 -78t78 -188q0 -109 -78 -187t-188 -78t-188.5 78t-78.5 187z" />
<glyph unicode="&#x2026;" horiz-adv-x="1732" d="M72 195q0 89 64 154t153 65t153 -65t64 -154q0 -88 -64 -153t-153 -65t-153 65t-64 153zM649 195q0 89 64 154t153 65t153 -65t64 -154q0 -88 -64 -153t-153 -65t-153 65t-64 153zM1227 195q0 89 64 154t153 65t153 -65t64 -154q0 -88 -64 -153t-153 -65t-153 65t-64 153 z" />
<glyph unicode="&#x202f;" horiz-adv-x="372" />
<glyph unicode="&#x2030;" horiz-adv-x="2375" d="M41 1040q0 148 100.5 247t264.5 99q165 0 266.5 -99t101.5 -247q0 -146 -101.5 -244t-266.5 -98q-164 0 -264.5 98t-100.5 244zM268 0l873 1366h200l-874 -1366h-199zM291 1040q0 -75 32 -112t83 -37q53 0 85.5 36.5t32.5 112.5q0 79 -32.5 116.5t-85.5 37.5 q-51 0 -83 -37.5t-32 -116.5zM834 317q0 148 100 247.5t264 99.5t265.5 -99.5t101.5 -247.5q0 -146 -101.5 -244t-265.5 -98t-264 98t-100 244zM1081 317q0 -76 32 -112.5t85 -36.5t86 37t33 112q0 79 -33 116.5t-86 37.5t-85 -37.5t-32 -116.5zM1604 317q0 148 100 247.5 t264 99.5t265.5 -99.5t101.5 -247.5q0 -146 -101.5 -244t-265.5 -98t-264 98t-100 244zM1851 317q0 -76 32 -112.5t85 -36.5t86 37t33 112q0 79 -33 116.5t-86 37.5t-85 -37.5t-32 -116.5z" />
<glyph unicode="&#x2039;" horiz-adv-x="778" d="M61 498l328 362h328l-328 -362l328 -369h-328z" />
<glyph unicode="&#x203a;" horiz-adv-x="778" d="M61 129l328 369l-328 362h328l328 -362l-328 -369h-328z" />
<glyph unicode="&#x203e;" horiz-adv-x="743" d="M0 1128v199h743v-199h-743z" />
<glyph unicode="&#x2044;" horiz-adv-x="368" d="M-352 0l872 1366h201l-875 -1366h-198z" />
<glyph unicode="&#x205f;" horiz-adv-x="466" />
<glyph unicode="&#x2070;" horiz-adv-x="833" d="M41 1272q0 115 40 208.5t127.5 153.5t209.5 60q121 0 208 -60t127 -153.5t40 -208.5q0 -116 -40 -210t-127 -154t-208 -60q-92 0 -165.5 34.5t-119 93.5t-69 134.5t-23.5 161.5zM311 1272q0 -112 26 -161.5t81 -49.5q53 0 78.5 49.5t25.5 161.5t-25 160.5t-79 48.5 q-55 0 -81 -48.5t-26 -160.5z" />
<glyph unicode="&#x2074;" horiz-adv-x="833" d="M39 1008v178l293 495h379v-464h96v-209h-96v-146h-269v146h-403zM303 1217h139v241z" />
<glyph unicode="&#x2075;" horiz-adv-x="833" d="M51 961l142 172q40 -36 98 -54t115 -18q56 0 84 22.5t28 53.5q0 33 -25.5 54t-78.5 21q-95 0 -154 -53l-184 55v467h653v-213h-383v-125q65 62 172 62q113 0 189.5 -68t76.5 -192q0 -132 -100 -214.5t-278 -82.5q-113 0 -205.5 29.5t-149.5 83.5z" />
<glyph unicode="&#x2076;" horiz-adv-x="833" d="M39 1270q0 206 122.5 315t327.5 109q70 0 141.5 -18t123.5 -50l-111 -190q-62 45 -154 45q-75 0 -127.5 -36t-52.5 -97v-5q70 82 187 82q122 0 211.5 -76.5t89.5 -201.5q0 -135 -99 -217t-252 -82q-202 0 -304.5 115.5t-102.5 306.5zM309 1186q2 -55 32 -90t91 -35 q38 0 66 21.5t28 52.5q0 43 -35 63.5t-75 20.5q-69 0 -107 -33z" />
<glyph unicode="&#x2077;" horiz-adv-x="776" d="M41 1468v213h694v-186l-266 -633h-299l274 606h-403z" />
<glyph unicode="&#x2078;" horiz-adv-x="833" d="M35 1081q0 66 51 124.5t131 78.5q-76 19 -122 70t-46 119q0 59 32 103.5t86.5 69t117 36.5t131.5 12q70 0 132.5 -12t117 -36.5t86.5 -69t32 -103.5q0 -68 -46.5 -119t-121.5 -70q78 -20 129.5 -78.5t51.5 -124.5q0 -67 -32.5 -114.5t-90 -72t-120.5 -35.5t-138 -11 q-74 0 -136.5 11t-120.5 35.5t-91 72t-33 114.5zM303 1110q0 -59 113 -59q114 0 114 59q0 36 -40.5 57t-73.5 23q-18 -1 -42 -9t-47.5 -27t-23.5 -44zM317 1432q0 -20 21 -35.5t40.5 -21.5t37.5 -9q32 5 65 21.5t33 44.5q0 59 -98 59q-99 0 -99 -59z" />
<glyph unicode="&#x2079;" horiz-adv-x="833" d="M39 1395q0 135 99 217t253 82q201 0 303.5 -115.5t102.5 -306.5q0 -206 -123 -315t-328 -109q-70 0 -141 17.5t-121 49.5l111 191q60 -45 153 -45q72 0 125 33.5t53 99.5v4q-70 -82 -186 -82q-120 0 -210.5 77t-90.5 202zM311 1407q0 -43 34.5 -63.5t74.5 -20.5 q69 0 106 35q-2 54 -30.5 88.5t-85.5 34.5q-42 0 -70.5 -21.5t-28.5 -52.5z" />
<glyph unicode="&#x207d;" horiz-adv-x="456" d="M43 1272q0 151 65 308t164 235l164 -64q-66 -117 -92.5 -228.5t-26.5 -250.5t26.5 -250.5t92.5 -228.5l-164 -64q-99 77 -164 234t-65 309z" />
<glyph unicode="&#x207e;" horiz-adv-x="456" d="M20 793q65 118 92 229.5t27 249.5t-27 250.5t-92 228.5l162 64q100 -78 166 -235.5t66 -307.5q0 -151 -66 -307.5t-166 -235.5z" />
<glyph unicode="&#x207f;" horiz-adv-x="870" d="M82 668v643h260v-70q82 86 225 86q109 0 165 -58.5t56 -148.5v-452h-260v352q0 88 -90 88q-53 0 -96 -43v-397h-260z" />
<glyph unicode="&#x2080;" horiz-adv-x="833" d="M41 111q0 85 23.5 160t69 134t119 93t165.5 34t164.5 -34t118 -93t69 -134t23.5 -160q0 -116 -40 -210t-127 -154t-208 -60q-92 0 -165.5 34.5t-119 93.5t-69 134.5t-23.5 161.5zM311 111q0 -112 26 -161.5t81 -49.5q53 0 78.5 49.5t25.5 161.5t-25 160t-79 48 q-55 0 -81 -48t-26 -160z" />
<glyph unicode="&#x2081;" horiz-adv-x="688" d="M0 197l334 323h231v-819h-270v477l-143 -141z" />
<glyph unicode="&#x2082;" horiz-adv-x="833" d="M45 393q69 72 166 105.5t192 33.5q170 0 268.5 -72.5t98.5 -195.5q0 -79 -62.5 -155.5t-232.5 -194.5h303v-213h-692v195q197 136 284 202t108.5 92t21.5 52q0 36 -26.5 56.5t-76.5 20.5q-61 0 -122.5 -30.5t-94.5 -67.5z" />
<glyph unicode="&#x2083;" horiz-adv-x="833" d="M47 -186l127 178q48 -46 113 -69t116 -23q56 0 84.5 15t28.5 38q0 19 -9.5 31t-31.5 17.5t-45 7t-63 1.5q-89 0 -101 -2v209q18 -2 99 -2q77 0 107 11.5t30 41.5q0 51 -117 51q-124 0 -209 -79l-119 157q128 135 359 135q175 0 264.5 -62t89.5 -165q0 -65 -50.5 -117 t-131.5 -65q76 -7 136 -58.5t60 -132.5q0 -109 -102.5 -177t-267.5 -68q-121 0 -215.5 34.5t-151.5 92.5z" />
<glyph unicode="&#x2084;" horiz-adv-x="833" d="M39 25l293 495h379v-465h96v-209h-96v-145h-269v145h-403v179zM303 55h139v242z" />
<glyph unicode="&#x2085;" horiz-adv-x="833" d="M51 -201l142 172q79 -71 213 -71q56 0 84 22t28 53q0 33 -26 54.5t-78 21.5q-95 0 -154 -53l-184 55v467h653v-213h-383v-125q65 62 172 62q113 0 189.5 -68t76.5 -192q0 -132 -100 -214.5t-278 -82.5q-113 0 -205.5 29t-149.5 83z" />
<glyph unicode="&#x2086;" horiz-adv-x="833" d="M39 109q0 206 122.5 314.5t327.5 108.5q70 0 142 -17.5t123 -49.5l-111 -191q-62 45 -154 45q-75 0 -127.5 -36t-52.5 -97v-4q70 82 187 82q122 0 211.5 -76.5t89.5 -201.5q0 -135 -99 -217t-252 -82q-202 0 -304.5 115.5t-102.5 306.5zM309 25q2 -55 32 -90t91 -35 q39 0 66.5 21t27.5 52q0 43 -35 63.5t-75 20.5q-71 0 -107 -32z" />
<glyph unicode="&#x2087;" horiz-adv-x="776" d="M41 307v213h694v-186l-266 -633h-299l274 606h-403z" />
<glyph unicode="&#x2088;" horiz-adv-x="833" d="M35 -80q0 66 51 124.5t131 78.5q-76 19 -122 69.5t-46 118.5q0 59 32 103.5t86.5 69t117 36.5t131.5 12q70 0 132.5 -12t117 -36.5t86.5 -69t32 -103.5q0 -68 -46.5 -118.5t-121.5 -69.5q78 -20 129.5 -78.5t51.5 -124.5q0 -67 -32.5 -114.5t-90 -72t-120.5 -35.5 t-138 -11q-74 0 -136.5 11t-120.5 35.5t-91 72t-33 114.5zM303 -51q0 -60 113 -60q114 0 114 60q0 36 -40.5 57t-73.5 23q-18 -1 -42 -9t-47.5 -27t-23.5 -44zM317 270q0 -20 21 -35t40.5 -21t37.5 -9q18 3 38 9t40 21t20 35q0 60 -98 60q-99 0 -99 -60z" />
<glyph unicode="&#x2089;" horiz-adv-x="833" d="M39 233q0 135 99 217t253 82q201 0 303.5 -115t102.5 -306q0 -206 -123 -315t-328 -109q-70 0 -141 17.5t-121 49.5l111 191q60 -45 153 -45q72 0 125 33.5t53 99.5v4q-70 -82 -186 -82q-121 0 -211 76.5t-90 201.5zM311 246q0 -43 34.5 -63.5t74.5 -20.5q69 0 106 35 q-2 54 -30.5 88t-85.5 34q-43 0 -71 -21t-28 -52z" />
<glyph unicode="&#x208d;" horiz-adv-x="456" d="M43 111q0 151 65 307.5t164 234.5l164 -63q-66 -117 -92.5 -228.5t-26.5 -250.5q0 -140 26.5 -251.5t92.5 -228.5l-164 -63q-99 77 -164 234t-65 309z" />
<glyph unicode="&#x208e;" horiz-adv-x="456" d="M20 -369q65 118 92 230t27 250t-27 250.5t-92 228.5l162 63q100 -78 166 -235t66 -307q0 -151 -66 -307.5t-166 -235.5z" />
<glyph unicode="&#x20a1;" horiz-adv-x="1458" d="M61 682q0 203 95 362.5t260 248t372 93.5l62 187h194l-67 -201q58 -13 96 -29l76 230h194l-106 -322q122 -96 197 -260l-332 -155l-150 -455q93 59 125 158l357 -164q-26 -59 -60.5 -112t-89 -106.5t-119 -92.5t-154.5 -63.5t-192 -25.5l-59 -180h-195l66 199 q-35 6 -96 26l-74 -225h-195l101 305q-144 94 -225 244.5t-81 337.5zM481 682q0 -76 29 -145l147 450q-82 -41 -129 -122.5t-47 -182.5zM651 379q44 -24 94 -33l209 635q-46 29 -92 37z" />
<glyph unicode="&#x20a3;" horiz-adv-x="1226" d="M14 166v199h111v1001h1036v-360h-622v-136h608v-360h-608v-145h219v-199h-219v-166h-414v166h-111z" />
<glyph unicode="&#x20a4;" horiz-adv-x="1189" d="M53 451v172h164l-39 71h-125v172h43q-10 42 -10 76q0 85 33.5 159t88 125t124.5 88t144 54.5t145 17.5q204 0 334.5 -63.5t203.5 -202.5l-328 -188q-22 62 -63.5 92.5t-93.5 30.5q-60 0 -97.5 -35t-37.5 -86q0 -35 10 -68h309v-172h-242q10 -40 15 -71h227v-172h-260 q-31 -50 -68 -72q37 12 88 12q57 0 125 -25.5t109 -25.5q106 0 156 68l157 -326q-100 -107 -327 -107q-75 0 -148.5 21.5t-131.5 43t-95 21.5q-104 0 -234 -75l-135 270q172 97 174 195h-215z" />
<glyph unicode="&#x20a6;" horiz-adv-x="1564" d="M14 451v198h111v76h-111v199h111v442h426l475 -647v647h414v-442h110v-199h-110v-76h110v-198h-110v-451h-398l-503 692v-692h-414v451h-111z" />
<glyph unicode="&#x20a7;" horiz-adv-x="1464" d="M14 737v199h111v430h729q203 0 329.5 -120t153.5 -310h119v-199h-119q-27 -190 -153.5 -310t-329.5 -120h-315v-307h-414v737h-111zM539 668h262q67 0 102 69h-364v-69zM539 936h364q-37 70 -102 70h-262v-70z" />
<glyph unicode="&#x20a8;" horiz-adv-x="2304" d="M111 0v1366h729q154 0 267.5 -64.5t168.5 -169.5t55 -235q0 -84 -22.5 -155.5t-60.5 -121t-78 -82.5t-85 -55l248 -483h-471l-188 430h-150v-430h-413zM524 791h252q57 0 96 27t39 81q0 52 -39 79.5t-96 27.5h-252v-215zM1319 127l147 248q61 -47 168.5 -86t188.5 -39 q98 0 98 43q0 18 -31 28.5t-80.5 17t-109.5 15t-119.5 29.5t-109 54t-80.5 94t-31 145q0 141 118 239.5t324 98.5q236 0 428 -127l-135 -240q-50 42 -130 72.5t-161 30.5q-39 0 -65.5 -12.5t-26.5 -30.5q0 -14 24 -23.5t63.5 -14t90 -14t103 -20.5t103 -36.5t90 -60 t63.5 -92t24 -131.5q0 -151 -126.5 -245.5t-342.5 -94.5q-135 0 -270 42.5t-215 109.5z" />
<glyph unicode="&#x20a9;" horiz-adv-x="1953" d="M-25 1366h463l92 -442h181l110 442h312l108 -442h180l92 442h465l-127 -442h93v-199h-150l-20 -76h170v-198h-228l-129 -451h-434l-102 451h-148l-102 -451h-434l-129 451h-228v198h170l-22 76h-148v199h92zM573 725l17 -76h53l19 76h-89zM948 649h58l-19 76h-22z M1290 725l19 -76h55l14 76h-88z" />
<glyph unicode="&#x20aa;" horiz-adv-x="1779" d="M102 0v1126h666q146 0 245.5 -31.5t154 -94t77.5 -143t23 -191.5v-277h-344v242q0 49 -5.5 79.5t-21 55.5t-47.5 36t-82 11h-322v-813h-344zM512 0v735h344v-422h322q96 0 125.5 42t29.5 141v630h344v-665q0 -111 -22.5 -191.5t-77.5 -143.5t-154.5 -94.5t-244.5 -31.5 h-666z" />
<glyph unicode="&#x20ab;" horiz-adv-x="1232" d="M35 496q0 239 123.5 378.5t312.5 139.5q172 0 279 -129v182h-275v199h275v100h368v-100h101v-199h-101v-1067h-368v104q-115 -129 -279 -129q-91 0 -169.5 34t-138.5 98.5t-94 164.5t-34 224zM260 -209h744v-199h-744v199zM412 496q0 -89 53 -142t131 -53q39 0 84 18.5 t70 49.5v254q-25 30 -69.5 47.5t-84.5 17.5q-78 0 -131 -51.5t-53 -140.5z" />
<glyph unicode="&#x20ac;" horiz-adv-x="1478" d="M25 446v195h63v88h-63v195h102q74 214 266 339.5t447 125.5q103 0 193.5 -23.5t156 -62t120 -92t89.5 -106.5t61 -114l-356 -166q-27 83 -101 141t-163 58q-149 0 -242 -100h365v-195h-453q-2 -16 -2 -47q0 -29 2 -41h453v-195h-371q95 -106 248 -106q89 0 163 58 t101 141l356 -164q-26 -59 -60.5 -112t-89.5 -107t-120 -93t-156 -63.5t-194 -24.5q-257 0 -450 127t-265 344h-100z" />
<glyph unicode="&#x2113;" horiz-adv-x="1179" d="M104 287v674q0 186 153 305.5t394 119.5q128 0 240.5 -40t184 -117.5t71.5 -175.5q0 -50 -22 -100t-55 -91t-85.5 -86.5t-99.5 -79t-111 -75.5l-301 -195v-70q0 -39 22.5 -65.5t59.5 -26.5q43 0 74 19l65 -242q-75 -66 -250 -66q-160 0 -250 76t-90 236zM473 756l182 118 q82 55 113 87t31 71q0 48 -46 76.5t-110 28.5q-81 0 -125.5 -46t-44.5 -130v-205z" />
<glyph unicode="&#x2116;" horiz-adv-x="2365" d="M111 0v1366h426l475 -647v647h413v-1366h-397l-504 692v-692h-413zM1577 1055q0 67 26 128t73 108t118 74.5t156 27.5q172 0 273 -99t101 -239t-101 -239t-273 -99q-85 0 -156 27.5t-118 74.5t-73 108t-26 128zM1845 1055q0 -133 105 -133q108 0 108 133q0 129 -108 129 q-105 0 -105 -129z" />
</font>
</defs>
</svg>
